%TF.GenerationSoftware,Novarm,DipTrace,3.3.1.1*%
%TF.CreationDate,2019-12-04T09:18:10-05:00*%
%FSLAX35Y35*%
%MOMM*%
%TF.FileFunction,Drawing,Top*%
%TF.Part,Single*%
%ADD12C,0.0762*%
%ADD53C,0.1*%
G75*
G01*
%LPD*%
X22131050Y10303257D2*
D53*
X23051050D1*
Y9240157D1*
X22131050D1*
Y10303257D1*
X14159563Y9384047D2*
Y8464047D1*
X13096463D1*
Y9384047D1*
X14159563D1*
X14869150Y5981537D2*
X13949150D1*
Y7044637D1*
X14869150D1*
Y5981537D1*
X17712423Y6015087D2*
X16792423D1*
Y7078187D1*
X17712423D1*
Y6015087D1*
X23103920Y10311783D2*
X24023920D1*
Y9248683D1*
X23103920D1*
Y10311783D1*
X24086927Y10311753D2*
X25006927D1*
Y9248653D1*
X24086927D1*
Y10311753D1*
X17006323Y10926607D2*
X16086323D1*
Y11989707D1*
X17006323D1*
Y10926607D1*
X20131723Y10916010D2*
X19211723D1*
Y11979110D1*
X20131723D1*
Y10916010D1*
X26231803Y10922610D2*
X25311803D1*
Y11985710D1*
X26231803D1*
Y10922610D1*
X23188207Y10973193D2*
X22268207D1*
Y12036293D1*
X23188207D1*
Y10973193D1*
X7190500Y7173880D2*
D12*
X8082040D1*
X8143000D2*
X8706880D1*
X8767840D2*
X9194560D1*
X9240280D2*
X9598420D1*
X9773680D2*
X11328160D1*
X11800600D2*
X12158740D1*
X7187865Y7166260D2*
X8080862D1*
X8139453D2*
X8705702D1*
X8764032D2*
X9190752D1*
X9239102D2*
X9595785D1*
X9768695D2*
X11332855D1*
X11792950D2*
X12158740D1*
X7185329Y7158640D2*
X8078943D1*
X8136996D2*
X8703783D1*
X8760867D2*
X9187587D1*
X9237213D2*
X9593249D1*
X9763611D2*
X11336962D1*
X11785062D2*
X12158710D1*
X7182914Y7151020D2*
X8076703D1*
X8134888D2*
X8701543D1*
X8757904D2*
X9184624D1*
X9235211D2*
X9590834D1*
X9758436D2*
X11340311D1*
X11776471D2*
X12158442D1*
X7180313Y7143400D2*
X8074397D1*
X8132304D2*
X8699237D1*
X8755190D2*
X9181910D1*
X9233608D2*
X9588233D1*
X9753655D2*
X11343137D1*
X11767026D2*
X12157471D1*
X7177755Y7135780D2*
X8071834D1*
X8129180D2*
X8696674D1*
X8752691D2*
X9179411D1*
X9231899D2*
X9585675D1*
X9749326D2*
X11346137D1*
X11757453D2*
X12155646D1*
X7175317Y7128160D2*
X7220690D1*
X8019902D2*
X8069289D1*
X8125921D2*
X8173190D1*
X8647418D2*
X8694129D1*
X8750084D2*
X9176775D1*
X9229482D2*
X9583237D1*
X9745266D2*
X11349461D1*
X11748504D2*
X12153663D1*
X7172703Y7120540D2*
X7219713D1*
X8017983D2*
X8066855D1*
X8122966D2*
X8172213D1*
X8642931D2*
X8691695D1*
X8747751D2*
X9174203D1*
X9226424D2*
X9580623D1*
X9741360D2*
X11352806D1*
X11740147D2*
X12152066D1*
X7170139Y7112920D2*
X7217857D1*
X8015743D2*
X8064242D1*
X8120333D2*
X8170357D1*
X8640112D2*
X8689082D1*
X8746011D2*
X9171759D1*
X9223189D2*
X9578059D1*
X9737504D2*
X11355795D1*
X11731936D2*
X12150388D1*
X7167698Y7105300D2*
X7215635D1*
X8013437D2*
X8061678D1*
X8117635D2*
X8168135D1*
X8637903D2*
X8686518D1*
X8744248D2*
X9169143D1*
X9220242D2*
X9575618D1*
X9733656D2*
X11358470D1*
X11723211D2*
X12148210D1*
X7165083Y7097680D2*
X7213335D1*
X8010874D2*
X8059238D1*
X8115038D2*
X8165835D1*
X8635513D2*
X8684078D1*
X8741813D2*
X9166579D1*
X9217612D2*
X9573033D1*
X9729597D2*
X11361411D1*
X11713715D2*
X12145855D1*
X7162519Y7090060D2*
X7210803D1*
X8008329D2*
X8056623D1*
X8112585D2*
X8163273D1*
X8633078D2*
X8681463D1*
X8738747D2*
X9164138D1*
X9214944D2*
X9570707D1*
X9725058D2*
X11364713D1*
X11704122D2*
X12143503D1*
X7160078Y7082440D2*
X7208496D1*
X8005895D2*
X8054059D1*
X8109995D2*
X8160729D1*
X8630698D2*
X8678899D1*
X8735539D2*
X9161523D1*
X9212585D2*
X9568969D1*
X9720149D2*
X11368050D1*
X11695167D2*
X12140923D1*
X7157463Y7074820D2*
X7206766D1*
X8003282D2*
X8051618D1*
X8107667D2*
X8158295D1*
X8628108D2*
X8676458D1*
X8732830D2*
X9158959D1*
X9210836D2*
X9567208D1*
X9715484D2*
X11371036D1*
X11686808D2*
X12138372D1*
X7154899Y7067200D2*
X7205007D1*
X8000718D2*
X8049003D1*
X8105930D2*
X8155682D1*
X8625553D2*
X8673843D1*
X8730903D2*
X9156518D1*
X9209100D2*
X9564772D1*
X9711200D2*
X11373710D1*
X11678596D2*
X12135936D1*
X7152458Y7059580D2*
X7202572D1*
X7998278D2*
X8046439D1*
X8104168D2*
X8153118D1*
X8623087D2*
X8671279D1*
X8729060D2*
X9153903D1*
X9206901D2*
X9561707D1*
X9707157D2*
X11376651D1*
X11669871D2*
X12133322D1*
X7149843Y7051960D2*
X7199507D1*
X7995663D2*
X8043998D1*
X8101732D2*
X8150678D1*
X8620235D2*
X8668838D1*
X8726591D2*
X9151339D1*
X9204539D2*
X9558499D1*
X9703227D2*
X11379953D1*
X11660375D2*
X12130758D1*
X7147279Y7044340D2*
X7196299D1*
X7993099D2*
X8041383D1*
X8098667D2*
X8148063D1*
X8616967D2*
X8666223D1*
X8723514D2*
X9148898D1*
X9202185D2*
X9555790D1*
X9699135D2*
X11383290D1*
X11650782D2*
X12128318D1*
X7144838Y7036720D2*
X7193590D1*
X7990658D2*
X8038819D1*
X8095430D2*
X8145499D1*
X8613673D2*
X8663659D1*
X8720302D2*
X9146283D1*
X9199604D2*
X9553863D1*
X9694585D2*
X11386276D1*
X11641827D2*
X12125703D1*
X7142253Y7029100D2*
X7191663D1*
X7988043D2*
X8036378D1*
X8092482D2*
X8143058D1*
X8610929D2*
X8661218D1*
X8717591D2*
X9143719D1*
X9197052D2*
X9552020D1*
X9689672D2*
X11388950D1*
X11633468D2*
X12123139D1*
X7139927Y7021480D2*
X7189820D1*
X7985479D2*
X8033793D1*
X8089852D2*
X8140443D1*
X8608990D2*
X8658603D1*
X8715663D2*
X9141278D1*
X9194616D2*
X9549551D1*
X9685004D2*
X11391891D1*
X11625256D2*
X12120698D1*
X7138189Y7013860D2*
X7187351D1*
X7983038D2*
X8031467D1*
X8087184D2*
X8137879D1*
X8607172D2*
X8656039D1*
X8713820D2*
X9138663D1*
X9192002D2*
X9546474D1*
X9680720D2*
X11395193D1*
X11616531D2*
X12118083D1*
X7136428Y7006240D2*
X7184274D1*
X7980423D2*
X8029729D1*
X8084825D2*
X8135438D1*
X8604940D2*
X8653598D1*
X8711351D2*
X9136099D1*
X9189439D2*
X9543262D1*
X9676677D2*
X11398530D1*
X11607035D2*
X12115519D1*
X7133992Y6998620D2*
X7181062D1*
X7977859D2*
X8027968D1*
X8083076D2*
X8132823D1*
X8602565D2*
X8650983D1*
X8708274D2*
X9133658D1*
X9186998D2*
X9540551D1*
X9672777D2*
X11401516D1*
X11597442D2*
X12113078D1*
X7130927Y6991000D2*
X7178351D1*
X7975418D2*
X8025532D1*
X8081340D2*
X8130259D1*
X8600207D2*
X8648419D1*
X8705062D2*
X9131043D1*
X9184383D2*
X9538623D1*
X9668923D2*
X11404190D1*
X11588487D2*
X12110463D1*
X7127690Y6983380D2*
X7176423D1*
X7972803D2*
X8022467D1*
X8079141D2*
X8127818D1*
X8597624D2*
X8645978D1*
X8702351D2*
X9128479D1*
X9181819D2*
X9536809D1*
X9665076D2*
X11407131D1*
X11580128D2*
X12107899D1*
X7124742Y6975760D2*
X7174580D1*
X7970239D2*
X8019259D1*
X8076779D2*
X8125203D1*
X8595072D2*
X8643363D1*
X8700423D2*
X9126038D1*
X9179378D2*
X9534579D1*
X9661017D2*
X11410433D1*
X11571916D2*
X12105458D1*
X7122112Y6968140D2*
X7172111D1*
X7967798D2*
X8016550D1*
X8074425D2*
X8122639D1*
X8592636D2*
X8640799D1*
X8698609D2*
X9123423D1*
X9176763D2*
X9532205D1*
X9656478D2*
X11413770D1*
X11563191D2*
X12102843D1*
X7119415Y6960520D2*
X7169034D1*
X7965213D2*
X8014623D1*
X8071844D2*
X8120198D1*
X8590022D2*
X8638358D1*
X8696379D2*
X9120859D1*
X9174199D2*
X9529847D1*
X9651569D2*
X11416756D1*
X11553695D2*
X12100279D1*
X7116817Y6952900D2*
X7165822D1*
X7962887D2*
X8012780D1*
X8069292D2*
X8117583D1*
X8587459D2*
X8635743D1*
X8694005D2*
X9118418D1*
X9171758D2*
X9527264D1*
X9646904D2*
X11419430D1*
X11544102D2*
X12097838D1*
X7114365Y6945280D2*
X7163111D1*
X7961149D2*
X8010311D1*
X8066826D2*
X8115019D1*
X8585018D2*
X8633179D1*
X8691617D2*
X9115803D1*
X9169143D2*
X9524712D1*
X9642620D2*
X11422371D1*
X11535147D2*
X12095223D1*
X7111775Y6937660D2*
X7161183D1*
X7959388D2*
X8007234D1*
X8063974D2*
X8112578D1*
X8582403D2*
X8630738D1*
X8688796D2*
X9113239D1*
X9166579D2*
X9522276D1*
X9638577D2*
X11425673D1*
X11526788D2*
X12092659D1*
X7109447Y6930040D2*
X7159369D1*
X7956952D2*
X8004022D1*
X8060707D2*
X8109963D1*
X8579839D2*
X8628123D1*
X8685541D2*
X9110798D1*
X9164138D2*
X9519662D1*
X9634647D2*
X11429010D1*
X11518576D2*
X12090218D1*
X7107710Y6922420D2*
X7157139D1*
X7953887D2*
X8001311D1*
X8057413D2*
X8107399D1*
X8577398D2*
X8625559D1*
X8682251D2*
X9108183D1*
X9161523D2*
X9517099D1*
X9630555D2*
X11431996D1*
X11509851D2*
X12087603D1*
X7105978Y6914800D2*
X7154765D1*
X7950650D2*
X7999383D1*
X8054669D2*
X8104958D1*
X8574783D2*
X8623118D1*
X8679509D2*
X9105619D1*
X9158959D2*
X9514658D1*
X9626005D2*
X11434670D1*
X11500355D2*
X12085039D1*
X7103780Y6907180D2*
X7152407D1*
X7947702D2*
X7997540D1*
X8052730D2*
X8102343D1*
X8572219D2*
X8620503D1*
X8677570D2*
X9103178D1*
X9156518D2*
X9512043D1*
X9621092D2*
X11437635D1*
X11490762D2*
X12082598D1*
X7101418Y6899560D2*
X7149824D1*
X7945072D2*
X7995071D1*
X8050912D2*
X8099779D1*
X8569778D2*
X8617939D1*
X8675751D2*
X9100563D1*
X9153903D2*
X9509479D1*
X9616424D2*
X11441163D1*
X11481801D2*
X12079983D1*
X7099035Y6891940D2*
X7147272D1*
X7942375D2*
X7991994D1*
X8048680D2*
X8097338D1*
X8567163D2*
X8615498D1*
X8673520D2*
X9097999D1*
X9151339D2*
X9507038D1*
X9612140D2*
X11445370D1*
X11473432D2*
X12077419D1*
X7096216Y6884320D2*
X7144836D1*
X7939777D2*
X7988782D1*
X8046305D2*
X8094723D1*
X8564599D2*
X8612883D1*
X8671145D2*
X9095558D1*
X9148898D2*
X9504423D1*
X9608097D2*
X11450080D1*
X11465320D2*
X12074978D1*
X7092961Y6876700D2*
X7142222D1*
X7937325D2*
X7986071D1*
X8043947D2*
X8092159D1*
X8562158D2*
X8610319D1*
X8668787D2*
X9092973D1*
X9146283D2*
X9501859D1*
X9604167D2*
X12072363D1*
X7089671Y6869080D2*
X7139659D1*
X7934735D2*
X7984143D1*
X8041364D2*
X8089718D1*
X8559543D2*
X8607878D1*
X8666204D2*
X9090647D1*
X9143719D2*
X9499418D1*
X9600075D2*
X12069799D1*
X7086929Y6861460D2*
X7137218D1*
X7932407D2*
X7982329D1*
X8038812D2*
X8087133D1*
X8556979D2*
X8605293D1*
X8663652D2*
X9088909D1*
X9141278D2*
X9496803D1*
X9595525D2*
X12067358D1*
X7084990Y6853840D2*
X7134603D1*
X7930670D2*
X7980099D1*
X8036376D2*
X8084807D1*
X8554538D2*
X8602967D1*
X8661186D2*
X9087148D1*
X9138663D2*
X9494239D1*
X9590612D2*
X12064743D1*
X7083171Y6846220D2*
X7132039D1*
X7928938D2*
X7977725D1*
X8033762D2*
X8083069D1*
X8551923D2*
X8601229D1*
X8658334D2*
X9084712D1*
X9136099D2*
X9491798D1*
X9585944D2*
X12062179D1*
X7080940Y6838600D2*
X7129598D1*
X7926740D2*
X7975367D1*
X8031199D2*
X8081308D1*
X8549359D2*
X8599498D1*
X8655067D2*
X9081647D1*
X9133658D2*
X9489183D1*
X9581660D2*
X12059738D1*
X7078565Y6830980D2*
X7126983D1*
X7924378D2*
X7972784D1*
X8028758D2*
X8078872D1*
X8546918D2*
X8597300D1*
X8651773D2*
X9078410D1*
X9131043D2*
X9486619D1*
X9577617D2*
X12057123D1*
X7076207Y6823360D2*
X7124419D1*
X7921995D2*
X7970232D1*
X8026143D2*
X8075807D1*
X8544303D2*
X8594938D1*
X8649029D2*
X9075462D1*
X9128479D2*
X9484178D1*
X9573687D2*
X12054559D1*
X7073624Y6815740D2*
X7121978D1*
X7919176D2*
X7967796D1*
X8023579D2*
X8072570D1*
X8541739D2*
X8592584D1*
X8647090D2*
X9072832D1*
X9126038D2*
X9481563D1*
X9569595D2*
X12052118D1*
X7071072Y6808120D2*
X7119363D1*
X7915921D2*
X7965182D1*
X8021138D2*
X8069622D1*
X8539298D2*
X8590004D1*
X8645272D2*
X9070135D1*
X9123423D2*
X9478999D1*
X9565045D2*
X12049503D1*
X7068606Y6800500D2*
X7116799D1*
X7912631D2*
X7962619D1*
X8018523D2*
X8066992D1*
X8536683D2*
X8587452D1*
X8643040D2*
X9067537D1*
X9120859D2*
X9476558D1*
X9560132D2*
X10002570D1*
X10244942D2*
X10613348D1*
X10869782D2*
X12046939D1*
X7065754Y6792880D2*
X7114358D1*
X7909889D2*
X7960178D1*
X8015959D2*
X8064295D1*
X8534119D2*
X8584986D1*
X8640665D2*
X9065085D1*
X9118418D2*
X9473943D1*
X9555464D2*
X9995957D1*
X10243023D2*
X10608623D1*
X10867893D2*
X12044498D1*
X7062487Y6785260D2*
X7111743D1*
X7907950D2*
X7957563D1*
X8013518D2*
X8061697D1*
X8531678D2*
X8582134D1*
X8638307D2*
X9062495D1*
X9115803D2*
X9471379D1*
X9551180D2*
X9990431D1*
X10240783D2*
X10605100D1*
X10865891D2*
X12041913D1*
X7059193Y6777640D2*
X7109179D1*
X7906131D2*
X7954999D1*
X8010903D2*
X8059245D1*
X8529063D2*
X8578867D1*
X8635724D2*
X9060167D1*
X9113239D2*
X9468938D1*
X9547137D2*
X9985766D1*
X10238477D2*
X10602008D1*
X10864288D2*
X12039587D1*
X7056449Y6770020D2*
X7106738D1*
X7903900D2*
X7952558D1*
X8008339D2*
X8056655D1*
X8526499D2*
X8575573D1*
X8633172D2*
X9058430D1*
X9110798D2*
X9466353D1*
X9543207D2*
X9981568D1*
X10235914D2*
X10599251D1*
X10862609D2*
X12037849D1*
X7054510Y6762400D2*
X7104123D1*
X7901525D2*
X7949943D1*
X8005898D2*
X8054327D1*
X8524058D2*
X8572829D1*
X8630736D2*
X9056698D1*
X9108213D2*
X9464027D1*
X9539115D2*
X9977609D1*
X10233369D2*
X10596738D1*
X10860430D2*
X12036088D1*
X7052692Y6754780D2*
X7101559D1*
X7899167D2*
X7947379D1*
X8003283D2*
X8052590D1*
X8521443D2*
X8570890D1*
X8628122D2*
X9054500D1*
X9105887D2*
X9462289D1*
X9534565D2*
X9973734D1*
X10230935D2*
X10594097D1*
X10858075D2*
X12033652D1*
X7050460Y6747160D2*
X7099118D1*
X7896584D2*
X7944938D1*
X8000719D2*
X8050828D1*
X8518879D2*
X8569072D1*
X8625559D2*
X9052138D1*
X9104149D2*
X9460528D1*
X9529652D2*
X9969879D1*
X10228322D2*
X10591523D1*
X10855723D2*
X12030587D1*
X7048085Y6739540D2*
X7096503D1*
X7894032D2*
X7942323D1*
X7998278D2*
X8048392D1*
X8516438D2*
X8566840D1*
X8623118D2*
X9049784D1*
X9102388D2*
X9458092D1*
X9524984D2*
X9965818D1*
X10225758D2*
X10589080D1*
X10853143D2*
X12027379D1*
X7045727Y6731920D2*
X7093939D1*
X7891566D2*
X7939759D1*
X7995663D2*
X8045327D1*
X8513823D2*
X8564465D1*
X8620503D2*
X9047204D1*
X9099952D2*
X9455027D1*
X9520700D2*
X9961278D1*
X10223318D2*
X10586464D1*
X10850592D2*
X12024670D1*
X7043144Y6724300D2*
X7091498D1*
X7888714D2*
X7937318D1*
X7993099D2*
X8042090D1*
X8511259D2*
X8562107D1*
X8617939D2*
X9044652D1*
X9096887D2*
X9451819D1*
X9516657D2*
X9956369D1*
X10220703D2*
X10583899D1*
X10848156D2*
X12022743D1*
X7040592Y6716680D2*
X7088883D1*
X7885447D2*
X7934703D1*
X7990658D2*
X8039142D1*
X8508818D2*
X8559524D1*
X8615498D2*
X9042216D1*
X9093679D2*
X9449110D1*
X9512757D2*
X9951704D1*
X10218139D2*
X10581458D1*
X10845542D2*
X12020929D1*
X7038156Y6709060D2*
X7086319D1*
X7882153D2*
X7932139D1*
X7988043D2*
X8036512D1*
X8506203D2*
X8556972D1*
X8612883D2*
X9039602D1*
X9090970D2*
X9447183D1*
X9508903D2*
X9947420D1*
X10215698D2*
X10578843D1*
X10842978D2*
X12018699D1*
X7035542Y6701440D2*
X7083878D1*
X7879409D2*
X7929698D1*
X7985479D2*
X8033844D1*
X8503639D2*
X8554536D1*
X8610319D2*
X9037039D1*
X9089043D2*
X9445340D1*
X9505056D2*
X9943377D1*
X10213083D2*
X10576279D1*
X10840538D2*
X12016325D1*
X7032979Y6693820D2*
X7081263D1*
X7877470D2*
X7927083D1*
X7983038D2*
X8031485D1*
X8501198D2*
X8551922D1*
X8607878D2*
X9034598D1*
X9087200D2*
X9442871D1*
X9500997D2*
X9939477D1*
X10210519D2*
X10573838D1*
X10837923D2*
X12013967D1*
X7030538Y6686200D2*
X7078699D1*
X7875652D2*
X7924519D1*
X7980423D2*
X8029736D1*
X8498613D2*
X8549359D1*
X8605263D2*
X9031983D1*
X9084731D2*
X9439794D1*
X9496458D2*
X9935623D1*
X10208078D2*
X10571223D1*
X10835359D2*
X12011384D1*
X7027923Y6678580D2*
X7076258D1*
X7873420D2*
X7922078D1*
X7977859D2*
X8028000D1*
X8496287D2*
X8546918D1*
X8602699D2*
X9029419D1*
X9081654D2*
X9436582D1*
X9491549D2*
X9931776D1*
X10205463D2*
X10568659D1*
X10832918D2*
X12008832D1*
X7025359Y6670960D2*
X7073643D1*
X7871045D2*
X7919463D1*
X7975418D2*
X8025801D1*
X8494549D2*
X8544303D1*
X8600258D2*
X9026978D1*
X9078442D2*
X9433871D1*
X9486884D2*
X9927717D1*
X10202899D2*
X10566218D1*
X10830303D2*
X12006366D1*
X7022918Y6663340D2*
X7071079D1*
X7868687D2*
X7916899D1*
X7972803D2*
X8023439D1*
X8492788D2*
X8541739D1*
X8597643D2*
X9024363D1*
X9075731D2*
X9431943D1*
X9482600D2*
X9923178D1*
X10200458D2*
X10563603D1*
X10827739D2*
X12003514D1*
X7020303Y6655720D2*
X7068638D1*
X7866104D2*
X7914458D1*
X7970239D2*
X8021085D1*
X8490352D2*
X8539298D1*
X8595079D2*
X9021799D1*
X9073803D2*
X9430129D1*
X9478557D2*
X9918269D1*
X10197873D2*
X10561039D1*
X10825298D2*
X11183350D1*
X11207418D2*
X11631782D1*
X11649407D2*
X12000247D1*
X7017739Y6648100D2*
X7066023D1*
X7863552D2*
X7911843D1*
X7967798D2*
X8018504D1*
X8487287D2*
X8536683D1*
X8592638D2*
X9019358D1*
X9071989D2*
X9427899D1*
X9474657D2*
X9913604D1*
X10195547D2*
X10558598D1*
X10822683D2*
X11183082D1*
X11209337D2*
X11622273D1*
X11643974D2*
X11996953D1*
X7015298Y6640480D2*
X7063459D1*
X7861116D2*
X7909279D1*
X7965183D2*
X8015952D1*
X8484079D2*
X8534119D1*
X8590023D2*
X9016743D1*
X9069759D2*
X9425525D1*
X9470803D2*
X9909320D1*
X10193809D2*
X10555983D1*
X10820119D2*
X11182081D1*
X11211577D2*
X11612680D1*
X11639596D2*
X11994209D1*
X7012683Y6632860D2*
X7061018D1*
X7858502D2*
X7906838D1*
X7962619D2*
X8013486D1*
X8481370D2*
X8531678D1*
X8587459D2*
X9014179D1*
X9067385D2*
X9423167D1*
X9466956D2*
X9905277D1*
X10192078D2*
X10553419D1*
X10817678D2*
X11179989D1*
X11213883D2*
X11603696D1*
X11636374D2*
X11992270D1*
X7010119Y6625240D2*
X7058403D1*
X7855939D2*
X7904223D1*
X7960178D2*
X8010634D1*
X8479443D2*
X8529063D1*
X8585018D2*
X9011738D1*
X9065027D2*
X9420584D1*
X9462897D2*
X9901377D1*
X10189880D2*
X10550978D1*
X10815063D2*
X11177064D1*
X11216446D2*
X11595100D1*
X11634242D2*
X11990452D1*
X7007678Y6617620D2*
X7055839D1*
X7853498D2*
X7901659D1*
X7957563D2*
X8007367D1*
X8477629D2*
X8526499D1*
X8582403D2*
X9009123D1*
X9062444D2*
X9418032D1*
X9458358D2*
X9897523D1*
X10187518D2*
X10548363D1*
X10812499D2*
X11173910D1*
X11218991D2*
X11586185D1*
X11632351D2*
X11988220D1*
X7005063Y6610000D2*
X7053398D1*
X7850883D2*
X7899218D1*
X7954999D2*
X8004073D1*
X8475399D2*
X8524058D1*
X8579839D2*
X9006559D1*
X9059892D2*
X9415596D1*
X9453449D2*
X9893676D1*
X10185164D2*
X10545799D1*
X10810058D2*
X11171220D1*
X11221455D2*
X11576606D1*
X11630093D2*
X11985845D1*
X7002499Y6602380D2*
X7050813D1*
X7848319D2*
X7896603D1*
X7952558D2*
X8001329D1*
X8473025D2*
X8521443D1*
X8577398D2*
X9004118D1*
X9057456D2*
X9412982D1*
X9448784D2*
X9889617D1*
X10182584D2*
X10543358D1*
X10807443D2*
X11169300D1*
X11224306D2*
X11566981D1*
X11627710D2*
X11983487D1*
X7000058Y6594760D2*
X7048487D1*
X7845878D2*
X7894039D1*
X7949943D2*
X7999390D1*
X8470667D2*
X8518879D1*
X8574783D2*
X9001503D1*
X9054842D2*
X9410419D1*
X9444500D2*
X9885078D1*
X10180032D2*
X10540743D1*
X10804879D2*
X11167488D1*
X11227602D2*
X11558013D1*
X11625348D2*
X11980904D1*
X6997443Y6587140D2*
X7046749D1*
X7843263D2*
X7891598D1*
X7947379D2*
X7997542D1*
X8468084D2*
X8516438D1*
X8572219D2*
X8998939D1*
X9052279D2*
X9407978D1*
X9440457D2*
X9880169D1*
X10177566D2*
X10538179D1*
X10802438D2*
X11165259D1*
X11231165D2*
X11549680D1*
X11622765D2*
X11978352D1*
X6994879Y6579520D2*
X7044988D1*
X7840699D2*
X7888983D1*
X7944938D2*
X7995072D1*
X8465532D2*
X8513823D1*
X8569778D2*
X8996498D1*
X9049838D2*
X9405363D1*
X9436557D2*
X9875504D1*
X10174714D2*
X10535738D1*
X10799823D2*
X11162885D1*
X11234850D2*
X11541705D1*
X11620212D2*
X11975916D1*
X6992438Y6571900D2*
X7042552D1*
X7838258D2*
X7886419D1*
X7942323D2*
X7991994D1*
X8463066D2*
X8511259D1*
X8567163D2*
X8993883D1*
X9047223D2*
X9402799D1*
X9432703D2*
X9871220D1*
X10171447D2*
X10533123D1*
X10797259D2*
X11160527D1*
X11238376D2*
X11533683D1*
X11617776D2*
X11973302D1*
X6989823Y6564280D2*
X7039487D1*
X7835643D2*
X7883978D1*
X7939759D2*
X7988782D1*
X8460214D2*
X8508818D1*
X8564599D2*
X8991319D1*
X9044659D2*
X9400358D1*
X9428856D2*
X9867177D1*
X10168153D2*
X10530559D1*
X10794818D2*
X11157944D1*
X11241445D2*
X11525040D1*
X11615162D2*
X11970739D1*
X6987259Y6556660D2*
X7036250D1*
X7833079D2*
X7881363D1*
X7937318D2*
X7986071D1*
X8456947D2*
X8506203D1*
X8562158D2*
X8988878D1*
X9042218D2*
X9397743D1*
X9424797D2*
X9863247D1*
X10165409D2*
X10528118D1*
X10792203D2*
X11155392D1*
X11244152D2*
X11515576D1*
X11612599D2*
X11968298D1*
X6984818Y6549040D2*
X7033302D1*
X7830638D2*
X7878799D1*
X7934703D2*
X7984143D1*
X8453653D2*
X8503639D1*
X8559543D2*
X8986263D1*
X9039603D2*
X9395179D1*
X9420258D2*
X9859155D1*
X10163470D2*
X10525503D1*
X10789639D2*
X11152956D1*
X11247104D2*
X11505996D1*
X11610128D2*
X11965683D1*
X6982203Y6541420D2*
X7030672D1*
X7828023D2*
X7876358D1*
X7932139D2*
X7982329D1*
X8450909D2*
X8501198D1*
X8556979D2*
X8983699D1*
X9037039D2*
X9392738D1*
X9415349D2*
X9854605D1*
X10161652D2*
X10522939D1*
X10787198D2*
X11150342D1*
X11250440D2*
X11497015D1*
X11607275D2*
X11963119D1*
X6979639Y6533800D2*
X7027975D1*
X7825459D2*
X7873773D1*
X7929698D2*
X7980099D1*
X8448970D2*
X8498583D1*
X8554538D2*
X8981258D1*
X9034598D2*
X9390123D1*
X9410684D2*
X9849692D1*
X10159420D2*
X10520498D1*
X10784583D2*
X11147779D1*
X11254017D2*
X11488420D1*
X11604008D2*
X11960678D1*
X6977198Y6526180D2*
X7025377D1*
X7823018D2*
X7871447D1*
X7927113D2*
X7977725D1*
X8447152D2*
X8496019D1*
X8551953D2*
X8978643D1*
X9031983D2*
X9387559D1*
X9406400D2*
X9845024D1*
X10157045D2*
X10517883D1*
X10782019D2*
X11145338D1*
X11257707D2*
X11479505D1*
X11600713D2*
X11958063D1*
X6974583Y6518560D2*
X7022925D1*
X7820403D2*
X7869709D1*
X7924787D2*
X7975367D1*
X8444920D2*
X8493578D1*
X8549627D2*
X8976079D1*
X9029419D2*
X9385113D1*
X9402381D2*
X9840740D1*
X10154687D2*
X10515319D1*
X10779578D2*
X11142723D1*
X11261235D2*
X11469926D1*
X11597969D2*
X11955499D1*
X6972019Y6510940D2*
X7020335D1*
X7817839D2*
X7867948D1*
X7923049D2*
X7972784D1*
X8442545D2*
X8490963D1*
X8547889D2*
X8973638D1*
X9026978D2*
X9382461D1*
X9398678D2*
X9836697D1*
X10152104D2*
X10512878D1*
X10776963D2*
X11140159D1*
X11264305D2*
X11460301D1*
X11596030D2*
X11953058D1*
X6969578Y6503320D2*
X7018007D1*
X7815398D2*
X7865512D1*
X7921288D2*
X7970232D1*
X8440187D2*
X8488399D1*
X8546128D2*
X8971023D1*
X9024363D2*
X9379837D1*
X9395466D2*
X9832797D1*
X10149552D2*
X10510263D1*
X10774399D2*
X11137718D1*
X11266982D2*
X11451333D1*
X11594182D2*
X11950443D1*
X6966963Y6495700D2*
X7016270D1*
X7812783D2*
X7862447D1*
X7918852D2*
X7967796D1*
X8437604D2*
X8485958D1*
X8543692D2*
X8968459D1*
X9021799D2*
X9377440D1*
X9392680D2*
X9828943D1*
X10147116D2*
X10507699D1*
X10771958D2*
X11135103D1*
X11269696D2*
X11443000D1*
X11591712D2*
X11947879D1*
X6964399Y6488080D2*
X7014508D1*
X7810219D2*
X7859210D1*
X7915787D2*
X7965182D1*
X8435052D2*
X8483343D1*
X8540627D2*
X8966018D1*
X9019358D2*
X9825096D1*
X10144502D2*
X10505258D1*
X10769343D2*
X11132539D1*
X11272299D2*
X11435025D1*
X11588634D2*
X11945438D1*
X6961958Y6480460D2*
X7012072D1*
X7807778D2*
X7856262D1*
X7912579D2*
X7962619D1*
X8432616D2*
X8480779D1*
X8537390D2*
X8963433D1*
X9016743D2*
X9821037D1*
X10141939D2*
X10502643D1*
X10766779D2*
X11130098D1*
X11274784D2*
X11427003D1*
X11585392D2*
X11942823D1*
X6959373Y6472840D2*
X7009007D1*
X7805163D2*
X7853632D1*
X7909870D2*
X7960178D1*
X8430002D2*
X8478338D1*
X8534442D2*
X8961107D1*
X9014179D2*
X9816498D1*
X10139498D2*
X10500079D1*
X10764338D2*
X11127483D1*
X11277642D2*
X11418360D1*
X11582443D2*
X11940259D1*
X6957047Y6465220D2*
X7005799D1*
X7802599D2*
X7850935D1*
X7907943D2*
X7957563D1*
X8427439D2*
X8475723D1*
X8531812D2*
X8959369D1*
X9011738D2*
X9811589D1*
X10136883D2*
X10497638D1*
X10761723D2*
X11124919D1*
X11280941D2*
X11408896D1*
X11579812D2*
X11937818D1*
X6955309Y6457600D2*
X7003090D1*
X7800158D2*
X7848337D1*
X7906100D2*
X7954999D1*
X8424998D2*
X8473159D1*
X8529115D2*
X8957608D1*
X9009123D2*
X9806924D1*
X10134319D2*
X10495023D1*
X10759159D2*
X11122478D1*
X11284504D2*
X11399316D1*
X11577144D2*
X11935203D1*
X6953548Y6449980D2*
X7001163D1*
X7797543D2*
X7845885D1*
X7903631D2*
X7952558D1*
X8422383D2*
X8470718D1*
X8526517D2*
X8955172D1*
X9006559D2*
X9802640D1*
X10131878D2*
X10492459D1*
X10756718D2*
X11119863D1*
X11288219D2*
X11390365D1*
X11574785D2*
X11932639D1*
X6951112Y6442360D2*
X6999349D1*
X7794979D2*
X7843295D1*
X7900554D2*
X7949943D1*
X8419819D2*
X8468103D1*
X8524065D2*
X8952107D1*
X9004118D2*
X9798597D1*
X10129263D2*
X10490018D1*
X10754133D2*
X11117299D1*
X11291984D2*
X11382007D1*
X11573036D2*
X11930198D1*
X6948047Y6434740D2*
X6997119D1*
X7792538D2*
X7840967D1*
X7897342D2*
X7947379D1*
X8417378D2*
X8465539D1*
X8521445D2*
X8948870D1*
X9001533D2*
X9794697D1*
X10126699D2*
X10487403D1*
X10751807D2*
X11114858D1*
X11295756D2*
X11373796D1*
X11571270D2*
X11927583D1*
X6944839Y6427120D2*
X6994745D1*
X7789923D2*
X7839230D1*
X7894631D2*
X7944938D1*
X8414763D2*
X8463098D1*
X8518879D2*
X8945922D1*
X8999207D2*
X9790843D1*
X10124258D2*
X10484839D1*
X10750069D2*
X11112243D1*
X11299317D2*
X11365071D1*
X11568833D2*
X11925019D1*
X6942130Y6419500D2*
X6992387D1*
X7787359D2*
X7837468D1*
X7892703D2*
X7942323D1*
X8412199D2*
X8460483D1*
X8516438D2*
X8943292D1*
X8997469D2*
X9786996D1*
X10121643D2*
X10482398D1*
X10748308D2*
X11109679D1*
X11302398D2*
X11355575D1*
X11565767D2*
X11922578D1*
X6940203Y6411880D2*
X6989804D1*
X7784918D2*
X7835032D1*
X7890860D2*
X7939759D1*
X8409758D2*
X8457919D1*
X8513823D2*
X8940595D1*
X8995708D2*
X9782937D1*
X10119079D2*
X10479783D1*
X10745872D2*
X11107238D1*
X11305085D2*
X11345982D1*
X11562560D2*
X11919963D1*
X6938360Y6404260D2*
X6987252D1*
X7782333D2*
X7831967D1*
X7888391D2*
X7937318D1*
X8407143D2*
X8455478D1*
X8511259D2*
X8937997D1*
X8993272D2*
X9778398D1*
X10116638D2*
X10477219D1*
X10742807D2*
X11104623D1*
X11307837D2*
X11337021D1*
X11559850D2*
X11917399D1*
X6935891Y6396640D2*
X6984816D1*
X7780007D2*
X7828730D1*
X7885314D2*
X7934703D1*
X8404579D2*
X8452863D1*
X8508818D2*
X8935545D1*
X8990207D2*
X9773489D1*
X10114023D2*
X10474778D1*
X10739599D2*
X11102059D1*
X11310502D2*
X11328652D1*
X11557923D2*
X11914958D1*
X6932814Y6389020D2*
X6982202D1*
X7778269D2*
X7825782D1*
X7882102D2*
X7932139D1*
X8402138D2*
X8450299D1*
X8506203D2*
X8932955D1*
X8986999D2*
X9768824D1*
X10111459D2*
X10472163D1*
X10736890D2*
X11099618D1*
X11312920D2*
X11320540D1*
X11556080D2*
X11912343D1*
X6929602Y6381400D2*
X6979639D1*
X7776508D2*
X7823152D1*
X7879391D2*
X7929698D1*
X8399523D2*
X8447858D1*
X8503639D2*
X8930627D1*
X8984290D2*
X9764540D1*
X10109018D2*
X10469599D1*
X10734963D2*
X11097003D1*
X11553611D2*
X11909779D1*
X6926891Y6373780D2*
X6977198D1*
X7774072D2*
X7820484D1*
X7877463D2*
X7927083D1*
X8396959D2*
X8445273D1*
X8501198D2*
X8928890D1*
X8982363D2*
X9760497D1*
X10106403D2*
X10467158D1*
X10733120D2*
X11094439D1*
X11550534D2*
X11907338D1*
X6924963Y6366160D2*
X6974583D1*
X7771007D2*
X7818125D1*
X7875649D2*
X7924519D1*
X8394518D2*
X8442947D1*
X8498613D2*
X8927128D1*
X8980520D2*
X9756567D1*
X10103839D2*
X10464543D1*
X10730651D2*
X11091998D1*
X11547292D2*
X11904723D1*
X6923120Y6358540D2*
X6972019D1*
X7767799D2*
X7816376D1*
X7873419D2*
X7922078D1*
X8391903D2*
X8441209D1*
X8496287D2*
X8924692D1*
X8978051D2*
X9752475D1*
X10101398D2*
X10461979D1*
X10727574D2*
X11089383D1*
X11544343D2*
X11902159D1*
X6920651Y6350920D2*
X6969578D1*
X7765090D2*
X7814640D1*
X7871045D2*
X7919463D1*
X8389339D2*
X8439448D1*
X8494549D2*
X8921627D1*
X8974974D2*
X9747925D1*
X10098783D2*
X10459538D1*
X10724362D2*
X11086819D1*
X11541712D2*
X11899718D1*
X6917574Y6343300D2*
X6966963D1*
X7763163D2*
X7812441D1*
X7868687D2*
X7916899D1*
X8386898D2*
X8437012D1*
X8492788D2*
X8918390D1*
X8971762D2*
X9743012D1*
X10096219D2*
X10456923D1*
X10721651D2*
X11084378D1*
X11539044D2*
X11897133D1*
X6914362Y6335680D2*
X6964399D1*
X7761320D2*
X7810079D1*
X7866104D2*
X7914458D1*
X8384283D2*
X8433947D1*
X8490352D2*
X8915442D1*
X8969051D2*
X9738344D1*
X10093778D2*
X10454359D1*
X10719723D2*
X11081763D1*
X11536685D2*
X11894807D1*
X6911651Y6328060D2*
X6961958D1*
X7758851D2*
X7807725D1*
X7863552D2*
X7911843D1*
X8381719D2*
X8430739D1*
X8487287D2*
X8912812D1*
X8967123D2*
X9734060D1*
X10091193D2*
X10451918D1*
X10717909D2*
X11079199D1*
X11534936D2*
X11893069D1*
X6909723Y6320440D2*
X6959343D1*
X7755774D2*
X7805144D1*
X7861116D2*
X7909279D1*
X8379278D2*
X8428030D1*
X8484079D2*
X8910144D1*
X8965309D2*
X9730017D1*
X10088867D2*
X10449333D1*
X10715679D2*
X11076758D1*
X11533170D2*
X11891308D1*
X6907909Y6312820D2*
X6956779D1*
X7752562D2*
X7802592D1*
X7858502D2*
X7906838D1*
X8376663D2*
X8426103D1*
X8481370D2*
X8907785D1*
X8963079D2*
X9726117D1*
X10087129D2*
X10447007D1*
X10713305D2*
X11074173D1*
X11530733D2*
X11888872D1*
X6905679Y6305200D2*
X6954338D1*
X7749851D2*
X7800126D1*
X7855939D2*
X7904223D1*
X8374099D2*
X8424260D1*
X8479443D2*
X8906036D1*
X8960705D2*
X9722263D1*
X10085368D2*
X10445269D1*
X10710947D2*
X11071847D1*
X11527667D2*
X11885807D1*
X6903305Y6297580D2*
X6951723D1*
X7747923D2*
X7797274D1*
X7853498D2*
X7901659D1*
X8371658D2*
X8421791D1*
X8477600D2*
X8904300D1*
X8958347D2*
X9718416D1*
X10082932D2*
X10443508D1*
X10708364D2*
X11070109D1*
X11524430D2*
X11882599D1*
X6900947Y6289960D2*
X6949159D1*
X7746080D2*
X7794007D1*
X7850883D2*
X7899218D1*
X8369043D2*
X8418714D1*
X8475131D2*
X8902101D1*
X8955764D2*
X9714357D1*
X10079867D2*
X10441072D1*
X10705812D2*
X11068348D1*
X11521482D2*
X11879890D1*
X6898364Y6282340D2*
X6946718D1*
X7743611D2*
X7790713D1*
X7848319D2*
X7896603D1*
X8366479D2*
X8415502D1*
X8472054D2*
X8899739D1*
X8953212D2*
X9709818D1*
X10076659D2*
X10438007D1*
X10703376D2*
X11065912D1*
X11518852D2*
X11877963D1*
X6895812Y6274720D2*
X6944103D1*
X7740534D2*
X7787969D1*
X7845878D2*
X7894039D1*
X8364038D2*
X8412791D1*
X8468842D2*
X8897385D1*
X8950776D2*
X9704909D1*
X10073950D2*
X10434770D1*
X10700762D2*
X11062847D1*
X11516155D2*
X11876120D1*
X6893376Y6267100D2*
X6941539D1*
X7737322D2*
X7786030D1*
X7843263D2*
X7891598D1*
X8361423D2*
X8410863D1*
X8466131D2*
X8894804D1*
X8948162D2*
X9700244D1*
X10072023D2*
X10431822D1*
X10698199D2*
X11059639D1*
X11513557D2*
X11873651D1*
X6890762Y6259480D2*
X6939098D1*
X7734611D2*
X7784212D1*
X7840699D2*
X7888983D1*
X8358859D2*
X8409020D1*
X8464203D2*
X8892252D1*
X8945599D2*
X9695960D1*
X10070180D2*
X10429192D1*
X10695758D2*
X11056930D1*
X11511105D2*
X11870574D1*
X6888199Y6251860D2*
X6936483D1*
X7732683D2*
X7781980D1*
X7838258D2*
X7886419D1*
X8356418D2*
X8406551D1*
X8462360D2*
X8889816D1*
X8943158D2*
X9691917D1*
X10067711D2*
X10426495D1*
X10693143D2*
X11055003D1*
X11508485D2*
X11867362D1*
X6885758Y6244240D2*
X6933919D1*
X7730869D2*
X7779605D1*
X7835643D2*
X7883978D1*
X8353803D2*
X8403474D1*
X8459891D2*
X8887202D1*
X8940543D2*
X9688017D1*
X10064634D2*
X10423897D1*
X10690579D2*
X11053189D1*
X11505919D2*
X11864651D1*
X6883143Y6236620D2*
X6931478D1*
X7728639D2*
X7777247D1*
X7833079D2*
X7881363D1*
X8351239D2*
X8400262D1*
X8456814D2*
X8884639D1*
X8937979D2*
X9684163D1*
X10061422D2*
X10421445D1*
X10688138D2*
X11050959D1*
X11503478D2*
X11862723D1*
X6880579Y6229000D2*
X6928863D1*
X7726265D2*
X7774664D1*
X7830638D2*
X7878799D1*
X8348798D2*
X8397551D1*
X8453602D2*
X8882198D1*
X8935538D2*
X9680316D1*
X10058711D2*
X10418855D1*
X10685523D2*
X11048585D1*
X11500863D2*
X11860909D1*
X6878138Y6221380D2*
X6926299D1*
X7723907D2*
X7772112D1*
X7828023D2*
X7876358D1*
X8346183D2*
X8395623D1*
X8450891D2*
X8879583D1*
X8932923D2*
X9676257D1*
X10056783D2*
X10416527D1*
X10682959D2*
X11046227D1*
X11498299D2*
X11858679D1*
X6875523Y6213760D2*
X6923858D1*
X7721324D2*
X7769676D1*
X7825459D2*
X7873743D1*
X8343619D2*
X8393809D1*
X8448963D2*
X8877019D1*
X8930359D2*
X9671718D1*
X10054940D2*
X10414790D1*
X10680518D2*
X11043644D1*
X11495858D2*
X11856305D1*
X6872959Y6206140D2*
X6921243D1*
X7718772D2*
X7767062D1*
X7823018D2*
X7871179D1*
X8341178D2*
X8391579D1*
X8447149D2*
X8874578D1*
X8927918D2*
X9666809D1*
X10052471D2*
X10413028D1*
X10677903D2*
X11041092D1*
X11493243D2*
X11853947D1*
X6870518Y6198520D2*
X6918679D1*
X7716336D2*
X7764499D1*
X7820403D2*
X7868738D1*
X8338593D2*
X8389205D1*
X8444919D2*
X8871963D1*
X8925303D2*
X9662144D1*
X10049394D2*
X10410592D1*
X10675339D2*
X11038656D1*
X11490679D2*
X11851364D1*
X6867903Y6190900D2*
X6916238D1*
X7713722D2*
X7762058D1*
X7817839D2*
X7866123D1*
X8336267D2*
X8386847D1*
X8442545D2*
X8869399D1*
X8922739D2*
X9657860D1*
X10046182D2*
X10407527D1*
X10672898D2*
X11036042D1*
X11488238D2*
X11848812D1*
X6865339Y6183280D2*
X6913623D1*
X7711159D2*
X7759443D1*
X7815398D2*
X7863559D1*
X8334529D2*
X8384264D1*
X8440187D2*
X8866958D1*
X8920298D2*
X9653817D1*
X10043471D2*
X10404290D1*
X10670283D2*
X11033479D1*
X11485653D2*
X11846376D1*
X6862898Y6175660D2*
X6911059D1*
X7708718D2*
X7756879D1*
X7812783D2*
X7861118D1*
X8332768D2*
X8381712D1*
X8437604D2*
X8864343D1*
X8917683D2*
X9649887D1*
X10041543D2*
X10401342D1*
X10667719D2*
X11031038D1*
X11483327D2*
X11843762D1*
X6860283Y6168040D2*
X6908618D1*
X7706103D2*
X7754438D1*
X7810219D2*
X7858533D1*
X8330332D2*
X8379276D1*
X8435052D2*
X8861779D1*
X8915119D2*
X9645795D1*
X10039729D2*
X10398712D1*
X10665278D2*
X11028423D1*
X11481589D2*
X11841199D1*
X6857719Y6160420D2*
X6906003D1*
X7703539D2*
X7751823D1*
X7807778D2*
X7856207D1*
X8327267D2*
X8376662D1*
X8432616D2*
X8859338D1*
X8912678D2*
X9641245D1*
X10037499D2*
X10396044D1*
X10662663D2*
X11025859D1*
X11479828D2*
X11838758D1*
X6855278Y6152800D2*
X6903439D1*
X7701098D2*
X7749259D1*
X7805163D2*
X7854469D1*
X8324059D2*
X8374099D1*
X8430002D2*
X8856723D1*
X8910063D2*
X9636332D1*
X10035125D2*
X10393685D1*
X10660099D2*
X11023418D1*
X11477392D2*
X11836143D1*
X6852663Y6145180D2*
X6900998D1*
X7698483D2*
X7746818D1*
X7802599D2*
X7852708D1*
X8321350D2*
X8371658D1*
X8427439D2*
X8854159D1*
X8907499D2*
X9631664D1*
X10032767D2*
X10391936D1*
X10657658D2*
X11020803D1*
X11474327D2*
X11833579D1*
X6850099Y6137560D2*
X6898383D1*
X7695919D2*
X7744203D1*
X7800158D2*
X7850272D1*
X8319423D2*
X8369043D1*
X8424998D2*
X8851718D1*
X8905058D2*
X9627380D1*
X10030184D2*
X10390170D1*
X10655043D2*
X11018239D1*
X11471090D2*
X11831138D1*
X6847658Y6129940D2*
X6895819D1*
X7693478D2*
X7741639D1*
X7797543D2*
X7847207D1*
X8317580D2*
X8366479D1*
X8422383D2*
X8849103D1*
X8902443D2*
X9623337D1*
X10027632D2*
X10387733D1*
X10652479D2*
X11015798D1*
X11468142D2*
X11828523D1*
X6845043Y6122320D2*
X6893378D1*
X7690863D2*
X7739198D1*
X7794979D2*
X7843970D1*
X8315111D2*
X8364038D1*
X8419819D2*
X8846539D1*
X8899879D2*
X9619437D1*
X10025196D2*
X10384667D1*
X10650038D2*
X11013183D1*
X11465512D2*
X11825959D1*
X6842479Y6114700D2*
X6890763D1*
X7688299D2*
X7736583D1*
X7792538D2*
X7841022D1*
X8312034D2*
X8361423D1*
X8417378D2*
X8844098D1*
X8897438D2*
X9615583D1*
X10022582D2*
X10381460D1*
X10647423D2*
X11010619D1*
X11462815D2*
X11823518D1*
X6840038Y6107080D2*
X6888199D1*
X7685858D2*
X7734019D1*
X7789923D2*
X7838392D1*
X8308822D2*
X8358859D1*
X8414763D2*
X8841483D1*
X8894823D2*
X9611736D1*
X10020019D2*
X10378750D1*
X10644859D2*
X11008178D1*
X11460217D2*
X11820903D1*
X6837423Y6099460D2*
X6885758D1*
X7683243D2*
X7731578D1*
X7787359D2*
X7835695D1*
X8306111D2*
X8356418D1*
X8412199D2*
X8838919D1*
X8892259D2*
X9607677D1*
X10017578D2*
X10376823D1*
X10642418D2*
X11005563D1*
X11457765D2*
X11818339D1*
X6834859Y6091840D2*
X6883143D1*
X7680679D2*
X7728963D1*
X7784918D2*
X7833097D1*
X8304183D2*
X8353803D1*
X8409758D2*
X8836478D1*
X8889818D2*
X9603138D1*
X10014963D2*
X10374980D1*
X10639803D2*
X11002999D1*
X11455145D2*
X11815898D1*
X6832418Y6084220D2*
X6880579D1*
X7678238D2*
X7726399D1*
X7782303D2*
X7830645D1*
X8302340D2*
X8351239D1*
X8407143D2*
X8833863D1*
X8887203D2*
X9598229D1*
X10012399D2*
X10372511D1*
X10637239D2*
X11000558D1*
X11452579D2*
X11813283D1*
X6829803Y6076600D2*
X6878138D1*
X7675623D2*
X7723958D1*
X7779739D2*
X7828055D1*
X8299871D2*
X8348798D1*
X8404579D2*
X8831299D1*
X8884639D2*
X9593564D1*
X10009958D2*
X10369434D1*
X10634798D2*
X10997943D1*
X11450138D2*
X11810719D1*
X6827239Y6068980D2*
X6875523D1*
X7673059D2*
X7721343D1*
X7777298D2*
X7825727D1*
X8296794D2*
X8346183D1*
X8402138D2*
X8828858D1*
X8882198D2*
X9589280D1*
X10007343D2*
X10366192D1*
X10632213D2*
X10995379D1*
X11447523D2*
X11808278D1*
X6824798Y6061360D2*
X6872959D1*
X7670618D2*
X7718779D1*
X7774683D2*
X7823990D1*
X8293582D2*
X8343619D1*
X8399523D2*
X8826243D1*
X8879583D2*
X9585237D1*
X10004779D2*
X10363243D1*
X10629887D2*
X10992938D1*
X11444959D2*
X11805663D1*
X6822183Y6053740D2*
X6870518D1*
X7668003D2*
X7716338D1*
X7772119D2*
X7822258D1*
X8290871D2*
X8341178D1*
X8396959D2*
X8823679D1*
X8877019D2*
X9581337D1*
X10002338D2*
X10360612D1*
X10628149D2*
X10990323D1*
X11442518D2*
X11803099D1*
X6819619Y6046120D2*
X6867903D1*
X7665439D2*
X7713723D1*
X7769678D2*
X7820060D1*
X8288943D2*
X8338563D1*
X8394518D2*
X8821238D1*
X8874578D2*
X9577483D1*
X9999723D2*
X10357915D1*
X10626388D2*
X10987759D1*
X11439903D2*
X11800658D1*
X6817178Y6038500D2*
X6865339D1*
X7662998D2*
X7711159D1*
X7767063D2*
X7817698D1*
X8287129D2*
X8335999D1*
X8391903D2*
X8818623D1*
X8871963D2*
X9573636D1*
X9997159D2*
X10355318D1*
X10623952D2*
X10985318D1*
X11437339D2*
X11798043D1*
X6814563Y6030880D2*
X6862898D1*
X7660383D2*
X7708718D1*
X7764499D2*
X7815344D1*
X8284899D2*
X8333558D1*
X8389339D2*
X8816059D1*
X8869399D2*
X9569577D1*
X9994718D2*
X10352865D1*
X10620887D2*
X10982703D1*
X11434898D2*
X11795479D1*
X6811999Y6023260D2*
X6860283D1*
X7657819D2*
X7706103D1*
X7762058D2*
X7812764D1*
X8282525D2*
X8330943D1*
X8386898D2*
X8813618D1*
X8866958D2*
X9565038D1*
X9992103D2*
X10350275D1*
X10617679D2*
X10980139D1*
X11432283D2*
X11793038D1*
X6809558Y6015640D2*
X6857719D1*
X7655378D2*
X7703539D1*
X7759443D2*
X7810212D1*
X8280167D2*
X8328379D1*
X8384283D2*
X8811003D1*
X8864373D2*
X9560129D1*
X9989539D2*
X10347947D1*
X10614970D2*
X10977698D1*
X11429719D2*
X11790423D1*
X6806943Y6008020D2*
X6855278D1*
X7652763D2*
X7701098D1*
X7756879D2*
X7807776D1*
X8277584D2*
X8325938D1*
X8381719D2*
X8808439D1*
X8862047D2*
X9555464D1*
X9987098D2*
X10346210D1*
X10613043D2*
X10975083D1*
X11427278D2*
X11787859D1*
X6804379Y6000400D2*
X6852693D1*
X7650199D2*
X7698483D1*
X7754438D2*
X7805162D1*
X8275032D2*
X8323323D1*
X8379278D2*
X8805998D1*
X8860309D2*
X9551180D1*
X9984483D2*
X10344478D1*
X10611229D2*
X10972519D1*
X11424663D2*
X11785418D1*
X6801938Y5992780D2*
X6850367D1*
X7647758D2*
X7695919D1*
X7751823D2*
X7802599D1*
X8272596D2*
X8320759D1*
X8376663D2*
X8803413D1*
X8858578D2*
X9547137D1*
X9981919D2*
X10342280D1*
X10608999D2*
X10970078D1*
X11422099D2*
X11782803D1*
X6799323Y5985160D2*
X6848629D1*
X7645143D2*
X7693478D1*
X7749259D2*
X7800158D1*
X8269982D2*
X8318318D1*
X8374099D2*
X8801087D1*
X8856380D2*
X9543207D1*
X9979478D2*
X10339918D1*
X10606625D2*
X10967493D1*
X11419658D2*
X11780239D1*
X6796759Y5977540D2*
X6846868D1*
X7642579D2*
X7690863D1*
X7746818D2*
X7797573D1*
X8267389D2*
X8315703D1*
X8371658D2*
X8799349D1*
X8854018D2*
X9539115D1*
X9976863D2*
X10337535D1*
X10604267D2*
X10965167D1*
X11417043D2*
X11777798D1*
X6794318Y5969920D2*
X6844403D1*
X7640138D2*
X7688299D1*
X7744203D2*
X7795276D1*
X8264652D2*
X8313139D1*
X8369043D2*
X8797588D1*
X8851664D2*
X9534565D1*
X9974299D2*
X10334716D1*
X10601684D2*
X10963429D1*
X11414479D2*
X11775183D1*
X6791703Y5962300D2*
X6841041D1*
X7637551D2*
X7685858D1*
X7741639D2*
X7793801D1*
X8260824D2*
X8310698D1*
X8366479D2*
X8795152D1*
X8849084D2*
X9529652D1*
X9971858D2*
X10331461D1*
X10599132D2*
X10961668D1*
X11412038D2*
X11772619D1*
X6789139Y5954680D2*
X6836586D1*
X7635235D2*
X7683243D1*
X7739198D2*
X7792999D1*
X8255595D2*
X8308083D1*
X8364038D2*
X8792087D1*
X8846532D2*
X9524984D1*
X9969243D2*
X10328171D1*
X10596696D2*
X10959232D1*
X11409423D2*
X11770178D1*
X6786698Y5947060D2*
X6830947D1*
X7633646D2*
X7680679D1*
X7736583D2*
X8305519D1*
X8361423D2*
X8788850D1*
X8844096D2*
X9520700D1*
X9966679D2*
X10325429D1*
X10594082D2*
X10956167D1*
X11406859D2*
X11767563D1*
X6784113Y5939440D2*
X7678238D1*
X7734019D2*
X8303078D1*
X8358859D2*
X8785902D1*
X8841482D2*
X9516657D1*
X9964238D2*
X10323490D1*
X10591519D2*
X10952959D1*
X11404418D2*
X11764999D1*
X6781816Y5931820D2*
X7675653D1*
X7731578D2*
X8300463D1*
X8356418D2*
X8783272D1*
X8838919D2*
X9512757D1*
X9961623D2*
X10321642D1*
X10589078D2*
X10950250D1*
X11401803D2*
X11762558D1*
X6780347Y5924200D2*
X7673356D1*
X7728991D2*
X8297876D1*
X8353831D2*
X8780575D1*
X8836472D2*
X9508927D1*
X9959059D2*
X10319172D1*
X10586493D2*
X10948323D1*
X11399239D2*
X11759943D1*
X6779585Y5916580D2*
X7671881D1*
X7726675D2*
X8295223D1*
X8351515D2*
X8777955D1*
X8833821D2*
X9505307D1*
X9956613D2*
X10316088D1*
X10584196D2*
X10946504D1*
X11396793D2*
X11757356D1*
X6779229Y5908960D2*
X7671079D1*
X7725086D2*
X8291817D1*
X8349926D2*
X8775290D1*
X8831197D2*
X9502128D1*
X9953961D2*
X10312806D1*
X10582721D2*
X10944239D1*
X11394141D2*
X11754703D1*
X6779020Y5901340D2*
X7670560D1*
X7723900D2*
X8287780D1*
X8348740D2*
X8771879D1*
X8828800D2*
X9499360D1*
X9951337D2*
X10309770D1*
X10581919D2*
X10941813D1*
X11391517D2*
X11751297D1*
X8638300Y5893720D2*
D3*
X8691640D2*
X8767840D1*
X9948940D2*
X10307080D1*
X10581400D2*
X10939540D1*
X11389120D2*
X11747260D1*
X9171700Y5840380D2*
X9209800D1*
X11076700D2*
X11114800D1*
X8859280Y5832760D2*
X9011680D1*
X9149745D2*
X9229120D1*
X9423160D2*
X9522220D1*
X9689860D2*
X9750820D1*
X9887980D2*
X9956560D1*
X10063240D2*
X10108960D1*
X10215640D2*
X10268980D1*
X10375660D2*
X10421380D1*
X10665220D2*
X10710940D1*
X11057380D2*
X11135257D1*
X11328160D2*
X11381500D1*
X11541520D2*
X11693920D1*
X8855763Y5825140D2*
X9010502D1*
X9131402D2*
X9244927D1*
X9419643D2*
X9536845D1*
X9689570D2*
X9751110D1*
X9884168D2*
X9953043D1*
X10059723D2*
X10107782D1*
X10215610D2*
X10267802D1*
X10374482D2*
X10421350D1*
X10661408D2*
X10712118D1*
X11041573D2*
X11150407D1*
X11325265D2*
X11381500D1*
X11541490D2*
X11693890D1*
X8853574Y5817520D2*
X9008613D1*
X9117072D2*
X9256871D1*
X9417424D2*
X9548574D1*
X9688593D2*
X9752087D1*
X9879743D2*
X9950854D1*
X10057504D2*
X10105893D1*
X10215342D2*
X10265913D1*
X10372593D2*
X10421082D1*
X10656983D2*
X10714007D1*
X11029629D2*
X11161336D1*
X11321990D2*
X11381500D1*
X11541222D2*
X11693622D1*
X8852437Y5809900D2*
X9006640D1*
X9106166D2*
X9265444D1*
X9416049D2*
X9557408D1*
X9686767D2*
X9753913D1*
X9875324D2*
X9949717D1*
X10056129D2*
X10103920D1*
X10214371D2*
X10263911D1*
X10370591D2*
X10420111D1*
X10652564D2*
X10715980D1*
X11021056D2*
X11164644D1*
X11318452D2*
X11381500D1*
X11540251D2*
X11692646D1*
X8851678Y5802280D2*
X9005300D1*
X9097876D2*
X9272118D1*
X9414587D2*
X9563888D1*
X9684813D2*
X9755867D1*
X9871150D2*
X9948958D1*
X10054667D2*
X10102556D1*
X10212546D2*
X10262308D1*
X10368988D2*
X10418286D1*
X10648390D2*
X10717314D1*
X11014382D2*
X11163921D1*
X11314750D2*
X11381500D1*
X11538426D2*
X11690756D1*
X8850508Y5794660D2*
X9004552D1*
X9091423D2*
X9277720D1*
X9412563D2*
X9568683D1*
X9683454D2*
X9757196D1*
X9867151D2*
X9947788D1*
X10052643D2*
X10101580D1*
X10210593D2*
X10260629D1*
X10367309D2*
X10416333D1*
X10644391D2*
X10718022D1*
X11008810D2*
X11162317D1*
X11310962D2*
X11381530D1*
X11536473D2*
X11688488D1*
X8848607Y5787040D2*
X9004060D1*
X9085757D2*
X9165578D1*
X9208012D2*
X9282022D1*
X9410534D2*
X9460082D1*
X9488715D2*
X9572031D1*
X9682479D2*
X9757903D1*
X9863238D2*
X9945887D1*
X10050584D2*
X10100285D1*
X10209234D2*
X10258480D1*
X10365160D2*
X10414974D1*
X10640508D2*
X10718346D1*
X11004775D2*
X11078488D1*
X11113399D2*
X11160087D1*
X11306925D2*
X11381798D1*
X11535114D2*
X11686300D1*
X8846597Y5779420D2*
X8898878D1*
X9080368D2*
X9153501D1*
X9219082D2*
X9285322D1*
X9409148D2*
X9458193D1*
X9504950D2*
X9573951D1*
X9681185D2*
X9758256D1*
X9859152D2*
X9943877D1*
X10048960D2*
X10098326D1*
X10208259D2*
X10256393D1*
X10363073D2*
X10413999D1*
X10636660D2*
X10718510D1*
X11002446D2*
X11067418D1*
X11133585D2*
X11156850D1*
X11302394D2*
X11382769D1*
X11534139D2*
X11579590D1*
X8844991Y5771800D2*
X8894421D1*
X9075512D2*
X9143359D1*
X9227160D2*
X9288286D1*
X9408164D2*
X9456191D1*
X9517990D2*
X9574890D1*
X9679226D2*
X9758658D1*
X9854604D2*
X9942271D1*
X10047273D2*
X10096321D1*
X10206965D2*
X10254982D1*
X10361662D2*
X10412705D1*
X10632815D2*
X10718829D1*
X11001308D2*
X11059400D1*
X11152900D2*
D3*
X11297488D2*
X11384594D1*
X11532845D2*
X11579322D1*
X8843310Y5764180D2*
X8891839D1*
X9071158D2*
X9134769D1*
X9233063D2*
X9290734D1*
X9406866D2*
X9454588D1*
X9524573D2*
X9575300D1*
X9677221D2*
X9759680D1*
X9849691D2*
X9940590D1*
X10045121D2*
X10094944D1*
X10205006D2*
X10253989D1*
X10360669D2*
X10410746D1*
X10628756D2*
X10719819D1*
X11000813D2*
X11053210D1*
X11292823D2*
X11386547D1*
X11530886D2*
X11578351D1*
X8841160Y5756560D2*
X8890334D1*
X9067119D2*
X9127615D1*
X9237766D2*
X9292261D1*
X9404907D2*
X9452909D1*
X9526915D2*
X9575464D1*
X9675844D2*
X9761524D1*
X9845024D2*
X9938440D1*
X10043033D2*
X10093963D1*
X10203001D2*
X10252688D1*
X10359368D2*
X10408711D1*
X10624218D2*
X10721650D1*
X11000615D2*
X11050311D1*
X11288540D2*
X11387876D1*
X11528851D2*
X11576526D1*
X8839073Y5748940D2*
X8888828D1*
X9063449D2*
X9121875D1*
X9241670D2*
X9293043D1*
X9402871D2*
X9450760D1*
X9525619D2*
X9575497D1*
X9674863D2*
X9763484D1*
X9840740D2*
X9936353D1*
X10041622D2*
X10092666D1*
X10201624D2*
X10250727D1*
X10357407D2*
X10407096D1*
X10619309D2*
X10723606D1*
X11000540D2*
X11050669D1*
X11284497D2*
X11388583D1*
X11527236D2*
X11574573D1*
X8837662Y5741320D2*
X8886789D1*
X9060325D2*
X9117129D1*
X9244624D2*
X9293393D1*
X9401256D2*
X9448673D1*
X9523084D2*
X9575251D1*
X9673566D2*
X9764815D1*
X9836697D2*
X9934942D1*
X10040629D2*
X10090707D1*
X10200643D2*
X10248721D1*
X10355401D2*
X10405411D1*
X10614644D2*
X10664042D1*
X10680460D2*
X10724936D1*
X11000544D2*
X11054622D1*
X11280597D2*
X11388936D1*
X11525551D2*
X11573243D1*
X8836669Y5733700D2*
X8884756D1*
X9057629D2*
X9112932D1*
X9246385D2*
X9293535D1*
X9399571D2*
X9447292D1*
X9519274D2*
X9574258D1*
X9671607D2*
X9765523D1*
X9832797D2*
X9933949D1*
X10039328D2*
X10088701D1*
X10199346D2*
X10247344D1*
X10354024D2*
X10403261D1*
X10610360D2*
X10662123D1*
X10680460D2*
X10725643D1*
X11000832D2*
X11060918D1*
X11276743D2*
X11326953D1*
X11343400D2*
X11389338D1*
X11523401D2*
X11572535D1*
X8835368Y5726080D2*
X8883398D1*
X9054937D2*
X9109232D1*
X9247234D2*
X9293590D1*
X9397421D2*
X9446565D1*
X9514294D2*
X9572167D1*
X9669571D2*
X9765846D1*
X9828943D2*
X9932648D1*
X10037367D2*
X10087324D1*
X10197387D2*
X10246363D1*
X10353043D2*
X10401173D1*
X10606317D2*
X10659853D1*
X10680460D2*
X10725966D1*
X11002098D2*
X11069739D1*
X11272925D2*
X11324796D1*
X11343430D2*
X11390360D1*
X11521313D2*
X11572199D1*
X8833407Y5718460D2*
X8882680D1*
X9052599D2*
X9106325D1*
X9247354D2*
X9293610D1*
X9395333D2*
X9446222D1*
X9503870D2*
X9569214D1*
X9667956D2*
X9765980D1*
X9825125D2*
X9930687D1*
X10035361D2*
X10086343D1*
X10195381D2*
X10245066D1*
X10351746D2*
X10399762D1*
X10602417D2*
X10657279D1*
X10680460D2*
X10726130D1*
X11005190D2*
X11080510D1*
X11269104D2*
X11321822D1*
X11343698D2*
X11392204D1*
X11519902D2*
X11663440D1*
X8831372Y5710840D2*
X8882340D1*
X9051115D2*
X9104323D1*
X9246539D2*
X9293617D1*
X9393922D2*
X9446020D1*
X9491740D2*
X9565732D1*
X9666271D2*
X9766061D1*
X9821304D2*
X9928681D1*
X10033984D2*
X10085046D1*
X10194004D2*
X10243107D1*
X10349787D2*
X10398769D1*
X10598563D2*
X10653768D1*
X10680460D2*
X10726449D1*
X11010238D2*
X11092192D1*
X11265299D2*
X11318371D1*
X11344674D2*
X11394164D1*
X11518909D2*
X11663440D1*
X8829756Y5703220D2*
X8973580D1*
X9050349D2*
X9102483D1*
X9244774D2*
X9293619D1*
X9392929D2*
X9561536D1*
X9664121D2*
X9712430D1*
X9727960D2*
X9766348D1*
X9817499D2*
X9863913D1*
X9879182D2*
X9927304D1*
X10033003D2*
X10083087D1*
X10193023D2*
X10241101D1*
X10347781D2*
X10397468D1*
X10594745D2*
X10649582D1*
X10680460D2*
X10727439D1*
X11016644D2*
X11103219D1*
X11261482D2*
X11314510D1*
X11346564D2*
X11395495D1*
X11517608D2*
X11663410D1*
X8828071Y5695600D2*
X8973550D1*
X9050005D2*
X9100273D1*
X9242812D2*
X9293590D1*
X9391628D2*
X9555789D1*
X9662033D2*
X9711453D1*
X9727960D2*
X9767325D1*
X9813682D2*
X9861756D1*
X9877293D2*
X9926323D1*
X10031706D2*
X10081051D1*
X10191726D2*
X10239724D1*
X10346404D2*
X10395507D1*
X10590924D2*
X10645731D1*
X10680460D2*
X10729270D1*
X11023995D2*
X11112677D1*
X11257648D2*
X11310124D1*
X11348832D2*
X11396203D1*
X11515647D2*
X11663120D1*
X8825921Y5687980D2*
X8973260D1*
X9049864D2*
X9098164D1*
X9241222D2*
X9293322D1*
X9389667D2*
X9547838D1*
X9660622D2*
X9709627D1*
X9727960D2*
X9769153D1*
X9809848D2*
X9858782D1*
X9875320D2*
X9925026D1*
X10029747D2*
X10079436D1*
X10189767D2*
X10238743D1*
X10345423D2*
X10393501D1*
X10587119D2*
X10642360D1*
X10680460D2*
X10731226D1*
X11032402D2*
X11120354D1*
X11253594D2*
X11305300D1*
X11351020D2*
X11396526D1*
X11513612D2*
X11661942D1*
X8823833Y5680360D2*
X8972082D1*
X9049810D2*
X9096776D1*
X9239547D2*
X9292351D1*
X9387632D2*
X9538489D1*
X9659629D2*
X9707643D1*
X9727960D2*
X9771107D1*
X9805794D2*
X9855354D1*
X9873956D2*
X9923067D1*
X10027741D2*
X10077751D1*
X10187731D2*
X10237446D1*
X10344126D2*
X10392124D1*
X10583302D2*
X10732556D1*
X11042035D2*
X11126349D1*
X11249057D2*
X11396690D1*
X11511996D2*
X11659337D1*
X8822422Y5672740D2*
X8969477D1*
X9049790D2*
X9096048D1*
X9237370D2*
X9290526D1*
X9386016D2*
X9529636D1*
X9658328D2*
X9706046D1*
X9727990D2*
X9772436D1*
X9801280D2*
X9851692D1*
X9872980D2*
X9921061D1*
X10026364D2*
X10075601D1*
X10186116D2*
X10235487D1*
X10342167D2*
X10391143D1*
X10579468D2*
X10733263D1*
X11052551D2*
X11131203D1*
X11244149D2*
X11397009D1*
X11510311D2*
X11655820D1*
X8821429Y5665120D2*
X8965960D1*
X9049783D2*
X9095717D1*
X9235015D2*
X9288543D1*
X9384331D2*
X9522207D1*
X9656367D2*
X9704368D1*
X9728258D2*
X9773145D1*
X9796555D2*
X9847946D1*
X9871685D2*
X9919684D1*
X10025383D2*
X10073513D1*
X10184431D2*
X10233481D1*
X10340161D2*
X10389846D1*
X10575414D2*
X10733586D1*
X11063285D2*
X11135443D1*
X11239483D2*
X11397999D1*
X11508161D2*
X11556730D1*
X8820128Y5657500D2*
X8866870D1*
X9049781D2*
X9095611D1*
X9232634D2*
X9286946D1*
X9382181D2*
X9520256D1*
X9654361D2*
X9702220D1*
X9729229D2*
X9773481D1*
X9792445D2*
X9844151D1*
X9869726D2*
X9918703D1*
X10024086D2*
X10072132D1*
X10182251D2*
X10232104D1*
X10338784D2*
X10387887D1*
X10570877D2*
X10733750D1*
X11073265D2*
X11139160D1*
X11235200D2*
X11399830D1*
X11506073D2*
X11556462D1*
X8818167Y5649880D2*
X8866602D1*
X9049780D2*
X9095827D1*
X9229786D2*
X9285238D1*
X9380093D2*
X9430490D1*
X9470058D2*
X9521173D1*
X9652984D2*
X9700133D1*
X9731054D2*
X9773680D1*
X9788920D2*
X9840325D1*
X9867691D2*
X9917406D1*
X10022127D2*
X10071407D1*
X10179895D2*
X10231123D1*
X10337803D2*
X10385881D1*
X10565969D2*
X10734069D1*
X11081267D2*
X11142043D1*
X11231157D2*
X11401786D1*
X11504692D2*
X11555491D1*
X8816132Y5642260D2*
X8865631D1*
X9049780D2*
X9096808D1*
X9226233D2*
X9282822D1*
X9378682D2*
X9429513D1*
X9471977D2*
X9522788D1*
X9652003D2*
X9698722D1*
X9733007D2*
X9836273D1*
X9866076D2*
X9915447D1*
X10020121D2*
X10071077D1*
X10177514D2*
X10229796D1*
X10336506D2*
X10384504D1*
X10561303D2*
X10735059D1*
X11087537D2*
X11143778D1*
X11227257D2*
X11403116D1*
X11503937D2*
X11553666D1*
X8814516Y5634640D2*
X8863806D1*
X9049810D2*
X9098925D1*
X9221675D2*
X9279734D1*
X9377689D2*
X9427687D1*
X9474217D2*
X9525271D1*
X9650706D2*
X9697729D1*
X9734336D2*
X9831737D1*
X9864391D2*
X9913441D1*
X10018803D2*
X10070971D1*
X10174666D2*
X10227569D1*
X10334547D2*
X10383523D1*
X10557020D2*
X10736890D1*
X11089516D2*
X11144618D1*
X11223403D2*
X11403823D1*
X11503339D2*
X11551683D1*
X8812831Y5627020D2*
X8861853D1*
X9050078D2*
X9102145D1*
X9215839D2*
X9276261D1*
X9376388D2*
X9425733D1*
X9476523D2*
X9528393D1*
X9648747D2*
X9696428D1*
X9735043D2*
X9826829D1*
X9862241D2*
X9912064D1*
X10018358D2*
X10071216D1*
X10171084D2*
X10224592D1*
X10332511D2*
X10382226D1*
X10552977D2*
X10613058D1*
X10689258D2*
X10738846D1*
X11090379D2*
X11144735D1*
X11219556D2*
X11276027D1*
X11358640D2*
X11404176D1*
X11502232D2*
X11550086D1*
X8810681Y5619400D2*
X8860494D1*
X9051049D2*
X9106566D1*
X9208830D2*
X9272581D1*
X9374427D2*
X9424374D1*
X9479086D2*
X9531664D1*
X9646741D2*
X9694467D1*
X9735366D2*
X9822163D1*
X9860153D2*
X9911083D1*
X10019004D2*
X10072464D1*
X10166235D2*
X10221390D1*
X10330896D2*
X10380267D1*
X10549077D2*
X10607357D1*
X10691147D2*
X10740176D1*
X11088019D2*
X11143890D1*
X11215497D2*
X11270564D1*
X11358640D2*
X11404578D1*
X11500355D2*
X11548408D1*
X8808593Y5611780D2*
X8859519D1*
X9052904D2*
X9112314D1*
X9200429D2*
X9268799D1*
X9372421D2*
X9423399D1*
X9481631D2*
X9534628D1*
X9645364D2*
X9692432D1*
X9735500D2*
X9817880D1*
X9858742D2*
X9909786D1*
X10020724D2*
X10075524D1*
X10159257D2*
X10218425D1*
X10329211D2*
X10378261D1*
X10545223D2*
X10601977D1*
X10693120D2*
X10740883D1*
X11083788D2*
X11141856D1*
X11210958D2*
X11265918D1*
X11358640D2*
X11405600D1*
X11498353D2*
X11546259D1*
X8807212Y5604160D2*
X8858225D1*
X9055155D2*
X9118968D1*
X9190369D2*
X9264734D1*
X9371073D2*
X9422105D1*
X9484065D2*
X9537264D1*
X9644383D2*
X9690816D1*
X9735581D2*
X9813837D1*
X9857749D2*
X9907827D1*
X10022894D2*
X10080395D1*
X10149979D2*
X10215532D1*
X10327061D2*
X10376907D1*
X10541376D2*
X10596693D1*
X10694454D2*
X10741236D1*
X10962400D2*
X10977640D1*
X11077189D2*
X11138923D1*
X11206049D2*
X11261726D1*
X11358640D2*
X11407444D1*
X11496749D2*
X11544152D1*
X8806457Y5596540D2*
X8856266D1*
X9057753D2*
X9125980D1*
X9179320D2*
X9259936D1*
X9370330D2*
X9420146D1*
X9486678D2*
X9539964D1*
X9643086D2*
X9689131D1*
X9735868D2*
X9809907D1*
X9856448D2*
X9905791D1*
X10025205D2*
X10086100D1*
X10139440D2*
X10211865D1*
X10324973D2*
X10376154D1*
X10537317D2*
X10591874D1*
X10695162D2*
X10741638D1*
X10962400D2*
X11000500D1*
X11069080D2*
X11135479D1*
X11201384D2*
X11257768D1*
X11358670D2*
X11409404D1*
X11495069D2*
X11542655D1*
X8805859Y5588920D2*
X8854261D1*
X9061553D2*
X9254029D1*
X9369737D2*
X9418111D1*
X9489242D2*
X9542562D1*
X9641127D2*
X9686981D1*
X9736845D2*
X9805815D1*
X9854487D2*
X9904176D1*
X10028028D2*
X10207384D1*
X10323562D2*
X10474720D1*
X10532778D2*
X10587532D1*
X10695486D2*
X10742660D1*
X10962400D2*
X11131552D1*
X11197100D2*
X11253894D1*
X11358938D2*
X11410735D1*
X11492920D2*
X11648200D1*
X8804752Y5581300D2*
X8852884D1*
X9066954D2*
X9247242D1*
X9368632D2*
X9416496D1*
X9491682D2*
X9545015D1*
X9639091D2*
X9684893D1*
X9738673D2*
X9801265D1*
X9852452D2*
X9902491D1*
X10031571D2*
X10202382D1*
X10322569D2*
X10474430D1*
X10527869D2*
X10583468D1*
X10695620D2*
X10744504D1*
X10962430D2*
X11126777D1*
X11193057D2*
X11250069D1*
X11359909D2*
X11411443D1*
X11490833D2*
X11645595D1*
X8802874Y5573680D2*
X8851880D1*
X9073761D2*
X9239677D1*
X9366754D2*
X9414806D1*
X9494269D2*
X9547606D1*
X9637453D2*
X9683512D1*
X9740627D2*
X9796327D1*
X9850813D2*
X9900340D1*
X10036186D2*
X10195926D1*
X10321263D2*
X10473448D1*
X10523227D2*
X10579537D1*
X10695671D2*
X10746465D1*
X10962787D2*
X11120562D1*
X11189133D2*
X11246269D1*
X11361735D2*
X11411766D1*
X11489452D2*
X11643327D1*
X8800882Y5566060D2*
X8850377D1*
X9082163D2*
X9230655D1*
X9364762D2*
X9412591D1*
X9496585D2*
X9549924D1*
X9635561D2*
X9682785D1*
X9741962D2*
X9791458D1*
X9848921D2*
X9898232D1*
X10042572D2*
X10186735D1*
X10319237D2*
X10471557D1*
X10519140D2*
X10575483D1*
X10695690D2*
X10747801D1*
X10963680D2*
X11112254D1*
X11185082D2*
X11242661D1*
X11363708D2*
X11411900D1*
X11488725D2*
X11641877D1*
X8799431Y5558440D2*
X8847633D1*
X9092654D2*
X9218849D1*
X9363311D2*
X9410184D1*
X9498174D2*
X9551514D1*
X9632617D2*
X9682442D1*
X9742709D2*
X9786502D1*
X9845977D2*
X9896735D1*
X10051644D2*
X10174856D1*
X10316916D2*
X10469289D1*
X10515729D2*
X10571022D1*
X10695697D2*
X10748549D1*
X10968390D2*
X11100775D1*
X11180622D2*
X11239486D1*
X11365153D2*
X11411953D1*
X11488382D2*
X11641090D1*
X8798320Y5550820D2*
X8844040D1*
X9105072D2*
X9203773D1*
X9362200D2*
X9407920D1*
X9499360D2*
X9552700D1*
X9628900D2*
X9682240D1*
X9743200D2*
X9781300D1*
X9842260D2*
X9895600D1*
X10064062D2*
X10161282D1*
X10314700D2*
X10467100D1*
X10512820D2*
X10566160D1*
X10695700D2*
X10749040D1*
X10979723D2*
X11085837D1*
X11175760D2*
X11236720D1*
X11366260D2*
X11411980D1*
X11488180D2*
X11640580D1*
X9118360Y5543200D2*
X9186940D1*
X10078480D2*
X10147060D1*
X10992880D2*
X11069080D1*
X7190500Y7173880D2*
X7187865Y7166260D1*
X7185329Y7158640D1*
X7182914Y7151020D1*
X7180313Y7143400D1*
X7177755Y7135780D1*
X7175317Y7128160D1*
X7172703Y7120540D1*
X7170139Y7112920D1*
X7167698Y7105300D1*
X7165083Y7097680D1*
X7162519Y7090060D1*
X7160078Y7082440D1*
X7157463Y7074820D1*
X7154899Y7067200D1*
X7152458Y7059580D1*
X7149843Y7051960D1*
X7147279Y7044340D1*
X7144838Y7036720D1*
X7142253Y7029100D1*
X7139927Y7021480D1*
X7138189Y7013860D1*
X7136428Y7006240D1*
X7133992Y6998620D1*
X7130927Y6991000D1*
X7127690Y6983380D1*
X7124742Y6975760D1*
X7122112Y6968140D1*
X7119415Y6960520D1*
X7116817Y6952900D1*
X7114365Y6945280D1*
X7111775Y6937660D1*
X7109447Y6930040D1*
X7107710Y6922420D1*
X7105978Y6914800D1*
X7103780Y6907180D1*
X7101418Y6899560D1*
X7099035Y6891940D1*
X7096216Y6884320D1*
X7092961Y6876700D1*
X7089671Y6869080D1*
X7086929Y6861460D1*
X7084990Y6853840D1*
X7083171Y6846220D1*
X7080940Y6838600D1*
X7078565Y6830980D1*
X7076207Y6823360D1*
X7073624Y6815740D1*
X7071072Y6808120D1*
X7068606Y6800500D1*
X7065754Y6792880D1*
X7062487Y6785260D1*
X7059193Y6777640D1*
X7056449Y6770020D1*
X7054510Y6762400D1*
X7052692Y6754780D1*
X7050460Y6747160D1*
X7048085Y6739540D1*
X7045727Y6731920D1*
X7043144Y6724300D1*
X7040592Y6716680D1*
X7038156Y6709060D1*
X7035542Y6701440D1*
X7032979Y6693820D1*
X7030538Y6686200D1*
X7027923Y6678580D1*
X7025359Y6670960D1*
X7022918Y6663340D1*
X7020303Y6655720D1*
X7017739Y6648100D1*
X7015298Y6640480D1*
X7012683Y6632860D1*
X7010119Y6625240D1*
X7007678Y6617620D1*
X7005063Y6610000D1*
X7002499Y6602380D1*
X7000058Y6594760D1*
X6997443Y6587140D1*
X6994879Y6579520D1*
X6992438Y6571900D1*
X6989823Y6564280D1*
X6987259Y6556660D1*
X6984818Y6549040D1*
X6982203Y6541420D1*
X6979639Y6533800D1*
X6977198Y6526180D1*
X6974583Y6518560D1*
X6972019Y6510940D1*
X6969578Y6503320D1*
X6966963Y6495700D1*
X6964399Y6488080D1*
X6961958Y6480460D1*
X6959373Y6472840D1*
X6957047Y6465220D1*
X6955309Y6457600D1*
X6953548Y6449980D1*
X6951112Y6442360D1*
X6948047Y6434740D1*
X6944839Y6427120D1*
X6942130Y6419500D1*
X6940203Y6411880D1*
X6938360Y6404260D1*
X6935891Y6396640D1*
X6932814Y6389020D1*
X6929602Y6381400D1*
X6926891Y6373780D1*
X6924963Y6366160D1*
X6923120Y6358540D1*
X6920651Y6350920D1*
X6917574Y6343300D1*
X6914362Y6335680D1*
X6911651Y6328060D1*
X6909723Y6320440D1*
X6907909Y6312820D1*
X6905679Y6305200D1*
X6903305Y6297580D1*
X6900947Y6289960D1*
X6898364Y6282340D1*
X6895812Y6274720D1*
X6893376Y6267100D1*
X6890762Y6259480D1*
X6888199Y6251860D1*
X6885758Y6244240D1*
X6883143Y6236620D1*
X6880579Y6229000D1*
X6878138Y6221380D1*
X6875523Y6213760D1*
X6872959Y6206140D1*
X6870518Y6198520D1*
X6867903Y6190900D1*
X6865339Y6183280D1*
X6862898Y6175660D1*
X6860283Y6168040D1*
X6857719Y6160420D1*
X6855278Y6152800D1*
X6852663Y6145180D1*
X6850099Y6137560D1*
X6847658Y6129940D1*
X6845043Y6122320D1*
X6842479Y6114700D1*
X6840038Y6107080D1*
X6837423Y6099460D1*
X6834859Y6091840D1*
X6832418Y6084220D1*
X6829803Y6076600D1*
X6827239Y6068980D1*
X6824798Y6061360D1*
X6822183Y6053740D1*
X6819619Y6046120D1*
X6817178Y6038500D1*
X6814563Y6030880D1*
X6811999Y6023260D1*
X6809558Y6015640D1*
X6806943Y6008020D1*
X6804379Y6000400D1*
X6801938Y5992780D1*
X6799323Y5985160D1*
X6796759Y5977540D1*
X6794318Y5969920D1*
X6791703Y5962300D1*
X6789139Y5954680D1*
X6786698Y5947060D1*
X6784113Y5939440D1*
X6781816Y5931820D1*
X6780347Y5924200D1*
X6779585Y5916580D1*
X6779229Y5908960D1*
X6779020Y5901340D1*
X8082040Y7173880D2*
X8080862Y7166260D1*
X8078943Y7158640D1*
X8076703Y7151020D1*
X8074397Y7143400D1*
X8071834Y7135780D1*
X8069289Y7128160D1*
X8066855Y7120540D1*
X8064242Y7112920D1*
X8061678Y7105300D1*
X8059238Y7097680D1*
X8056623Y7090060D1*
X8054059Y7082440D1*
X8051618Y7074820D1*
X8049003Y7067200D1*
X8046439Y7059580D1*
X8043998Y7051960D1*
X8041383Y7044340D1*
X8038819Y7036720D1*
X8036378Y7029100D1*
X8033793Y7021480D1*
X8031467Y7013860D1*
X8029729Y7006240D1*
X8027968Y6998620D1*
X8025532Y6991000D1*
X8022467Y6983380D1*
X8019259Y6975760D1*
X8016550Y6968140D1*
X8014623Y6960520D1*
X8012780Y6952900D1*
X8010311Y6945280D1*
X8007234Y6937660D1*
X8004022Y6930040D1*
X8001311Y6922420D1*
X7999383Y6914800D1*
X7997540Y6907180D1*
X7995071Y6899560D1*
X7991994Y6891940D1*
X7988782Y6884320D1*
X7986071Y6876700D1*
X7984143Y6869080D1*
X7982329Y6861460D1*
X7980099Y6853840D1*
X7977725Y6846220D1*
X7975367Y6838600D1*
X7972784Y6830980D1*
X7970232Y6823360D1*
X7967796Y6815740D1*
X7965182Y6808120D1*
X7962619Y6800500D1*
X7960178Y6792880D1*
X7957563Y6785260D1*
X7954999Y6777640D1*
X7952558Y6770020D1*
X7949943Y6762400D1*
X7947379Y6754780D1*
X7944938Y6747160D1*
X7942323Y6739540D1*
X7939759Y6731920D1*
X7937318Y6724300D1*
X7934703Y6716680D1*
X7932139Y6709060D1*
X7929698Y6701440D1*
X7927083Y6693820D1*
X7924519Y6686200D1*
X7922078Y6678580D1*
X7919463Y6670960D1*
X7916899Y6663340D1*
X7914458Y6655720D1*
X7911843Y6648100D1*
X7909279Y6640480D1*
X7906838Y6632860D1*
X7904223Y6625240D1*
X7901659Y6617620D1*
X7899218Y6610000D1*
X7896603Y6602380D1*
X7894039Y6594760D1*
X7891598Y6587140D1*
X7888983Y6579520D1*
X7886419Y6571900D1*
X7883978Y6564280D1*
X7881363Y6556660D1*
X7878799Y6549040D1*
X7876358Y6541420D1*
X7873773Y6533800D1*
X7871447Y6526180D1*
X7869709Y6518560D1*
X7867948Y6510940D1*
X7865512Y6503320D1*
X7862447Y6495700D1*
X7859210Y6488080D1*
X7856262Y6480460D1*
X7853632Y6472840D1*
X7850935Y6465220D1*
X7848337Y6457600D1*
X7845885Y6449980D1*
X7843295Y6442360D1*
X7840967Y6434740D1*
X7839230Y6427120D1*
X7837468Y6419500D1*
X7835032Y6411880D1*
X7831967Y6404260D1*
X7828730Y6396640D1*
X7825782Y6389020D1*
X7823152Y6381400D1*
X7820484Y6373780D1*
X7818125Y6366160D1*
X7816376Y6358540D1*
X7814640Y6350920D1*
X7812441Y6343300D1*
X7810079Y6335680D1*
X7807725Y6328060D1*
X7805144Y6320440D1*
X7802592Y6312820D1*
X7800126Y6305200D1*
X7797274Y6297580D1*
X7794007Y6289960D1*
X7790713Y6282340D1*
X7787969Y6274720D1*
X7786030Y6267100D1*
X7784212Y6259480D1*
X7781980Y6251860D1*
X7779605Y6244240D1*
X7777247Y6236620D1*
X7774664Y6229000D1*
X7772112Y6221380D1*
X7769676Y6213760D1*
X7767062Y6206140D1*
X7764499Y6198520D1*
X7762058Y6190900D1*
X7759443Y6183280D1*
X7756879Y6175660D1*
X7754438Y6168040D1*
X7751823Y6160420D1*
X7749259Y6152800D1*
X7746818Y6145180D1*
X7744203Y6137560D1*
X7741639Y6129940D1*
X7739198Y6122320D1*
X7736583Y6114700D1*
X7734019Y6107080D1*
X7731578Y6099460D1*
X7728963Y6091840D1*
X7726399Y6084220D1*
X7723958Y6076600D1*
X7721343Y6068980D1*
X7718779Y6061360D1*
X7716338Y6053740D1*
X7713723Y6046120D1*
X7711159Y6038500D1*
X7708718Y6030880D1*
X7706103Y6023260D1*
X7703539Y6015640D1*
X7701098Y6008020D1*
X7698483Y6000400D1*
X7695919Y5992780D1*
X7693478Y5985160D1*
X7690863Y5977540D1*
X7688299Y5969920D1*
X7685858Y5962300D1*
X7683243Y5954680D1*
X7680679Y5947060D1*
X7678238Y5939440D1*
X7675653Y5931820D1*
X7673356Y5924200D1*
X7671881Y5916580D1*
X7671079Y5908960D1*
X7670560Y5901340D1*
X8143000Y7173880D2*
X8139453Y7166260D1*
X8136996Y7158640D1*
X8134888Y7151020D1*
X8132304Y7143400D1*
X8129180Y7135780D1*
X8125921Y7128160D1*
X8122966Y7120540D1*
X8120333Y7112920D1*
X8117635Y7105300D1*
X8115038Y7097680D1*
X8112585Y7090060D1*
X8109995Y7082440D1*
X8107667Y7074820D1*
X8105930Y7067200D1*
X8104168Y7059580D1*
X8101732Y7051960D1*
X8098667Y7044340D1*
X8095430Y7036720D1*
X8092482Y7029100D1*
X8089852Y7021480D1*
X8087184Y7013860D1*
X8084825Y7006240D1*
X8083076Y6998620D1*
X8081340Y6991000D1*
X8079141Y6983380D1*
X8076779Y6975760D1*
X8074425Y6968140D1*
X8071844Y6960520D1*
X8069292Y6952900D1*
X8066826Y6945280D1*
X8063974Y6937660D1*
X8060707Y6930040D1*
X8057413Y6922420D1*
X8054669Y6914800D1*
X8052730Y6907180D1*
X8050912Y6899560D1*
X8048680Y6891940D1*
X8046305Y6884320D1*
X8043947Y6876700D1*
X8041364Y6869080D1*
X8038812Y6861460D1*
X8036376Y6853840D1*
X8033762Y6846220D1*
X8031199Y6838600D1*
X8028758Y6830980D1*
X8026143Y6823360D1*
X8023579Y6815740D1*
X8021138Y6808120D1*
X8018523Y6800500D1*
X8015959Y6792880D1*
X8013518Y6785260D1*
X8010903Y6777640D1*
X8008339Y6770020D1*
X8005898Y6762400D1*
X8003283Y6754780D1*
X8000719Y6747160D1*
X7998278Y6739540D1*
X7995663Y6731920D1*
X7993099Y6724300D1*
X7990658Y6716680D1*
X7988043Y6709060D1*
X7985479Y6701440D1*
X7983038Y6693820D1*
X7980423Y6686200D1*
X7977859Y6678580D1*
X7975418Y6670960D1*
X7972803Y6663340D1*
X7970239Y6655720D1*
X7967798Y6648100D1*
X7965183Y6640480D1*
X7962619Y6632860D1*
X7960178Y6625240D1*
X7957563Y6617620D1*
X7954999Y6610000D1*
X7952558Y6602380D1*
X7949943Y6594760D1*
X7947379Y6587140D1*
X7944938Y6579520D1*
X7942323Y6571900D1*
X7939759Y6564280D1*
X7937318Y6556660D1*
X7934703Y6549040D1*
X7932139Y6541420D1*
X7929698Y6533800D1*
X7927113Y6526180D1*
X7924787Y6518560D1*
X7923049Y6510940D1*
X7921288Y6503320D1*
X7918852Y6495700D1*
X7915787Y6488080D1*
X7912579Y6480460D1*
X7909870Y6472840D1*
X7907943Y6465220D1*
X7906100Y6457600D1*
X7903631Y6449980D1*
X7900554Y6442360D1*
X7897342Y6434740D1*
X7894631Y6427120D1*
X7892703Y6419500D1*
X7890860Y6411880D1*
X7888391Y6404260D1*
X7885314Y6396640D1*
X7882102Y6389020D1*
X7879391Y6381400D1*
X7877463Y6373780D1*
X7875649Y6366160D1*
X7873419Y6358540D1*
X7871045Y6350920D1*
X7868687Y6343300D1*
X7866104Y6335680D1*
X7863552Y6328060D1*
X7861116Y6320440D1*
X7858502Y6312820D1*
X7855939Y6305200D1*
X7853498Y6297580D1*
X7850883Y6289960D1*
X7848319Y6282340D1*
X7845878Y6274720D1*
X7843263Y6267100D1*
X7840699Y6259480D1*
X7838258Y6251860D1*
X7835643Y6244240D1*
X7833079Y6236620D1*
X7830638Y6229000D1*
X7828023Y6221380D1*
X7825459Y6213760D1*
X7823018Y6206140D1*
X7820403Y6198520D1*
X7817839Y6190900D1*
X7815398Y6183280D1*
X7812783Y6175660D1*
X7810219Y6168040D1*
X7807778Y6160420D1*
X7805163Y6152800D1*
X7802599Y6145180D1*
X7800158Y6137560D1*
X7797543Y6129940D1*
X7794979Y6122320D1*
X7792538Y6114700D1*
X7789923Y6107080D1*
X7787359Y6099460D1*
X7784918Y6091840D1*
X7782303Y6084220D1*
X7779739Y6076600D1*
X7777298Y6068980D1*
X7774683Y6061360D1*
X7772119Y6053740D1*
X7769678Y6046120D1*
X7767063Y6038500D1*
X7764499Y6030880D1*
X7762058Y6023260D1*
X7759443Y6015640D1*
X7756879Y6008020D1*
X7754438Y6000400D1*
X7751823Y5992780D1*
X7749259Y5985160D1*
X7746818Y5977540D1*
X7744203Y5969920D1*
X7741639Y5962300D1*
X7739198Y5954680D1*
X7736583Y5947060D1*
X7734019Y5939440D1*
X7731578Y5931820D1*
X7728991Y5924200D1*
X7726675Y5916580D1*
X7725086Y5908960D1*
X7723900Y5901340D1*
X8706880Y7173880D2*
X8705702Y7166260D1*
X8703783Y7158640D1*
X8701543Y7151020D1*
X8699237Y7143400D1*
X8696674Y7135780D1*
X8694129Y7128160D1*
X8691695Y7120540D1*
X8689082Y7112920D1*
X8686518Y7105300D1*
X8684078Y7097680D1*
X8681463Y7090060D1*
X8678899Y7082440D1*
X8676458Y7074820D1*
X8673843Y7067200D1*
X8671279Y7059580D1*
X8668838Y7051960D1*
X8666223Y7044340D1*
X8663659Y7036720D1*
X8661218Y7029100D1*
X8658603Y7021480D1*
X8656039Y7013860D1*
X8653598Y7006240D1*
X8650983Y6998620D1*
X8648419Y6991000D1*
X8645978Y6983380D1*
X8643363Y6975760D1*
X8640799Y6968140D1*
X8638358Y6960520D1*
X8635743Y6952900D1*
X8633179Y6945280D1*
X8630738Y6937660D1*
X8628123Y6930040D1*
X8625559Y6922420D1*
X8623118Y6914800D1*
X8620503Y6907180D1*
X8617939Y6899560D1*
X8615498Y6891940D1*
X8612883Y6884320D1*
X8610319Y6876700D1*
X8607878Y6869080D1*
X8605293Y6861460D1*
X8602967Y6853840D1*
X8601229Y6846220D1*
X8599498Y6838600D1*
X8597300Y6830980D1*
X8594938Y6823360D1*
X8592584Y6815740D1*
X8590004Y6808120D1*
X8587452Y6800500D1*
X8584986Y6792880D1*
X8582134Y6785260D1*
X8578867Y6777640D1*
X8575573Y6770020D1*
X8572829Y6762400D1*
X8570890Y6754780D1*
X8569072Y6747160D1*
X8566840Y6739540D1*
X8564465Y6731920D1*
X8562107Y6724300D1*
X8559524Y6716680D1*
X8556972Y6709060D1*
X8554536Y6701440D1*
X8551922Y6693820D1*
X8549359Y6686200D1*
X8546918Y6678580D1*
X8544303Y6670960D1*
X8541739Y6663340D1*
X8539298Y6655720D1*
X8536683Y6648100D1*
X8534119Y6640480D1*
X8531678Y6632860D1*
X8529063Y6625240D1*
X8526499Y6617620D1*
X8524058Y6610000D1*
X8521443Y6602380D1*
X8518879Y6594760D1*
X8516438Y6587140D1*
X8513823Y6579520D1*
X8511259Y6571900D1*
X8508818Y6564280D1*
X8506203Y6556660D1*
X8503639Y6549040D1*
X8501198Y6541420D1*
X8498583Y6533800D1*
X8496019Y6526180D1*
X8493578Y6518560D1*
X8490963Y6510940D1*
X8488399Y6503320D1*
X8485958Y6495700D1*
X8483343Y6488080D1*
X8480779Y6480460D1*
X8478338Y6472840D1*
X8475723Y6465220D1*
X8473159Y6457600D1*
X8470718Y6449980D1*
X8468103Y6442360D1*
X8465539Y6434740D1*
X8463098Y6427120D1*
X8460483Y6419500D1*
X8457919Y6411880D1*
X8455478Y6404260D1*
X8452863Y6396640D1*
X8450299Y6389020D1*
X8447858Y6381400D1*
X8445273Y6373780D1*
X8442947Y6366160D1*
X8441209Y6358540D1*
X8439448Y6350920D1*
X8437012Y6343300D1*
X8433947Y6335680D1*
X8430739Y6328060D1*
X8428030Y6320440D1*
X8426103Y6312820D1*
X8424260Y6305200D1*
X8421791Y6297580D1*
X8418714Y6289960D1*
X8415502Y6282340D1*
X8412791Y6274720D1*
X8410863Y6267100D1*
X8409020Y6259480D1*
X8406551Y6251860D1*
X8403474Y6244240D1*
X8400262Y6236620D1*
X8397551Y6229000D1*
X8395623Y6221380D1*
X8393809Y6213760D1*
X8391579Y6206140D1*
X8389205Y6198520D1*
X8386847Y6190900D1*
X8384264Y6183280D1*
X8381712Y6175660D1*
X8379276Y6168040D1*
X8376662Y6160420D1*
X8374099Y6152800D1*
X8371658Y6145180D1*
X8369043Y6137560D1*
X8366479Y6129940D1*
X8364038Y6122320D1*
X8361423Y6114700D1*
X8358859Y6107080D1*
X8356418Y6099460D1*
X8353803Y6091840D1*
X8351239Y6084220D1*
X8348798Y6076600D1*
X8346183Y6068980D1*
X8343619Y6061360D1*
X8341178Y6053740D1*
X8338563Y6046120D1*
X8335999Y6038500D1*
X8333558Y6030880D1*
X8330943Y6023260D1*
X8328379Y6015640D1*
X8325938Y6008020D1*
X8323323Y6000400D1*
X8320759Y5992780D1*
X8318318Y5985160D1*
X8315703Y5977540D1*
X8313139Y5969920D1*
X8310698Y5962300D1*
X8308083Y5954680D1*
X8305519Y5947060D1*
X8303078Y5939440D1*
X8300463Y5931820D1*
X8297876Y5924200D1*
X8295223Y5916580D1*
X8291817Y5908960D1*
X8287780Y5901340D1*
X8767840Y7173880D2*
X8764032Y7166260D1*
X8760867Y7158640D1*
X8757904Y7151020D1*
X8755190Y7143400D1*
X8752691Y7135780D1*
X8750084Y7128160D1*
X8747751Y7120540D1*
X8746011Y7112920D1*
X8744248Y7105300D1*
X8741813Y7097680D1*
X8738747Y7090060D1*
X8735539Y7082440D1*
X8732830Y7074820D1*
X8730903Y7067200D1*
X8729060Y7059580D1*
X8726591Y7051960D1*
X8723514Y7044340D1*
X8720302Y7036720D1*
X8717591Y7029100D1*
X8715663Y7021480D1*
X8713820Y7013860D1*
X8711351Y7006240D1*
X8708274Y6998620D1*
X8705062Y6991000D1*
X8702351Y6983380D1*
X8700423Y6975760D1*
X8698609Y6968140D1*
X8696379Y6960520D1*
X8694005Y6952900D1*
X8691617Y6945280D1*
X8688796Y6937660D1*
X8685541Y6930040D1*
X8682251Y6922420D1*
X8679509Y6914800D1*
X8677570Y6907180D1*
X8675751Y6899560D1*
X8673520Y6891940D1*
X8671145Y6884320D1*
X8668787Y6876700D1*
X8666204Y6869080D1*
X8663652Y6861460D1*
X8661186Y6853840D1*
X8658334Y6846220D1*
X8655067Y6838600D1*
X8651773Y6830980D1*
X8649029Y6823360D1*
X8647090Y6815740D1*
X8645272Y6808120D1*
X8643040Y6800500D1*
X8640665Y6792880D1*
X8638307Y6785260D1*
X8635724Y6777640D1*
X8633172Y6770020D1*
X8630736Y6762400D1*
X8628122Y6754780D1*
X8625559Y6747160D1*
X8623118Y6739540D1*
X8620503Y6731920D1*
X8617939Y6724300D1*
X8615498Y6716680D1*
X8612883Y6709060D1*
X8610319Y6701440D1*
X8607878Y6693820D1*
X8605263Y6686200D1*
X8602699Y6678580D1*
X8600258Y6670960D1*
X8597643Y6663340D1*
X8595079Y6655720D1*
X8592638Y6648100D1*
X8590023Y6640480D1*
X8587459Y6632860D1*
X8585018Y6625240D1*
X8582403Y6617620D1*
X8579839Y6610000D1*
X8577398Y6602380D1*
X8574783Y6594760D1*
X8572219Y6587140D1*
X8569778Y6579520D1*
X8567163Y6571900D1*
X8564599Y6564280D1*
X8562158Y6556660D1*
X8559543Y6549040D1*
X8556979Y6541420D1*
X8554538Y6533800D1*
X8551953Y6526180D1*
X8549627Y6518560D1*
X8547889Y6510940D1*
X8546128Y6503320D1*
X8543692Y6495700D1*
X8540627Y6488080D1*
X8537390Y6480460D1*
X8534442Y6472840D1*
X8531812Y6465220D1*
X8529115Y6457600D1*
X8526517Y6449980D1*
X8524065Y6442360D1*
X8521445Y6434740D1*
X8518879Y6427120D1*
X8516438Y6419500D1*
X8513823Y6411880D1*
X8511259Y6404260D1*
X8508818Y6396640D1*
X8506203Y6389020D1*
X8503639Y6381400D1*
X8501198Y6373780D1*
X8498613Y6366160D1*
X8496287Y6358540D1*
X8494549Y6350920D1*
X8492788Y6343300D1*
X8490352Y6335680D1*
X8487287Y6328060D1*
X8484079Y6320440D1*
X8481370Y6312820D1*
X8479443Y6305200D1*
X8477600Y6297580D1*
X8475131Y6289960D1*
X8472054Y6282340D1*
X8468842Y6274720D1*
X8466131Y6267100D1*
X8464203Y6259480D1*
X8462360Y6251860D1*
X8459891Y6244240D1*
X8456814Y6236620D1*
X8453602Y6229000D1*
X8450891Y6221380D1*
X8448963Y6213760D1*
X8447149Y6206140D1*
X8444919Y6198520D1*
X8442545Y6190900D1*
X8440187Y6183280D1*
X8437604Y6175660D1*
X8435052Y6168040D1*
X8432616Y6160420D1*
X8430002Y6152800D1*
X8427439Y6145180D1*
X8424998Y6137560D1*
X8422383Y6129940D1*
X8419819Y6122320D1*
X8417378Y6114700D1*
X8414763Y6107080D1*
X8412199Y6099460D1*
X8409758Y6091840D1*
X8407143Y6084220D1*
X8404579Y6076600D1*
X8402138Y6068980D1*
X8399523Y6061360D1*
X8396959Y6053740D1*
X8394518Y6046120D1*
X8391903Y6038500D1*
X8389339Y6030880D1*
X8386898Y6023260D1*
X8384283Y6015640D1*
X8381719Y6008020D1*
X8379278Y6000400D1*
X8376663Y5992780D1*
X8374099Y5985160D1*
X8371658Y5977540D1*
X8369043Y5969920D1*
X8366479Y5962300D1*
X8364038Y5954680D1*
X8361423Y5947060D1*
X8358859Y5939440D1*
X8356418Y5931820D1*
X8353831Y5924200D1*
X8351515Y5916580D1*
X8349926Y5908960D1*
X8348740Y5901340D1*
X9194560Y7173880D2*
X9190752Y7166260D1*
X9187587Y7158640D1*
X9184624Y7151020D1*
X9181910Y7143400D1*
X9179411Y7135780D1*
X9176775Y7128160D1*
X9174203Y7120540D1*
X9171759Y7112920D1*
X9169143Y7105300D1*
X9166579Y7097680D1*
X9164138Y7090060D1*
X9161523Y7082440D1*
X9158959Y7074820D1*
X9156518Y7067200D1*
X9153903Y7059580D1*
X9151339Y7051960D1*
X9148898Y7044340D1*
X9146283Y7036720D1*
X9143719Y7029100D1*
X9141278Y7021480D1*
X9138663Y7013860D1*
X9136099Y7006240D1*
X9133658Y6998620D1*
X9131043Y6991000D1*
X9128479Y6983380D1*
X9126038Y6975760D1*
X9123423Y6968140D1*
X9120859Y6960520D1*
X9118418Y6952900D1*
X9115803Y6945280D1*
X9113239Y6937660D1*
X9110798Y6930040D1*
X9108183Y6922420D1*
X9105619Y6914800D1*
X9103178Y6907180D1*
X9100563Y6899560D1*
X9097999Y6891940D1*
X9095558Y6884320D1*
X9092973Y6876700D1*
X9090647Y6869080D1*
X9088909Y6861460D1*
X9087148Y6853840D1*
X9084712Y6846220D1*
X9081647Y6838600D1*
X9078410Y6830980D1*
X9075462Y6823360D1*
X9072832Y6815740D1*
X9070135Y6808120D1*
X9067537Y6800500D1*
X9065085Y6792880D1*
X9062495Y6785260D1*
X9060167Y6777640D1*
X9058430Y6770020D1*
X9056698Y6762400D1*
X9054500Y6754780D1*
X9052138Y6747160D1*
X9049784Y6739540D1*
X9047204Y6731920D1*
X9044652Y6724300D1*
X9042216Y6716680D1*
X9039602Y6709060D1*
X9037039Y6701440D1*
X9034598Y6693820D1*
X9031983Y6686200D1*
X9029419Y6678580D1*
X9026978Y6670960D1*
X9024363Y6663340D1*
X9021799Y6655720D1*
X9019358Y6648100D1*
X9016743Y6640480D1*
X9014179Y6632860D1*
X9011738Y6625240D1*
X9009123Y6617620D1*
X9006559Y6610000D1*
X9004118Y6602380D1*
X9001503Y6594760D1*
X8998939Y6587140D1*
X8996498Y6579520D1*
X8993883Y6571900D1*
X8991319Y6564280D1*
X8988878Y6556660D1*
X8986263Y6549040D1*
X8983699Y6541420D1*
X8981258Y6533800D1*
X8978643Y6526180D1*
X8976079Y6518560D1*
X8973638Y6510940D1*
X8971023Y6503320D1*
X8968459Y6495700D1*
X8966018Y6488080D1*
X8963433Y6480460D1*
X8961107Y6472840D1*
X8959369Y6465220D1*
X8957608Y6457600D1*
X8955172Y6449980D1*
X8952107Y6442360D1*
X8948870Y6434740D1*
X8945922Y6427120D1*
X8943292Y6419500D1*
X8940595Y6411880D1*
X8937997Y6404260D1*
X8935545Y6396640D1*
X8932955Y6389020D1*
X8930627Y6381400D1*
X8928890Y6373780D1*
X8927128Y6366160D1*
X8924692Y6358540D1*
X8921627Y6350920D1*
X8918390Y6343300D1*
X8915442Y6335680D1*
X8912812Y6328060D1*
X8910144Y6320440D1*
X8907785Y6312820D1*
X8906036Y6305200D1*
X8904300Y6297580D1*
X8902101Y6289960D1*
X8899739Y6282340D1*
X8897385Y6274720D1*
X8894804Y6267100D1*
X8892252Y6259480D1*
X8889816Y6251860D1*
X8887202Y6244240D1*
X8884639Y6236620D1*
X8882198Y6229000D1*
X8879583Y6221380D1*
X8877019Y6213760D1*
X8874578Y6206140D1*
X8871963Y6198520D1*
X8869399Y6190900D1*
X8866958Y6183280D1*
X8864343Y6175660D1*
X8861779Y6168040D1*
X8859338Y6160420D1*
X8856723Y6152800D1*
X8854159Y6145180D1*
X8851718Y6137560D1*
X8849103Y6129940D1*
X8846539Y6122320D1*
X8844098Y6114700D1*
X8841483Y6107080D1*
X8838919Y6099460D1*
X8836478Y6091840D1*
X8833863Y6084220D1*
X8831299Y6076600D1*
X8828858Y6068980D1*
X8826243Y6061360D1*
X8823679Y6053740D1*
X8821238Y6046120D1*
X8818623Y6038500D1*
X8816059Y6030880D1*
X8813618Y6023260D1*
X8811003Y6015640D1*
X8808439Y6008020D1*
X8805998Y6000400D1*
X8803413Y5992780D1*
X8801087Y5985160D1*
X8799349Y5977540D1*
X8797588Y5969920D1*
X8795152Y5962300D1*
X8792087Y5954680D1*
X8788850Y5947060D1*
X8785902Y5939440D1*
X8783272Y5931820D1*
X8780575Y5924200D1*
X8777955Y5916580D1*
X8775290Y5908960D1*
X8771879Y5901340D1*
X8767840Y5893720D1*
X9240280Y7173880D2*
X9239102Y7166260D1*
X9237213Y7158640D1*
X9235211Y7151020D1*
X9233608Y7143400D1*
X9231899Y7135780D1*
X9229482Y7128160D1*
X9226424Y7120540D1*
X9223189Y7112920D1*
X9220242Y7105300D1*
X9217612Y7097680D1*
X9214944Y7090060D1*
X9212585Y7082440D1*
X9210836Y7074820D1*
X9209100Y7067200D1*
X9206901Y7059580D1*
X9204539Y7051960D1*
X9202185Y7044340D1*
X9199604Y7036720D1*
X9197052Y7029100D1*
X9194616Y7021480D1*
X9192002Y7013860D1*
X9189439Y7006240D1*
X9186998Y6998620D1*
X9184383Y6991000D1*
X9181819Y6983380D1*
X9179378Y6975760D1*
X9176763Y6968140D1*
X9174199Y6960520D1*
X9171758Y6952900D1*
X9169143Y6945280D1*
X9166579Y6937660D1*
X9164138Y6930040D1*
X9161523Y6922420D1*
X9158959Y6914800D1*
X9156518Y6907180D1*
X9153903Y6899560D1*
X9151339Y6891940D1*
X9148898Y6884320D1*
X9146283Y6876700D1*
X9143719Y6869080D1*
X9141278Y6861460D1*
X9138663Y6853840D1*
X9136099Y6846220D1*
X9133658Y6838600D1*
X9131043Y6830980D1*
X9128479Y6823360D1*
X9126038Y6815740D1*
X9123423Y6808120D1*
X9120859Y6800500D1*
X9118418Y6792880D1*
X9115803Y6785260D1*
X9113239Y6777640D1*
X9110798Y6770020D1*
X9108213Y6762400D1*
X9105887Y6754780D1*
X9104149Y6747160D1*
X9102388Y6739540D1*
X9099952Y6731920D1*
X9096887Y6724300D1*
X9093679Y6716680D1*
X9090970Y6709060D1*
X9089043Y6701440D1*
X9087200Y6693820D1*
X9084731Y6686200D1*
X9081654Y6678580D1*
X9078442Y6670960D1*
X9075731Y6663340D1*
X9073803Y6655720D1*
X9071989Y6648100D1*
X9069759Y6640480D1*
X9067385Y6632860D1*
X9065027Y6625240D1*
X9062444Y6617620D1*
X9059892Y6610000D1*
X9057456Y6602380D1*
X9054842Y6594760D1*
X9052279Y6587140D1*
X9049838Y6579520D1*
X9047223Y6571900D1*
X9044659Y6564280D1*
X9042218Y6556660D1*
X9039603Y6549040D1*
X9037039Y6541420D1*
X9034598Y6533800D1*
X9031983Y6526180D1*
X9029419Y6518560D1*
X9026978Y6510940D1*
X9024363Y6503320D1*
X9021799Y6495700D1*
X9019358Y6488080D1*
X9016743Y6480460D1*
X9014179Y6472840D1*
X9011738Y6465220D1*
X9009123Y6457600D1*
X9006559Y6449980D1*
X9004118Y6442360D1*
X9001533Y6434740D1*
X8999207Y6427120D1*
X8997469Y6419500D1*
X8995708Y6411880D1*
X8993272Y6404260D1*
X8990207Y6396640D1*
X8986999Y6389020D1*
X8984290Y6381400D1*
X8982363Y6373780D1*
X8980520Y6366160D1*
X8978051Y6358540D1*
X8974974Y6350920D1*
X8971762Y6343300D1*
X8969051Y6335680D1*
X8967123Y6328060D1*
X8965309Y6320440D1*
X8963079Y6312820D1*
X8960705Y6305200D1*
X8958347Y6297580D1*
X8955764Y6289960D1*
X8953212Y6282340D1*
X8950776Y6274720D1*
X8948162Y6267100D1*
X8945599Y6259480D1*
X8943158Y6251860D1*
X8940543Y6244240D1*
X8937979Y6236620D1*
X8935538Y6229000D1*
X8932923Y6221380D1*
X8930359Y6213760D1*
X8927918Y6206140D1*
X8925303Y6198520D1*
X8922739Y6190900D1*
X8920298Y6183280D1*
X8917683Y6175660D1*
X8915119Y6168040D1*
X8912678Y6160420D1*
X8910063Y6152800D1*
X8907499Y6145180D1*
X8905058Y6137560D1*
X8902443Y6129940D1*
X8899879Y6122320D1*
X8897438Y6114700D1*
X8894823Y6107080D1*
X8892259Y6099460D1*
X8889818Y6091840D1*
X8887203Y6084220D1*
X8884639Y6076600D1*
X8882198Y6068980D1*
X8879583Y6061360D1*
X8877019Y6053740D1*
X8874578Y6046120D1*
X8871963Y6038500D1*
X8869399Y6030880D1*
X8866958Y6023260D1*
X8864373Y6015640D1*
X8862047Y6008020D1*
X8860309Y6000400D1*
X8858578Y5992780D1*
X8856380Y5985160D1*
X8854018Y5977540D1*
X8851664Y5969920D1*
X8849084Y5962300D1*
X8846532Y5954680D1*
X8844096Y5947060D1*
X8841482Y5939440D1*
X8838919Y5931820D1*
X8836472Y5924200D1*
X8833821Y5916580D1*
X8831197Y5908960D1*
X8828800Y5901340D1*
X9598420Y7173880D2*
X9595785Y7166260D1*
X9593249Y7158640D1*
X9590834Y7151020D1*
X9588233Y7143400D1*
X9585675Y7135780D1*
X9583237Y7128160D1*
X9580623Y7120540D1*
X9578059Y7112920D1*
X9575618Y7105300D1*
X9573033Y7097680D1*
X9570707Y7090060D1*
X9568969Y7082440D1*
X9567208Y7074820D1*
X9564772Y7067200D1*
X9561707Y7059580D1*
X9558499Y7051960D1*
X9555790Y7044340D1*
X9553863Y7036720D1*
X9552020Y7029100D1*
X9549551Y7021480D1*
X9546474Y7013860D1*
X9543262Y7006240D1*
X9540551Y6998620D1*
X9538623Y6991000D1*
X9536809Y6983380D1*
X9534579Y6975760D1*
X9532205Y6968140D1*
X9529847Y6960520D1*
X9527264Y6952900D1*
X9524712Y6945280D1*
X9522276Y6937660D1*
X9519662Y6930040D1*
X9517099Y6922420D1*
X9514658Y6914800D1*
X9512043Y6907180D1*
X9509479Y6899560D1*
X9507038Y6891940D1*
X9504423Y6884320D1*
X9501859Y6876700D1*
X9499418Y6869080D1*
X9496803Y6861460D1*
X9494239Y6853840D1*
X9491798Y6846220D1*
X9489183Y6838600D1*
X9486619Y6830980D1*
X9484178Y6823360D1*
X9481563Y6815740D1*
X9478999Y6808120D1*
X9476558Y6800500D1*
X9473943Y6792880D1*
X9471379Y6785260D1*
X9468938Y6777640D1*
X9466353Y6770020D1*
X9464027Y6762400D1*
X9462289Y6754780D1*
X9460528Y6747160D1*
X9458092Y6739540D1*
X9455027Y6731920D1*
X9451819Y6724300D1*
X9449110Y6716680D1*
X9447183Y6709060D1*
X9445340Y6701440D1*
X9442871Y6693820D1*
X9439794Y6686200D1*
X9436582Y6678580D1*
X9433871Y6670960D1*
X9431943Y6663340D1*
X9430129Y6655720D1*
X9427899Y6648100D1*
X9425525Y6640480D1*
X9423167Y6632860D1*
X9420584Y6625240D1*
X9418032Y6617620D1*
X9415596Y6610000D1*
X9412982Y6602380D1*
X9410419Y6594760D1*
X9407978Y6587140D1*
X9405363Y6579520D1*
X9402799Y6571900D1*
X9400358Y6564280D1*
X9397743Y6556660D1*
X9395179Y6549040D1*
X9392738Y6541420D1*
X9390123Y6533800D1*
X9387559Y6526180D1*
X9385113Y6518560D1*
X9382461Y6510940D1*
X9379837Y6503320D1*
X9377440Y6495700D1*
X9773680Y7173880D2*
X9768695Y7166260D1*
X9763611Y7158640D1*
X9758436Y7151020D1*
X9753655Y7143400D1*
X9749326Y7135780D1*
X9745266Y7128160D1*
X9741360Y7120540D1*
X9737504Y7112920D1*
X9733656Y7105300D1*
X9729597Y7097680D1*
X9725058Y7090060D1*
X9720149Y7082440D1*
X9715484Y7074820D1*
X9711200Y7067200D1*
X9707157Y7059580D1*
X9703227Y7051960D1*
X9699135Y7044340D1*
X9694585Y7036720D1*
X9689672Y7029100D1*
X9685004Y7021480D1*
X9680720Y7013860D1*
X9676677Y7006240D1*
X9672777Y6998620D1*
X9668923Y6991000D1*
X9665076Y6983380D1*
X9661017Y6975760D1*
X9656478Y6968140D1*
X9651569Y6960520D1*
X9646904Y6952900D1*
X9642620Y6945280D1*
X9638577Y6937660D1*
X9634647Y6930040D1*
X9630555Y6922420D1*
X9626005Y6914800D1*
X9621092Y6907180D1*
X9616424Y6899560D1*
X9612140Y6891940D1*
X9608097Y6884320D1*
X9604167Y6876700D1*
X9600075Y6869080D1*
X9595525Y6861460D1*
X9590612Y6853840D1*
X9585944Y6846220D1*
X9581660Y6838600D1*
X9577617Y6830980D1*
X9573687Y6823360D1*
X9569595Y6815740D1*
X9565045Y6808120D1*
X9560132Y6800500D1*
X9555464Y6792880D1*
X9551180Y6785260D1*
X9547137Y6777640D1*
X9543207Y6770020D1*
X9539115Y6762400D1*
X9534565Y6754780D1*
X9529652Y6747160D1*
X9524984Y6739540D1*
X9520700Y6731920D1*
X9516657Y6724300D1*
X9512757Y6716680D1*
X9508903Y6709060D1*
X9505056Y6701440D1*
X9500997Y6693820D1*
X9496458Y6686200D1*
X9491549Y6678580D1*
X9486884Y6670960D1*
X9482600Y6663340D1*
X9478557Y6655720D1*
X9474657Y6648100D1*
X9470803Y6640480D1*
X9466956Y6632860D1*
X9462897Y6625240D1*
X9458358Y6617620D1*
X9453449Y6610000D1*
X9448784Y6602380D1*
X9444500Y6594760D1*
X9440457Y6587140D1*
X9436557Y6579520D1*
X9432703Y6571900D1*
X9428856Y6564280D1*
X9424797Y6556660D1*
X9420258Y6549040D1*
X9415349Y6541420D1*
X9410684Y6533800D1*
X9406400Y6526180D1*
X9402381Y6518560D1*
X9398678Y6510940D1*
X9395466Y6503320D1*
X9392680Y6495700D1*
X11328160Y7173880D2*
X11332855Y7166260D1*
X11336962Y7158640D1*
X11340311Y7151020D1*
X11343137Y7143400D1*
X11346137Y7135780D1*
X11349461Y7128160D1*
X11352806Y7120540D1*
X11355795Y7112920D1*
X11358470Y7105300D1*
X11361411Y7097680D1*
X11364713Y7090060D1*
X11368050Y7082440D1*
X11371036Y7074820D1*
X11373710Y7067200D1*
X11376651Y7059580D1*
X11379953Y7051960D1*
X11383290Y7044340D1*
X11386276Y7036720D1*
X11388950Y7029100D1*
X11391891Y7021480D1*
X11395193Y7013860D1*
X11398530Y7006240D1*
X11401516Y6998620D1*
X11404190Y6991000D1*
X11407131Y6983380D1*
X11410433Y6975760D1*
X11413770Y6968140D1*
X11416756Y6960520D1*
X11419430Y6952900D1*
X11422371Y6945280D1*
X11425673Y6937660D1*
X11429010Y6930040D1*
X11431996Y6922420D1*
X11434670Y6914800D1*
X11437635Y6907180D1*
X11441163Y6899560D1*
X11445370Y6891940D1*
X11450080Y6884320D1*
X11800600Y7173880D2*
X11792950Y7166260D1*
X11785062Y7158640D1*
X11776471Y7151020D1*
X11767026Y7143400D1*
X11757453Y7135780D1*
X11748504Y7128160D1*
X11740147Y7120540D1*
X11731936Y7112920D1*
X11723211Y7105300D1*
X11713715Y7097680D1*
X11704122Y7090060D1*
X11695167Y7082440D1*
X11686808Y7074820D1*
X11678596Y7067200D1*
X11669871Y7059580D1*
X11660375Y7051960D1*
X11650782Y7044340D1*
X11641827Y7036720D1*
X11633468Y7029100D1*
X11625256Y7021480D1*
X11616531Y7013860D1*
X11607035Y7006240D1*
X11597442Y6998620D1*
X11588487Y6991000D1*
X11580128Y6983380D1*
X11571916Y6975760D1*
X11563191Y6968140D1*
X11553695Y6960520D1*
X11544102Y6952900D1*
X11535147Y6945280D1*
X11526788Y6937660D1*
X11518576Y6930040D1*
X11509851Y6922420D1*
X11500355Y6914800D1*
X11490762Y6907180D1*
X11481801Y6899560D1*
X11473432Y6891940D1*
X11465320Y6884320D1*
X12158740Y7173880D2*
Y7166260D1*
X12158710Y7158640D1*
X12158442Y7151020D1*
X12157471Y7143400D1*
X12155646Y7135780D1*
X12153663Y7128160D1*
X12152066Y7120540D1*
X12150388Y7112920D1*
X12148210Y7105300D1*
X12145855Y7097680D1*
X12143503Y7090060D1*
X12140923Y7082440D1*
X12138372Y7074820D1*
X12135936Y7067200D1*
X12133322Y7059580D1*
X12130758Y7051960D1*
X12128318Y7044340D1*
X12125703Y7036720D1*
X12123139Y7029100D1*
X12120698Y7021480D1*
X12118083Y7013860D1*
X12115519Y7006240D1*
X12113078Y6998620D1*
X12110463Y6991000D1*
X12107899Y6983380D1*
X12105458Y6975760D1*
X12102843Y6968140D1*
X12100279Y6960520D1*
X12097838Y6952900D1*
X12095223Y6945280D1*
X12092659Y6937660D1*
X12090218Y6930040D1*
X12087603Y6922420D1*
X12085039Y6914800D1*
X12082598Y6907180D1*
X12079983Y6899560D1*
X12077419Y6891940D1*
X12074978Y6884320D1*
X12072363Y6876700D1*
X12069799Y6869080D1*
X12067358Y6861460D1*
X12064743Y6853840D1*
X12062179Y6846220D1*
X12059738Y6838600D1*
X12057123Y6830980D1*
X12054559Y6823360D1*
X12052118Y6815740D1*
X12049503Y6808120D1*
X12046939Y6800500D1*
X12044498Y6792880D1*
X12041913Y6785260D1*
X12039587Y6777640D1*
X12037849Y6770020D1*
X12036088Y6762400D1*
X12033652Y6754780D1*
X12030587Y6747160D1*
X12027379Y6739540D1*
X12024670Y6731920D1*
X12022743Y6724300D1*
X12020929Y6716680D1*
X12018699Y6709060D1*
X12016325Y6701440D1*
X12013967Y6693820D1*
X12011384Y6686200D1*
X12008832Y6678580D1*
X12006366Y6670960D1*
X12003514Y6663340D1*
X12000247Y6655720D1*
X11996953Y6648100D1*
X11994209Y6640480D1*
X11992270Y6632860D1*
X11990452Y6625240D1*
X11988220Y6617620D1*
X11985845Y6610000D1*
X11983487Y6602380D1*
X11980904Y6594760D1*
X11978352Y6587140D1*
X11975916Y6579520D1*
X11973302Y6571900D1*
X11970739Y6564280D1*
X11968298Y6556660D1*
X11965683Y6549040D1*
X11963119Y6541420D1*
X11960678Y6533800D1*
X11958063Y6526180D1*
X11955499Y6518560D1*
X11953058Y6510940D1*
X11950443Y6503320D1*
X11947879Y6495700D1*
X11945438Y6488080D1*
X11942823Y6480460D1*
X11940259Y6472840D1*
X11937818Y6465220D1*
X11935203Y6457600D1*
X11932639Y6449980D1*
X11930198Y6442360D1*
X11927583Y6434740D1*
X11925019Y6427120D1*
X11922578Y6419500D1*
X11919963Y6411880D1*
X11917399Y6404260D1*
X11914958Y6396640D1*
X11912343Y6389020D1*
X11909779Y6381400D1*
X11907338Y6373780D1*
X11904723Y6366160D1*
X11902159Y6358540D1*
X11899718Y6350920D1*
X11897133Y6343300D1*
X11894807Y6335680D1*
X11893069Y6328060D1*
X11891308Y6320440D1*
X11888872Y6312820D1*
X11885807Y6305200D1*
X11882599Y6297580D1*
X11879890Y6289960D1*
X11877963Y6282340D1*
X11876120Y6274720D1*
X11873651Y6267100D1*
X11870574Y6259480D1*
X11867362Y6251860D1*
X11864651Y6244240D1*
X11862723Y6236620D1*
X11860909Y6229000D1*
X11858679Y6221380D1*
X11856305Y6213760D1*
X11853947Y6206140D1*
X11851364Y6198520D1*
X11848812Y6190900D1*
X11846376Y6183280D1*
X11843762Y6175660D1*
X11841199Y6168040D1*
X11838758Y6160420D1*
X11836143Y6152800D1*
X11833579Y6145180D1*
X11831138Y6137560D1*
X11828523Y6129940D1*
X11825959Y6122320D1*
X11823518Y6114700D1*
X11820903Y6107080D1*
X11818339Y6099460D1*
X11815898Y6091840D1*
X11813283Y6084220D1*
X11810719Y6076600D1*
X11808278Y6068980D1*
X11805663Y6061360D1*
X11803099Y6053740D1*
X11800658Y6046120D1*
X11798043Y6038500D1*
X11795479Y6030880D1*
X11793038Y6023260D1*
X11790423Y6015640D1*
X11787859Y6008020D1*
X11785418Y6000400D1*
X11782803Y5992780D1*
X11780239Y5985160D1*
X11777798Y5977540D1*
X11775183Y5969920D1*
X11772619Y5962300D1*
X11770178Y5954680D1*
X11767563Y5947060D1*
X11764999Y5939440D1*
X11762558Y5931820D1*
X11759943Y5924200D1*
X11757356Y5916580D1*
X11754703Y5908960D1*
X11751297Y5901340D1*
X11747260Y5893720D1*
X7220980Y7135780D2*
X7220690Y7128160D1*
X7219713Y7120540D1*
X7217857Y7112920D1*
X7215635Y7105300D1*
X7213335Y7097680D1*
X7210803Y7090060D1*
X7208496Y7082440D1*
X7206766Y7074820D1*
X7205007Y7067200D1*
X7202572Y7059580D1*
X7199507Y7051960D1*
X7196299Y7044340D1*
X7193590Y7036720D1*
X7191663Y7029100D1*
X7189820Y7021480D1*
X7187351Y7013860D1*
X7184274Y7006240D1*
X7181062Y6998620D1*
X7178351Y6991000D1*
X7176423Y6983380D1*
X7174580Y6975760D1*
X7172111Y6968140D1*
X7169034Y6960520D1*
X7165822Y6952900D1*
X7163111Y6945280D1*
X7161183Y6937660D1*
X7159369Y6930040D1*
X7157139Y6922420D1*
X7154765Y6914800D1*
X7152407Y6907180D1*
X7149824Y6899560D1*
X7147272Y6891940D1*
X7144836Y6884320D1*
X7142222Y6876700D1*
X7139659Y6869080D1*
X7137218Y6861460D1*
X7134603Y6853840D1*
X7132039Y6846220D1*
X7129598Y6838600D1*
X7126983Y6830980D1*
X7124419Y6823360D1*
X7121978Y6815740D1*
X7119363Y6808120D1*
X7116799Y6800500D1*
X7114358Y6792880D1*
X7111743Y6785260D1*
X7109179Y6777640D1*
X7106738Y6770020D1*
X7104123Y6762400D1*
X7101559Y6754780D1*
X7099118Y6747160D1*
X7096503Y6739540D1*
X7093939Y6731920D1*
X7091498Y6724300D1*
X7088883Y6716680D1*
X7086319Y6709060D1*
X7083878Y6701440D1*
X7081263Y6693820D1*
X7078699Y6686200D1*
X7076258Y6678580D1*
X7073643Y6670960D1*
X7071079Y6663340D1*
X7068638Y6655720D1*
X7066023Y6648100D1*
X7063459Y6640480D1*
X7061018Y6632860D1*
X7058403Y6625240D1*
X7055839Y6617620D1*
X7053398Y6610000D1*
X7050813Y6602380D1*
X7048487Y6594760D1*
X7046749Y6587140D1*
X7044988Y6579520D1*
X7042552Y6571900D1*
X7039487Y6564280D1*
X7036250Y6556660D1*
X7033302Y6549040D1*
X7030672Y6541420D1*
X7027975Y6533800D1*
X7025377Y6526180D1*
X7022925Y6518560D1*
X7020335Y6510940D1*
X7018007Y6503320D1*
X7016270Y6495700D1*
X7014508Y6488080D1*
X7012072Y6480460D1*
X7009007Y6472840D1*
X7005799Y6465220D1*
X7003090Y6457600D1*
X7001163Y6449980D1*
X6999349Y6442360D1*
X6997119Y6434740D1*
X6994745Y6427120D1*
X6992387Y6419500D1*
X6989804Y6411880D1*
X6987252Y6404260D1*
X6984816Y6396640D1*
X6982202Y6389020D1*
X6979639Y6381400D1*
X6977198Y6373780D1*
X6974583Y6366160D1*
X6972019Y6358540D1*
X6969578Y6350920D1*
X6966963Y6343300D1*
X6964399Y6335680D1*
X6961958Y6328060D1*
X6959343Y6320440D1*
X6956779Y6312820D1*
X6954338Y6305200D1*
X6951723Y6297580D1*
X6949159Y6289960D1*
X6946718Y6282340D1*
X6944103Y6274720D1*
X6941539Y6267100D1*
X6939098Y6259480D1*
X6936483Y6251860D1*
X6933919Y6244240D1*
X6931478Y6236620D1*
X6928863Y6229000D1*
X6926299Y6221380D1*
X6923858Y6213760D1*
X6921243Y6206140D1*
X6918679Y6198520D1*
X6916238Y6190900D1*
X6913623Y6183280D1*
X6911059Y6175660D1*
X6908618Y6168040D1*
X6906003Y6160420D1*
X6903439Y6152800D1*
X6900998Y6145180D1*
X6898383Y6137560D1*
X6895819Y6129940D1*
X6893378Y6122320D1*
X6890763Y6114700D1*
X6888199Y6107080D1*
X6885758Y6099460D1*
X6883143Y6091840D1*
X6880579Y6084220D1*
X6878138Y6076600D1*
X6875523Y6068980D1*
X6872959Y6061360D1*
X6870518Y6053740D1*
X6867903Y6046120D1*
X6865339Y6038500D1*
X6862898Y6030880D1*
X6860283Y6023260D1*
X6857719Y6015640D1*
X6855278Y6008020D1*
X6852693Y6000400D1*
X6850367Y5992780D1*
X6848629Y5985160D1*
X6846868Y5977540D1*
X6844403Y5969920D1*
X6841041Y5962300D1*
X6836586Y5954680D1*
X6830947Y5947060D1*
X6824740Y5939440D1*
X8021080Y7135780D2*
X8019902Y7128160D1*
X8017983Y7120540D1*
X8015743Y7112920D1*
X8013437Y7105300D1*
X8010874Y7097680D1*
X8008329Y7090060D1*
X8005895Y7082440D1*
X8003282Y7074820D1*
X8000718Y7067200D1*
X7998278Y7059580D1*
X7995663Y7051960D1*
X7993099Y7044340D1*
X7990658Y7036720D1*
X7988043Y7029100D1*
X7985479Y7021480D1*
X7983038Y7013860D1*
X7980423Y7006240D1*
X7977859Y6998620D1*
X7975418Y6991000D1*
X7972803Y6983380D1*
X7970239Y6975760D1*
X7967798Y6968140D1*
X7965213Y6960520D1*
X7962887Y6952900D1*
X7961149Y6945280D1*
X7959388Y6937660D1*
X7956952Y6930040D1*
X7953887Y6922420D1*
X7950650Y6914800D1*
X7947702Y6907180D1*
X7945072Y6899560D1*
X7942375Y6891940D1*
X7939777Y6884320D1*
X7937325Y6876700D1*
X7934735Y6869080D1*
X7932407Y6861460D1*
X7930670Y6853840D1*
X7928938Y6846220D1*
X7926740Y6838600D1*
X7924378Y6830980D1*
X7921995Y6823360D1*
X7919176Y6815740D1*
X7915921Y6808120D1*
X7912631Y6800500D1*
X7909889Y6792880D1*
X7907950Y6785260D1*
X7906131Y6777640D1*
X7903900Y6770020D1*
X7901525Y6762400D1*
X7899167Y6754780D1*
X7896584Y6747160D1*
X7894032Y6739540D1*
X7891566Y6731920D1*
X7888714Y6724300D1*
X7885447Y6716680D1*
X7882153Y6709060D1*
X7879409Y6701440D1*
X7877470Y6693820D1*
X7875652Y6686200D1*
X7873420Y6678580D1*
X7871045Y6670960D1*
X7868687Y6663340D1*
X7866104Y6655720D1*
X7863552Y6648100D1*
X7861116Y6640480D1*
X7858502Y6632860D1*
X7855939Y6625240D1*
X7853498Y6617620D1*
X7850883Y6610000D1*
X7848319Y6602380D1*
X7845878Y6594760D1*
X7843263Y6587140D1*
X7840699Y6579520D1*
X7838258Y6571900D1*
X7835643Y6564280D1*
X7833079Y6556660D1*
X7830638Y6549040D1*
X7828023Y6541420D1*
X7825459Y6533800D1*
X7823018Y6526180D1*
X7820403Y6518560D1*
X7817839Y6510940D1*
X7815398Y6503320D1*
X7812783Y6495700D1*
X7810219Y6488080D1*
X7807778Y6480460D1*
X7805163Y6472840D1*
X7802599Y6465220D1*
X7800158Y6457600D1*
X7797543Y6449980D1*
X7794979Y6442360D1*
X7792538Y6434740D1*
X7789923Y6427120D1*
X7787359Y6419500D1*
X7784918Y6411880D1*
X7782333Y6404260D1*
X7780007Y6396640D1*
X7778269Y6389020D1*
X7776508Y6381400D1*
X7774072Y6373780D1*
X7771007Y6366160D1*
X7767799Y6358540D1*
X7765090Y6350920D1*
X7763163Y6343300D1*
X7761320Y6335680D1*
X7758851Y6328060D1*
X7755774Y6320440D1*
X7752562Y6312820D1*
X7749851Y6305200D1*
X7747923Y6297580D1*
X7746080Y6289960D1*
X7743611Y6282340D1*
X7740534Y6274720D1*
X7737322Y6267100D1*
X7734611Y6259480D1*
X7732683Y6251860D1*
X7730869Y6244240D1*
X7728639Y6236620D1*
X7726265Y6229000D1*
X7723907Y6221380D1*
X7721324Y6213760D1*
X7718772Y6206140D1*
X7716336Y6198520D1*
X7713722Y6190900D1*
X7711159Y6183280D1*
X7708718Y6175660D1*
X7706103Y6168040D1*
X7703539Y6160420D1*
X7701098Y6152800D1*
X7698483Y6145180D1*
X7695919Y6137560D1*
X7693478Y6129940D1*
X7690863Y6122320D1*
X7688299Y6114700D1*
X7685858Y6107080D1*
X7683243Y6099460D1*
X7680679Y6091840D1*
X7678238Y6084220D1*
X7675623Y6076600D1*
X7673059Y6068980D1*
X7670618Y6061360D1*
X7668003Y6053740D1*
X7665439Y6046120D1*
X7662998Y6038500D1*
X7660383Y6030880D1*
X7657819Y6023260D1*
X7655378Y6015640D1*
X7652763Y6008020D1*
X7650199Y6000400D1*
X7647758Y5992780D1*
X7645143Y5985160D1*
X7642579Y5977540D1*
X7640138Y5969920D1*
X7637551Y5962300D1*
X7635235Y5954680D1*
X7633646Y5947060D1*
X7632460Y5939440D1*
X8173480Y7135780D2*
X8173190Y7128160D1*
X8172213Y7120540D1*
X8170357Y7112920D1*
X8168135Y7105300D1*
X8165835Y7097680D1*
X8163273Y7090060D1*
X8160729Y7082440D1*
X8158295Y7074820D1*
X8155682Y7067200D1*
X8153118Y7059580D1*
X8150678Y7051960D1*
X8148063Y7044340D1*
X8145499Y7036720D1*
X8143058Y7029100D1*
X8140443Y7021480D1*
X8137879Y7013860D1*
X8135438Y7006240D1*
X8132823Y6998620D1*
X8130259Y6991000D1*
X8127818Y6983380D1*
X8125203Y6975760D1*
X8122639Y6968140D1*
X8120198Y6960520D1*
X8117583Y6952900D1*
X8115019Y6945280D1*
X8112578Y6937660D1*
X8109963Y6930040D1*
X8107399Y6922420D1*
X8104958Y6914800D1*
X8102343Y6907180D1*
X8099779Y6899560D1*
X8097338Y6891940D1*
X8094723Y6884320D1*
X8092159Y6876700D1*
X8089718Y6869080D1*
X8087133Y6861460D1*
X8084807Y6853840D1*
X8083069Y6846220D1*
X8081308Y6838600D1*
X8078872Y6830980D1*
X8075807Y6823360D1*
X8072570Y6815740D1*
X8069622Y6808120D1*
X8066992Y6800500D1*
X8064295Y6792880D1*
X8061697Y6785260D1*
X8059245Y6777640D1*
X8056655Y6770020D1*
X8054327Y6762400D1*
X8052590Y6754780D1*
X8050828Y6747160D1*
X8048392Y6739540D1*
X8045327Y6731920D1*
X8042090Y6724300D1*
X8039142Y6716680D1*
X8036512Y6709060D1*
X8033844Y6701440D1*
X8031485Y6693820D1*
X8029736Y6686200D1*
X8028000Y6678580D1*
X8025801Y6670960D1*
X8023439Y6663340D1*
X8021085Y6655720D1*
X8018504Y6648100D1*
X8015952Y6640480D1*
X8013486Y6632860D1*
X8010634Y6625240D1*
X8007367Y6617620D1*
X8004073Y6610000D1*
X8001329Y6602380D1*
X7999390Y6594760D1*
X7997542Y6587140D1*
X7995072Y6579520D1*
X7991994Y6571900D1*
X7988782Y6564280D1*
X7986071Y6556660D1*
X7984143Y6549040D1*
X7982329Y6541420D1*
X7980099Y6533800D1*
X7977725Y6526180D1*
X7975367Y6518560D1*
X7972784Y6510940D1*
X7970232Y6503320D1*
X7967796Y6495700D1*
X7965182Y6488080D1*
X7962619Y6480460D1*
X7960178Y6472840D1*
X7957563Y6465220D1*
X7954999Y6457600D1*
X7952558Y6449980D1*
X7949943Y6442360D1*
X7947379Y6434740D1*
X7944938Y6427120D1*
X7942323Y6419500D1*
X7939759Y6411880D1*
X7937318Y6404260D1*
X7934703Y6396640D1*
X7932139Y6389020D1*
X7929698Y6381400D1*
X7927083Y6373780D1*
X7924519Y6366160D1*
X7922078Y6358540D1*
X7919463Y6350920D1*
X7916899Y6343300D1*
X7914458Y6335680D1*
X7911843Y6328060D1*
X7909279Y6320440D1*
X7906838Y6312820D1*
X7904223Y6305200D1*
X7901659Y6297580D1*
X7899218Y6289960D1*
X7896603Y6282340D1*
X7894039Y6274720D1*
X7891598Y6267100D1*
X7888983Y6259480D1*
X7886419Y6251860D1*
X7883978Y6244240D1*
X7881363Y6236620D1*
X7878799Y6229000D1*
X7876358Y6221380D1*
X7873743Y6213760D1*
X7871179Y6206140D1*
X7868738Y6198520D1*
X7866123Y6190900D1*
X7863559Y6183280D1*
X7861118Y6175660D1*
X7858533Y6168040D1*
X7856207Y6160420D1*
X7854469Y6152800D1*
X7852708Y6145180D1*
X7850272Y6137560D1*
X7847207Y6129940D1*
X7843970Y6122320D1*
X7841022Y6114700D1*
X7838392Y6107080D1*
X7835695Y6099460D1*
X7833097Y6091840D1*
X7830645Y6084220D1*
X7828055Y6076600D1*
X7825727Y6068980D1*
X7823990Y6061360D1*
X7822258Y6053740D1*
X7820060Y6046120D1*
X7817698Y6038500D1*
X7815344Y6030880D1*
X7812764Y6023260D1*
X7810212Y6015640D1*
X7807776Y6008020D1*
X7805162Y6000400D1*
X7802599Y5992780D1*
X7800158Y5985160D1*
X7797573Y5977540D1*
X7795276Y5969920D1*
X7793801Y5962300D1*
X7792999Y5954680D1*
X7792480Y5947060D1*
X8653540Y7135780D2*
X8647418Y7128160D1*
X8642931Y7120540D1*
X8640112Y7112920D1*
X8637903Y7105300D1*
X8635513Y7097680D1*
X8633078Y7090060D1*
X8630698Y7082440D1*
X8628108Y7074820D1*
X8625553Y7067200D1*
X8623087Y7059580D1*
X8620235Y7051960D1*
X8616967Y7044340D1*
X8613673Y7036720D1*
X8610929Y7029100D1*
X8608990Y7021480D1*
X8607172Y7013860D1*
X8604940Y7006240D1*
X8602565Y6998620D1*
X8600207Y6991000D1*
X8597624Y6983380D1*
X8595072Y6975760D1*
X8592636Y6968140D1*
X8590022Y6960520D1*
X8587459Y6952900D1*
X8585018Y6945280D1*
X8582403Y6937660D1*
X8579839Y6930040D1*
X8577398Y6922420D1*
X8574783Y6914800D1*
X8572219Y6907180D1*
X8569778Y6899560D1*
X8567163Y6891940D1*
X8564599Y6884320D1*
X8562158Y6876700D1*
X8559543Y6869080D1*
X8556979Y6861460D1*
X8554538Y6853840D1*
X8551923Y6846220D1*
X8549359Y6838600D1*
X8546918Y6830980D1*
X8544303Y6823360D1*
X8541739Y6815740D1*
X8539298Y6808120D1*
X8536683Y6800500D1*
X8534119Y6792880D1*
X8531678Y6785260D1*
X8529063Y6777640D1*
X8526499Y6770020D1*
X8524058Y6762400D1*
X8521443Y6754780D1*
X8518879Y6747160D1*
X8516438Y6739540D1*
X8513823Y6731920D1*
X8511259Y6724300D1*
X8508818Y6716680D1*
X8506203Y6709060D1*
X8503639Y6701440D1*
X8501198Y6693820D1*
X8498613Y6686200D1*
X8496287Y6678580D1*
X8494549Y6670960D1*
X8492788Y6663340D1*
X8490352Y6655720D1*
X8487287Y6648100D1*
X8484079Y6640480D1*
X8481370Y6632860D1*
X8479443Y6625240D1*
X8477629Y6617620D1*
X8475399Y6610000D1*
X8473025Y6602380D1*
X8470667Y6594760D1*
X8468084Y6587140D1*
X8465532Y6579520D1*
X8463066Y6571900D1*
X8460214Y6564280D1*
X8456947Y6556660D1*
X8453653Y6549040D1*
X8450909Y6541420D1*
X8448970Y6533800D1*
X8447152Y6526180D1*
X8444920Y6518560D1*
X8442545Y6510940D1*
X8440187Y6503320D1*
X8437604Y6495700D1*
X8435052Y6488080D1*
X8432616Y6480460D1*
X8430002Y6472840D1*
X8427439Y6465220D1*
X8424998Y6457600D1*
X8422383Y6449980D1*
X8419819Y6442360D1*
X8417378Y6434740D1*
X8414763Y6427120D1*
X8412199Y6419500D1*
X8409758Y6411880D1*
X8407143Y6404260D1*
X8404579Y6396640D1*
X8402138Y6389020D1*
X8399523Y6381400D1*
X8396959Y6373780D1*
X8394518Y6366160D1*
X8391903Y6358540D1*
X8389339Y6350920D1*
X8386898Y6343300D1*
X8384283Y6335680D1*
X8381719Y6328060D1*
X8379278Y6320440D1*
X8376663Y6312820D1*
X8374099Y6305200D1*
X8371658Y6297580D1*
X8369043Y6289960D1*
X8366479Y6282340D1*
X8364038Y6274720D1*
X8361423Y6267100D1*
X8358859Y6259480D1*
X8356418Y6251860D1*
X8353803Y6244240D1*
X8351239Y6236620D1*
X8348798Y6229000D1*
X8346183Y6221380D1*
X8343619Y6213760D1*
X8341178Y6206140D1*
X8338593Y6198520D1*
X8336267Y6190900D1*
X8334529Y6183280D1*
X8332768Y6175660D1*
X8330332Y6168040D1*
X8327267Y6160420D1*
X8324059Y6152800D1*
X8321350Y6145180D1*
X8319423Y6137560D1*
X8317580Y6129940D1*
X8315111Y6122320D1*
X8312034Y6114700D1*
X8308822Y6107080D1*
X8306111Y6099460D1*
X8304183Y6091840D1*
X8302340Y6084220D1*
X8299871Y6076600D1*
X8296794Y6068980D1*
X8293582Y6061360D1*
X8290871Y6053740D1*
X8288943Y6046120D1*
X8287129Y6038500D1*
X8284899Y6030880D1*
X8282525Y6023260D1*
X8280167Y6015640D1*
X8277584Y6008020D1*
X8275032Y6000400D1*
X8272596Y5992780D1*
X8269982Y5985160D1*
X8267389Y5977540D1*
X8264652Y5969920D1*
X8260824Y5962300D1*
X8255595Y5954680D1*
X8249680Y5947060D1*
X10009900Y6808120D2*
X10002570Y6800500D1*
X9995957Y6792880D1*
X9990431Y6785260D1*
X9985766Y6777640D1*
X9981568Y6770020D1*
X9977609Y6762400D1*
X9973734Y6754780D1*
X9969879Y6747160D1*
X9965818Y6739540D1*
X9961278Y6731920D1*
X9956369Y6724300D1*
X9951704Y6716680D1*
X9947420Y6709060D1*
X9943377Y6701440D1*
X9939477Y6693820D1*
X9935623Y6686200D1*
X9931776Y6678580D1*
X9927717Y6670960D1*
X9923178Y6663340D1*
X9918269Y6655720D1*
X9913604Y6648100D1*
X9909320Y6640480D1*
X9905277Y6632860D1*
X9901377Y6625240D1*
X9897523Y6617620D1*
X9893676Y6610000D1*
X9889617Y6602380D1*
X9885078Y6594760D1*
X9880169Y6587140D1*
X9875504Y6579520D1*
X9871220Y6571900D1*
X9867177Y6564280D1*
X9863247Y6556660D1*
X9859155Y6549040D1*
X9854605Y6541420D1*
X9849692Y6533800D1*
X9845024Y6526180D1*
X9840740Y6518560D1*
X9836697Y6510940D1*
X9832797Y6503320D1*
X9828943Y6495700D1*
X9825096Y6488080D1*
X9821037Y6480460D1*
X9816498Y6472840D1*
X9811589Y6465220D1*
X9806924Y6457600D1*
X9802640Y6449980D1*
X9798597Y6442360D1*
X9794697Y6434740D1*
X9790843Y6427120D1*
X9786996Y6419500D1*
X9782937Y6411880D1*
X9778398Y6404260D1*
X9773489Y6396640D1*
X9768824Y6389020D1*
X9764540Y6381400D1*
X9760497Y6373780D1*
X9756567Y6366160D1*
X9752475Y6358540D1*
X9747925Y6350920D1*
X9743012Y6343300D1*
X9738344Y6335680D1*
X9734060Y6328060D1*
X9730017Y6320440D1*
X9726117Y6312820D1*
X9722263Y6305200D1*
X9718416Y6297580D1*
X9714357Y6289960D1*
X9709818Y6282340D1*
X9704909Y6274720D1*
X9700244Y6267100D1*
X9695960Y6259480D1*
X9691917Y6251860D1*
X9688017Y6244240D1*
X9684163Y6236620D1*
X9680316Y6229000D1*
X9676257Y6221380D1*
X9671718Y6213760D1*
X9666809Y6206140D1*
X9662144Y6198520D1*
X9657860Y6190900D1*
X9653817Y6183280D1*
X9649887Y6175660D1*
X9645795Y6168040D1*
X9641245Y6160420D1*
X9636332Y6152800D1*
X9631664Y6145180D1*
X9627380Y6137560D1*
X9623337Y6129940D1*
X9619437Y6122320D1*
X9615583Y6114700D1*
X9611736Y6107080D1*
X9607677Y6099460D1*
X9603138Y6091840D1*
X9598229Y6084220D1*
X9593564Y6076600D1*
X9589280Y6068980D1*
X9585237Y6061360D1*
X9581337Y6053740D1*
X9577483Y6046120D1*
X9573636Y6038500D1*
X9569577Y6030880D1*
X9565038Y6023260D1*
X9560129Y6015640D1*
X9555464Y6008020D1*
X9551180Y6000400D1*
X9547137Y5992780D1*
X9543207Y5985160D1*
X9539115Y5977540D1*
X9534565Y5969920D1*
X9529652Y5962300D1*
X9524984Y5954680D1*
X9520700Y5947060D1*
X9516657Y5939440D1*
X9512757Y5931820D1*
X9508927Y5924200D1*
X9505307Y5916580D1*
X9502128Y5908960D1*
X9499360Y5901340D1*
X10246120Y6808120D2*
X10244942Y6800500D1*
X10243023Y6792880D1*
X10240783Y6785260D1*
X10238477Y6777640D1*
X10235914Y6770020D1*
X10233369Y6762400D1*
X10230935Y6754780D1*
X10228322Y6747160D1*
X10225758Y6739540D1*
X10223318Y6731920D1*
X10220703Y6724300D1*
X10218139Y6716680D1*
X10215698Y6709060D1*
X10213083Y6701440D1*
X10210519Y6693820D1*
X10208078Y6686200D1*
X10205463Y6678580D1*
X10202899Y6670960D1*
X10200458Y6663340D1*
X10197873Y6655720D1*
X10195547Y6648100D1*
X10193809Y6640480D1*
X10192078Y6632860D1*
X10189880Y6625240D1*
X10187518Y6617620D1*
X10185164Y6610000D1*
X10182584Y6602380D1*
X10180032Y6594760D1*
X10177566Y6587140D1*
X10174714Y6579520D1*
X10171447Y6571900D1*
X10168153Y6564280D1*
X10165409Y6556660D1*
X10163470Y6549040D1*
X10161652Y6541420D1*
X10159420Y6533800D1*
X10157045Y6526180D1*
X10154687Y6518560D1*
X10152104Y6510940D1*
X10149552Y6503320D1*
X10147116Y6495700D1*
X10144502Y6488080D1*
X10141939Y6480460D1*
X10139498Y6472840D1*
X10136883Y6465220D1*
X10134319Y6457600D1*
X10131878Y6449980D1*
X10129263Y6442360D1*
X10126699Y6434740D1*
X10124258Y6427120D1*
X10121643Y6419500D1*
X10119079Y6411880D1*
X10116638Y6404260D1*
X10114023Y6396640D1*
X10111459Y6389020D1*
X10109018Y6381400D1*
X10106403Y6373780D1*
X10103839Y6366160D1*
X10101398Y6358540D1*
X10098783Y6350920D1*
X10096219Y6343300D1*
X10093778Y6335680D1*
X10091193Y6328060D1*
X10088867Y6320440D1*
X10087129Y6312820D1*
X10085368Y6305200D1*
X10082932Y6297580D1*
X10079867Y6289960D1*
X10076659Y6282340D1*
X10073950Y6274720D1*
X10072023Y6267100D1*
X10070180Y6259480D1*
X10067711Y6251860D1*
X10064634Y6244240D1*
X10061422Y6236620D1*
X10058711Y6229000D1*
X10056783Y6221380D1*
X10054940Y6213760D1*
X10052471Y6206140D1*
X10049394Y6198520D1*
X10046182Y6190900D1*
X10043471Y6183280D1*
X10041543Y6175660D1*
X10039729Y6168040D1*
X10037499Y6160420D1*
X10035125Y6152800D1*
X10032767Y6145180D1*
X10030184Y6137560D1*
X10027632Y6129940D1*
X10025196Y6122320D1*
X10022582Y6114700D1*
X10020019Y6107080D1*
X10017578Y6099460D1*
X10014963Y6091840D1*
X10012399Y6084220D1*
X10009958Y6076600D1*
X10007343Y6068980D1*
X10004779Y6061360D1*
X10002338Y6053740D1*
X9999723Y6046120D1*
X9997159Y6038500D1*
X9994718Y6030880D1*
X9992103Y6023260D1*
X9989539Y6015640D1*
X9987098Y6008020D1*
X9984483Y6000400D1*
X9981919Y5992780D1*
X9979478Y5985160D1*
X9976863Y5977540D1*
X9974299Y5969920D1*
X9971858Y5962300D1*
X9969243Y5954680D1*
X9966679Y5947060D1*
X9964238Y5939440D1*
X9961623Y5931820D1*
X9959059Y5924200D1*
X9956613Y5916580D1*
X9953961Y5908960D1*
X9951337Y5901340D1*
X9948940Y5893720D1*
X10619500Y6808120D2*
X10613348Y6800500D1*
X10608623Y6792880D1*
X10605100Y6785260D1*
X10602008Y6777640D1*
X10599251Y6770020D1*
X10596738Y6762400D1*
X10594097Y6754780D1*
X10591523Y6747160D1*
X10589080Y6739540D1*
X10586464Y6731920D1*
X10583899Y6724300D1*
X10581458Y6716680D1*
X10578843Y6709060D1*
X10576279Y6701440D1*
X10573838Y6693820D1*
X10571223Y6686200D1*
X10568659Y6678580D1*
X10566218Y6670960D1*
X10563603Y6663340D1*
X10561039Y6655720D1*
X10558598Y6648100D1*
X10555983Y6640480D1*
X10553419Y6632860D1*
X10550978Y6625240D1*
X10548363Y6617620D1*
X10545799Y6610000D1*
X10543358Y6602380D1*
X10540743Y6594760D1*
X10538179Y6587140D1*
X10535738Y6579520D1*
X10533123Y6571900D1*
X10530559Y6564280D1*
X10528118Y6556660D1*
X10525503Y6549040D1*
X10522939Y6541420D1*
X10520498Y6533800D1*
X10517883Y6526180D1*
X10515319Y6518560D1*
X10512878Y6510940D1*
X10510263Y6503320D1*
X10507699Y6495700D1*
X10505258Y6488080D1*
X10502643Y6480460D1*
X10500079Y6472840D1*
X10497638Y6465220D1*
X10495023Y6457600D1*
X10492459Y6449980D1*
X10490018Y6442360D1*
X10487403Y6434740D1*
X10484839Y6427120D1*
X10482398Y6419500D1*
X10479783Y6411880D1*
X10477219Y6404260D1*
X10474778Y6396640D1*
X10472163Y6389020D1*
X10469599Y6381400D1*
X10467158Y6373780D1*
X10464543Y6366160D1*
X10461979Y6358540D1*
X10459538Y6350920D1*
X10456923Y6343300D1*
X10454359Y6335680D1*
X10451918Y6328060D1*
X10449333Y6320440D1*
X10447007Y6312820D1*
X10445269Y6305200D1*
X10443508Y6297580D1*
X10441072Y6289960D1*
X10438007Y6282340D1*
X10434770Y6274720D1*
X10431822Y6267100D1*
X10429192Y6259480D1*
X10426495Y6251860D1*
X10423897Y6244240D1*
X10421445Y6236620D1*
X10418855Y6229000D1*
X10416527Y6221380D1*
X10414790Y6213760D1*
X10413028Y6206140D1*
X10410592Y6198520D1*
X10407527Y6190900D1*
X10404290Y6183280D1*
X10401342Y6175660D1*
X10398712Y6168040D1*
X10396044Y6160420D1*
X10393685Y6152800D1*
X10391936Y6145180D1*
X10390170Y6137560D1*
X10387733Y6129940D1*
X10384667Y6122320D1*
X10381460Y6114700D1*
X10378750Y6107080D1*
X10376823Y6099460D1*
X10374980Y6091840D1*
X10372511Y6084220D1*
X10369434Y6076600D1*
X10366192Y6068980D1*
X10363243Y6061360D1*
X10360612Y6053740D1*
X10357915Y6046120D1*
X10355318Y6038500D1*
X10352865Y6030880D1*
X10350275Y6023260D1*
X10347947Y6015640D1*
X10346210Y6008020D1*
X10344478Y6000400D1*
X10342280Y5992780D1*
X10339918Y5985160D1*
X10337535Y5977540D1*
X10334716Y5969920D1*
X10331461Y5962300D1*
X10328171Y5954680D1*
X10325429Y5947060D1*
X10323490Y5939440D1*
X10321642Y5931820D1*
X10319172Y5924200D1*
X10316088Y5916580D1*
X10312806Y5908960D1*
X10309770Y5901340D1*
X10307080Y5893720D1*
X10870960Y6808120D2*
X10869782Y6800500D1*
X10867893Y6792880D1*
X10865891Y6785260D1*
X10864288Y6777640D1*
X10862609Y6770020D1*
X10860430Y6762400D1*
X10858075Y6754780D1*
X10855723Y6747160D1*
X10853143Y6739540D1*
X10850592Y6731920D1*
X10848156Y6724300D1*
X10845542Y6716680D1*
X10842978Y6709060D1*
X10840538Y6701440D1*
X10837923Y6693820D1*
X10835359Y6686200D1*
X10832918Y6678580D1*
X10830303Y6670960D1*
X10827739Y6663340D1*
X10825298Y6655720D1*
X10822683Y6648100D1*
X10820119Y6640480D1*
X10817678Y6632860D1*
X10815063Y6625240D1*
X10812499Y6617620D1*
X10810058Y6610000D1*
X10807443Y6602380D1*
X10804879Y6594760D1*
X10802438Y6587140D1*
X10799823Y6579520D1*
X10797259Y6571900D1*
X10794818Y6564280D1*
X10792203Y6556660D1*
X10789639Y6549040D1*
X10787198Y6541420D1*
X10784583Y6533800D1*
X10782019Y6526180D1*
X10779578Y6518560D1*
X10776963Y6510940D1*
X10774399Y6503320D1*
X10771958Y6495700D1*
X10769343Y6488080D1*
X10766779Y6480460D1*
X10764338Y6472840D1*
X10761723Y6465220D1*
X10759159Y6457600D1*
X10756718Y6449980D1*
X10754133Y6442360D1*
X10751807Y6434740D1*
X10750069Y6427120D1*
X10748308Y6419500D1*
X10745872Y6411880D1*
X10742807Y6404260D1*
X10739599Y6396640D1*
X10736890Y6389020D1*
X10734963Y6381400D1*
X10733120Y6373780D1*
X10730651Y6366160D1*
X10727574Y6358540D1*
X10724362Y6350920D1*
X10721651Y6343300D1*
X10719723Y6335680D1*
X10717909Y6328060D1*
X10715679Y6320440D1*
X10713305Y6312820D1*
X10710947Y6305200D1*
X10708364Y6297580D1*
X10705812Y6289960D1*
X10703376Y6282340D1*
X10700762Y6274720D1*
X10698199Y6267100D1*
X10695758Y6259480D1*
X10693143Y6251860D1*
X10690579Y6244240D1*
X10688138Y6236620D1*
X10685523Y6229000D1*
X10682959Y6221380D1*
X10680518Y6213760D1*
X10677903Y6206140D1*
X10675339Y6198520D1*
X10672898Y6190900D1*
X10670283Y6183280D1*
X10667719Y6175660D1*
X10665278Y6168040D1*
X10662663Y6160420D1*
X10660099Y6152800D1*
X10657658Y6145180D1*
X10655043Y6137560D1*
X10652479Y6129940D1*
X10650038Y6122320D1*
X10647423Y6114700D1*
X10644859Y6107080D1*
X10642418Y6099460D1*
X10639803Y6091840D1*
X10637239Y6084220D1*
X10634798Y6076600D1*
X10632213Y6068980D1*
X10629887Y6061360D1*
X10628149Y6053740D1*
X10626388Y6046120D1*
X10623952Y6038500D1*
X10620887Y6030880D1*
X10617679Y6023260D1*
X10614970Y6015640D1*
X10613043Y6008020D1*
X10611229Y6000400D1*
X10608999Y5992780D1*
X10606625Y5985160D1*
X10604267Y5977540D1*
X10601684Y5969920D1*
X10599132Y5962300D1*
X10596696Y5954680D1*
X10594082Y5947060D1*
X10591519Y5939440D1*
X10589078Y5931820D1*
X10586493Y5924200D1*
X10584196Y5916580D1*
X10582721Y5908960D1*
X10581919Y5901340D1*
X10581400Y5893720D1*
X11183380Y6663340D2*
X11183350Y6655720D1*
X11183082Y6648100D1*
X11182081Y6640480D1*
X11179989Y6632860D1*
X11177064Y6625240D1*
X11173910Y6617620D1*
X11171220Y6610000D1*
X11169300Y6602380D1*
X11167488Y6594760D1*
X11165259Y6587140D1*
X11162885Y6579520D1*
X11160527Y6571900D1*
X11157944Y6564280D1*
X11155392Y6556660D1*
X11152956Y6549040D1*
X11150342Y6541420D1*
X11147779Y6533800D1*
X11145338Y6526180D1*
X11142723Y6518560D1*
X11140159Y6510940D1*
X11137718Y6503320D1*
X11135103Y6495700D1*
X11132539Y6488080D1*
X11130098Y6480460D1*
X11127483Y6472840D1*
X11124919Y6465220D1*
X11122478Y6457600D1*
X11119863Y6449980D1*
X11117299Y6442360D1*
X11114858Y6434740D1*
X11112243Y6427120D1*
X11109679Y6419500D1*
X11107238Y6411880D1*
X11104623Y6404260D1*
X11102059Y6396640D1*
X11099618Y6389020D1*
X11097003Y6381400D1*
X11094439Y6373780D1*
X11091998Y6366160D1*
X11089383Y6358540D1*
X11086819Y6350920D1*
X11084378Y6343300D1*
X11081763Y6335680D1*
X11079199Y6328060D1*
X11076758Y6320440D1*
X11074173Y6312820D1*
X11071847Y6305200D1*
X11070109Y6297580D1*
X11068348Y6289960D1*
X11065912Y6282340D1*
X11062847Y6274720D1*
X11059639Y6267100D1*
X11056930Y6259480D1*
X11055003Y6251860D1*
X11053189Y6244240D1*
X11050959Y6236620D1*
X11048585Y6229000D1*
X11046227Y6221380D1*
X11043644Y6213760D1*
X11041092Y6206140D1*
X11038656Y6198520D1*
X11036042Y6190900D1*
X11033479Y6183280D1*
X11031038Y6175660D1*
X11028423Y6168040D1*
X11025859Y6160420D1*
X11023418Y6152800D1*
X11020803Y6145180D1*
X11018239Y6137560D1*
X11015798Y6129940D1*
X11013183Y6122320D1*
X11010619Y6114700D1*
X11008178Y6107080D1*
X11005563Y6099460D1*
X11002999Y6091840D1*
X11000558Y6084220D1*
X10997943Y6076600D1*
X10995379Y6068980D1*
X10992938Y6061360D1*
X10990323Y6053740D1*
X10987759Y6046120D1*
X10985318Y6038500D1*
X10982703Y6030880D1*
X10980139Y6023260D1*
X10977698Y6015640D1*
X10975083Y6008020D1*
X10972519Y6000400D1*
X10970078Y5992780D1*
X10967493Y5985160D1*
X10965167Y5977540D1*
X10963429Y5969920D1*
X10961668Y5962300D1*
X10959232Y5954680D1*
X10956167Y5947060D1*
X10952959Y5939440D1*
X10950250Y5931820D1*
X10948323Y5924200D1*
X10946504Y5916580D1*
X10944239Y5908960D1*
X10941813Y5901340D1*
X10939540Y5893720D1*
X11206240Y6663340D2*
X11207418Y6655720D1*
X11209337Y6648100D1*
X11211577Y6640480D1*
X11213883Y6632860D1*
X11216446Y6625240D1*
X11218991Y6617620D1*
X11221455Y6610000D1*
X11224306Y6602380D1*
X11227602Y6594760D1*
X11231165Y6587140D1*
X11234850Y6579520D1*
X11238376Y6571900D1*
X11241445Y6564280D1*
X11244152Y6556660D1*
X11247104Y6549040D1*
X11250440Y6541420D1*
X11254017Y6533800D1*
X11257707Y6526180D1*
X11261235Y6518560D1*
X11264305Y6510940D1*
X11266982Y6503320D1*
X11269696Y6495700D1*
X11272299Y6488080D1*
X11274784Y6480460D1*
X11277642Y6472840D1*
X11280941Y6465220D1*
X11284504Y6457600D1*
X11288219Y6449980D1*
X11291984Y6442360D1*
X11295756Y6434740D1*
X11299317Y6427120D1*
X11302398Y6419500D1*
X11305085Y6411880D1*
X11307837Y6404260D1*
X11310502Y6396640D1*
X11312920Y6389020D1*
X11640580Y6663340D2*
X11631782Y6655720D1*
X11622273Y6648100D1*
X11612680Y6640480D1*
X11603696Y6632860D1*
X11595100Y6625240D1*
X11586185Y6617620D1*
X11576606Y6610000D1*
X11566981Y6602380D1*
X11558013Y6594760D1*
X11549680Y6587140D1*
X11541705Y6579520D1*
X11533683Y6571900D1*
X11525040Y6564280D1*
X11515576Y6556660D1*
X11505996Y6549040D1*
X11497015Y6541420D1*
X11488420Y6533800D1*
X11479505Y6526180D1*
X11469926Y6518560D1*
X11460301Y6510940D1*
X11451333Y6503320D1*
X11443000Y6495700D1*
X11435025Y6488080D1*
X11427003Y6480460D1*
X11418360Y6472840D1*
X11408896Y6465220D1*
X11399316Y6457600D1*
X11390365Y6449980D1*
X11382007Y6442360D1*
X11373796Y6434740D1*
X11365071Y6427120D1*
X11355575Y6419500D1*
X11345982Y6411880D1*
X11337021Y6404260D1*
X11328652Y6396640D1*
X11320540Y6389020D1*
X11655820Y6663340D2*
X11649407Y6655720D1*
X11643974Y6648100D1*
X11639596Y6640480D1*
X11636374Y6632860D1*
X11634242Y6625240D1*
X11632351Y6617620D1*
X11630093Y6610000D1*
X11627710Y6602380D1*
X11625348Y6594760D1*
X11622765Y6587140D1*
X11620212Y6579520D1*
X11617776Y6571900D1*
X11615162Y6564280D1*
X11612599Y6556660D1*
X11610128Y6549040D1*
X11607275Y6541420D1*
X11604008Y6533800D1*
X11600713Y6526180D1*
X11597969Y6518560D1*
X11596030Y6510940D1*
X11594182Y6503320D1*
X11591712Y6495700D1*
X11588634Y6488080D1*
X11585392Y6480460D1*
X11582443Y6472840D1*
X11579812Y6465220D1*
X11577144Y6457600D1*
X11574785Y6449980D1*
X11573036Y6442360D1*
X11571270Y6434740D1*
X11568833Y6427120D1*
X11565767Y6419500D1*
X11562560Y6411880D1*
X11559850Y6404260D1*
X11557923Y6396640D1*
X11556080Y6389020D1*
X11553611Y6381400D1*
X11550534Y6373780D1*
X11547292Y6366160D1*
X11544343Y6358540D1*
X11541712Y6350920D1*
X11539044Y6343300D1*
X11536685Y6335680D1*
X11534936Y6328060D1*
X11533170Y6320440D1*
X11530733Y6312820D1*
X11527667Y6305200D1*
X11524430Y6297580D1*
X11521482Y6289960D1*
X11518852Y6282340D1*
X11516155Y6274720D1*
X11513557Y6267100D1*
X11511105Y6259480D1*
X11508485Y6251860D1*
X11505919Y6244240D1*
X11503478Y6236620D1*
X11500863Y6229000D1*
X11498299Y6221380D1*
X11495858Y6213760D1*
X11493243Y6206140D1*
X11490679Y6198520D1*
X11488238Y6190900D1*
X11485653Y6183280D1*
X11483327Y6175660D1*
X11481589Y6168040D1*
X11479828Y6160420D1*
X11477392Y6152800D1*
X11474327Y6145180D1*
X11471090Y6137560D1*
X11468142Y6129940D1*
X11465512Y6122320D1*
X11462815Y6114700D1*
X11460217Y6107080D1*
X11457765Y6099460D1*
X11455145Y6091840D1*
X11452579Y6084220D1*
X11450138Y6076600D1*
X11447523Y6068980D1*
X11444959Y6061360D1*
X11442518Y6053740D1*
X11439903Y6046120D1*
X11437339Y6038500D1*
X11434898Y6030880D1*
X11432283Y6023260D1*
X11429719Y6015640D1*
X11427278Y6008020D1*
X11424663Y6000400D1*
X11422099Y5992780D1*
X11419658Y5985160D1*
X11417043Y5977540D1*
X11414479Y5969920D1*
X11412038Y5962300D1*
X11409423Y5954680D1*
X11406859Y5947060D1*
X11404418Y5939440D1*
X11401803Y5931820D1*
X11399239Y5924200D1*
X11396793Y5916580D1*
X11394141Y5908960D1*
X11391517Y5901340D1*
X11389120Y5893720D1*
X8630680Y5901340D2*
X8638300Y5893720D1*
X8684020Y5901340D2*
X8691640Y5893720D1*
X9171700Y5840380D2*
X9149745Y5832760D1*
X9131402Y5825140D1*
X9117072Y5817520D1*
X9106166Y5809900D1*
X9097876Y5802280D1*
X9091423Y5794660D1*
X9085757Y5787040D1*
X9080368Y5779420D1*
X9075512Y5771800D1*
X9071158Y5764180D1*
X9067119Y5756560D1*
X9063449Y5748940D1*
X9060325Y5741320D1*
X9057629Y5733700D1*
X9054937Y5726080D1*
X9052599Y5718460D1*
X9051115Y5710840D1*
X9050349Y5703220D1*
X9050005Y5695600D1*
X9049864Y5687980D1*
X9049810Y5680360D1*
X9049790Y5672740D1*
X9049783Y5665120D1*
X9049781Y5657500D1*
X9049780Y5649880D1*
Y5642260D1*
X9049810Y5634640D1*
X9050078Y5627020D1*
X9051049Y5619400D1*
X9052904Y5611780D1*
X9055155Y5604160D1*
X9057753Y5596540D1*
X9061553Y5588920D1*
X9066954Y5581300D1*
X9073761Y5573680D1*
X9082163Y5566060D1*
X9092654Y5558440D1*
X9105072Y5550820D1*
X9118360Y5543200D1*
X9209800Y5840380D2*
X9229120Y5832760D1*
X9244927Y5825140D1*
X9256871Y5817520D1*
X9265444Y5809900D1*
X9272118Y5802280D1*
X9277720Y5794660D1*
X9282022Y5787040D1*
X9285322Y5779420D1*
X9288286Y5771800D1*
X9290734Y5764180D1*
X9292261Y5756560D1*
X9293043Y5748940D1*
X9293393Y5741320D1*
X9293535Y5733700D1*
X9293590Y5726080D1*
X9293610Y5718460D1*
X9293617Y5710840D1*
X9293619Y5703220D1*
X9293590Y5695600D1*
X9293322Y5687980D1*
X9292351Y5680360D1*
X9290526Y5672740D1*
X9288543Y5665120D1*
X9286946Y5657500D1*
X9285238Y5649880D1*
X9282822Y5642260D1*
X9279734Y5634640D1*
X9276261Y5627020D1*
X9272581Y5619400D1*
X9268799Y5611780D1*
X9264734Y5604160D1*
X9259936Y5596540D1*
X9254029Y5588920D1*
X9247242Y5581300D1*
X9239677Y5573680D1*
X9230655Y5566060D1*
X9218849Y5558440D1*
X9203773Y5550820D1*
X9186940Y5543200D1*
X11076700Y5840380D2*
X11057380Y5832760D1*
X11041573Y5825140D1*
X11029629Y5817520D1*
X11021056Y5809900D1*
X11014382Y5802280D1*
X11008810Y5794660D1*
X11004775Y5787040D1*
X11002446Y5779420D1*
X11001308Y5771800D1*
X11000813Y5764180D1*
X11000615Y5756560D1*
X11000540Y5748940D1*
X11000544Y5741320D1*
X11000832Y5733700D1*
X11002098Y5726080D1*
X11005190Y5718460D1*
X11010238Y5710840D1*
X11016644Y5703220D1*
X11023995Y5695600D1*
X11032402Y5687980D1*
X11042035Y5680360D1*
X11052551Y5672740D1*
X11063285Y5665120D1*
X11073265Y5657500D1*
X11081267Y5649880D1*
X11087537Y5642260D1*
X11089516Y5634640D1*
X11090379Y5627020D1*
X11088019Y5619400D1*
X11083788Y5611780D1*
X11077189Y5604160D1*
X11069080Y5596540D1*
X11114800Y5840380D2*
X11135257Y5832760D1*
X11150407Y5825140D1*
X11161336Y5817520D1*
X11164644Y5809900D1*
X11163921Y5802280D1*
X11162317Y5794660D1*
X11160087Y5787040D1*
X11156850Y5779420D1*
X11152900Y5771800D1*
X8859280Y5832760D2*
X8855763Y5825140D1*
X8853574Y5817520D1*
X8852437Y5809900D1*
X8851678Y5802280D1*
X8850508Y5794660D1*
X8848607Y5787040D1*
X8846597Y5779420D1*
X8844991Y5771800D1*
X8843310Y5764180D1*
X8841160Y5756560D1*
X8839073Y5748940D1*
X8837662Y5741320D1*
X8836669Y5733700D1*
X8835368Y5726080D1*
X8833407Y5718460D1*
X8831372Y5710840D1*
X8829756Y5703220D1*
X8828071Y5695600D1*
X8825921Y5687980D1*
X8823833Y5680360D1*
X8822422Y5672740D1*
X8821429Y5665120D1*
X8820128Y5657500D1*
X8818167Y5649880D1*
X8816132Y5642260D1*
X8814516Y5634640D1*
X8812831Y5627020D1*
X8810681Y5619400D1*
X8808593Y5611780D1*
X8807212Y5604160D1*
X8806457Y5596540D1*
X8805859Y5588920D1*
X8804752Y5581300D1*
X8802874Y5573680D1*
X8800882Y5566060D1*
X8799431Y5558440D1*
X8798320Y5550820D1*
X9011680Y5832760D2*
X9010502Y5825140D1*
X9008613Y5817520D1*
X9006640Y5809900D1*
X9005300Y5802280D1*
X9004552Y5794660D1*
X9004060Y5787040D1*
X9423160Y5832760D2*
X9419643Y5825140D1*
X9417424Y5817520D1*
X9416049Y5809900D1*
X9414587Y5802280D1*
X9412563Y5794660D1*
X9410534Y5787040D1*
X9409148Y5779420D1*
X9408164Y5771800D1*
X9406866Y5764180D1*
X9404907Y5756560D1*
X9402871Y5748940D1*
X9401256Y5741320D1*
X9399571Y5733700D1*
X9397421Y5726080D1*
X9395333Y5718460D1*
X9393922Y5710840D1*
X9392929Y5703220D1*
X9391628Y5695600D1*
X9389667Y5687980D1*
X9387632Y5680360D1*
X9386016Y5672740D1*
X9384331Y5665120D1*
X9382181Y5657500D1*
X9380093Y5649880D1*
X9378682Y5642260D1*
X9377689Y5634640D1*
X9376388Y5627020D1*
X9374427Y5619400D1*
X9372421Y5611780D1*
X9371073Y5604160D1*
X9370330Y5596540D1*
X9369737Y5588920D1*
X9368632Y5581300D1*
X9366754Y5573680D1*
X9364762Y5566060D1*
X9363311Y5558440D1*
X9362200Y5550820D1*
X9522220Y5832760D2*
X9536845Y5825140D1*
X9548574Y5817520D1*
X9557408Y5809900D1*
X9563888Y5802280D1*
X9568683Y5794660D1*
X9572031Y5787040D1*
X9573951Y5779420D1*
X9574890Y5771800D1*
X9575300Y5764180D1*
X9575464Y5756560D1*
X9575497Y5748940D1*
X9575251Y5741320D1*
X9574258Y5733700D1*
X9572167Y5726080D1*
X9569214Y5718460D1*
X9565732Y5710840D1*
X9561536Y5703220D1*
X9555789Y5695600D1*
X9547838Y5687980D1*
X9538489Y5680360D1*
X9529636Y5672740D1*
X9522207Y5665120D1*
X9520256Y5657500D1*
X9521173Y5649880D1*
X9522788Y5642260D1*
X9525271Y5634640D1*
X9528393Y5627020D1*
X9531664Y5619400D1*
X9534628Y5611780D1*
X9537264Y5604160D1*
X9539964Y5596540D1*
X9542562Y5588920D1*
X9545015Y5581300D1*
X9547606Y5573680D1*
X9549924Y5566060D1*
X9551514Y5558440D1*
X9552700Y5550820D1*
X9689860Y5832760D2*
X9689570Y5825140D1*
X9688593Y5817520D1*
X9686767Y5809900D1*
X9684813Y5802280D1*
X9683454Y5794660D1*
X9682479Y5787040D1*
X9681185Y5779420D1*
X9679226Y5771800D1*
X9677221Y5764180D1*
X9675844Y5756560D1*
X9674863Y5748940D1*
X9673566Y5741320D1*
X9671607Y5733700D1*
X9669571Y5726080D1*
X9667956Y5718460D1*
X9666271Y5710840D1*
X9664121Y5703220D1*
X9662033Y5695600D1*
X9660622Y5687980D1*
X9659629Y5680360D1*
X9658328Y5672740D1*
X9656367Y5665120D1*
X9654361Y5657500D1*
X9652984Y5649880D1*
X9652003Y5642260D1*
X9650706Y5634640D1*
X9648747Y5627020D1*
X9646741Y5619400D1*
X9645364Y5611780D1*
X9644383Y5604160D1*
X9643086Y5596540D1*
X9641127Y5588920D1*
X9639091Y5581300D1*
X9637453Y5573680D1*
X9635561Y5566060D1*
X9632617Y5558440D1*
X9628900Y5550820D1*
X9750820Y5832760D2*
X9751110Y5825140D1*
X9752087Y5817520D1*
X9753913Y5809900D1*
X9755867Y5802280D1*
X9757196Y5794660D1*
X9757903Y5787040D1*
X9758256Y5779420D1*
X9758658Y5771800D1*
X9759680Y5764180D1*
X9761524Y5756560D1*
X9763484Y5748940D1*
X9764815Y5741320D1*
X9765523Y5733700D1*
X9765846Y5726080D1*
X9765980Y5718460D1*
X9766061Y5710840D1*
X9766348Y5703220D1*
X9767325Y5695600D1*
X9769153Y5687980D1*
X9771107Y5680360D1*
X9772436Y5672740D1*
X9773145Y5665120D1*
X9773481Y5657500D1*
X9773680Y5649880D1*
X9887980Y5832760D2*
X9884168Y5825140D1*
X9879743Y5817520D1*
X9875324Y5809900D1*
X9871150Y5802280D1*
X9867151Y5794660D1*
X9863238Y5787040D1*
X9859152Y5779420D1*
X9854604Y5771800D1*
X9849691Y5764180D1*
X9845024Y5756560D1*
X9840740Y5748940D1*
X9836697Y5741320D1*
X9832797Y5733700D1*
X9828943Y5726080D1*
X9825125Y5718460D1*
X9821304Y5710840D1*
X9817499Y5703220D1*
X9813682Y5695600D1*
X9809848Y5687980D1*
X9805794Y5680360D1*
X9801280Y5672740D1*
X9796555Y5665120D1*
X9792445Y5657500D1*
X9788920Y5649880D1*
X9956560Y5832760D2*
X9953043Y5825140D1*
X9950854Y5817520D1*
X9949717Y5809900D1*
X9948958Y5802280D1*
X9947788Y5794660D1*
X9945887Y5787040D1*
X9943877Y5779420D1*
X9942271Y5771800D1*
X9940590Y5764180D1*
X9938440Y5756560D1*
X9936353Y5748940D1*
X9934942Y5741320D1*
X9933949Y5733700D1*
X9932648Y5726080D1*
X9930687Y5718460D1*
X9928681Y5710840D1*
X9927304Y5703220D1*
X9926323Y5695600D1*
X9925026Y5687980D1*
X9923067Y5680360D1*
X9921061Y5672740D1*
X9919684Y5665120D1*
X9918703Y5657500D1*
X9917406Y5649880D1*
X9915447Y5642260D1*
X9913441Y5634640D1*
X9912064Y5627020D1*
X9911083Y5619400D1*
X9909786Y5611780D1*
X9907827Y5604160D1*
X9905791Y5596540D1*
X9904176Y5588920D1*
X9902491Y5581300D1*
X9900340Y5573680D1*
X9898232Y5566060D1*
X9896735Y5558440D1*
X9895600Y5550820D1*
X10063240Y5832760D2*
X10059723Y5825140D1*
X10057504Y5817520D1*
X10056129Y5809900D1*
X10054667Y5802280D1*
X10052643Y5794660D1*
X10050584Y5787040D1*
X10048960Y5779420D1*
X10047273Y5771800D1*
X10045121Y5764180D1*
X10043033Y5756560D1*
X10041622Y5748940D1*
X10040629Y5741320D1*
X10039328Y5733700D1*
X10037367Y5726080D1*
X10035361Y5718460D1*
X10033984Y5710840D1*
X10033003Y5703220D1*
X10031706Y5695600D1*
X10029747Y5687980D1*
X10027741Y5680360D1*
X10026364Y5672740D1*
X10025383Y5665120D1*
X10024086Y5657500D1*
X10022127Y5649880D1*
X10020121Y5642260D1*
X10018803Y5634640D1*
X10018358Y5627020D1*
X10019004Y5619400D1*
X10020724Y5611780D1*
X10022894Y5604160D1*
X10025205Y5596540D1*
X10028028Y5588920D1*
X10031571Y5581300D1*
X10036186Y5573680D1*
X10042572Y5566060D1*
X10051644Y5558440D1*
X10064062Y5550820D1*
X10078480Y5543200D1*
X10108960Y5832760D2*
X10107782Y5825140D1*
X10105893Y5817520D1*
X10103920Y5809900D1*
X10102556Y5802280D1*
X10101580Y5794660D1*
X10100285Y5787040D1*
X10098326Y5779420D1*
X10096321Y5771800D1*
X10094944Y5764180D1*
X10093963Y5756560D1*
X10092666Y5748940D1*
X10090707Y5741320D1*
X10088701Y5733700D1*
X10087324Y5726080D1*
X10086343Y5718460D1*
X10085046Y5710840D1*
X10083087Y5703220D1*
X10081051Y5695600D1*
X10079436Y5687980D1*
X10077751Y5680360D1*
X10075601Y5672740D1*
X10073513Y5665120D1*
X10072132Y5657500D1*
X10071407Y5649880D1*
X10071077Y5642260D1*
X10070971Y5634640D1*
X10071216Y5627020D1*
X10072464Y5619400D1*
X10075524Y5611780D1*
X10080395Y5604160D1*
X10086100Y5596540D1*
X10215640Y5832760D2*
X10215610Y5825140D1*
X10215342Y5817520D1*
X10214371Y5809900D1*
X10212546Y5802280D1*
X10210593Y5794660D1*
X10209234Y5787040D1*
X10208259Y5779420D1*
X10206965Y5771800D1*
X10205006Y5764180D1*
X10203001Y5756560D1*
X10201624Y5748940D1*
X10200643Y5741320D1*
X10199346Y5733700D1*
X10197387Y5726080D1*
X10195381Y5718460D1*
X10194004Y5710840D1*
X10193023Y5703220D1*
X10191726Y5695600D1*
X10189767Y5687980D1*
X10187731Y5680360D1*
X10186116Y5672740D1*
X10184431Y5665120D1*
X10182251Y5657500D1*
X10179895Y5649880D1*
X10177514Y5642260D1*
X10174666Y5634640D1*
X10171084Y5627020D1*
X10166235Y5619400D1*
X10159257Y5611780D1*
X10149979Y5604160D1*
X10139440Y5596540D1*
X10268980Y5832760D2*
X10267802Y5825140D1*
X10265913Y5817520D1*
X10263911Y5809900D1*
X10262308Y5802280D1*
X10260629Y5794660D1*
X10258480Y5787040D1*
X10256393Y5779420D1*
X10254982Y5771800D1*
X10253989Y5764180D1*
X10252688Y5756560D1*
X10250727Y5748940D1*
X10248721Y5741320D1*
X10247344Y5733700D1*
X10246363Y5726080D1*
X10245066Y5718460D1*
X10243107Y5710840D1*
X10241101Y5703220D1*
X10239724Y5695600D1*
X10238743Y5687980D1*
X10237446Y5680360D1*
X10235487Y5672740D1*
X10233481Y5665120D1*
X10232104Y5657500D1*
X10231123Y5649880D1*
X10229796Y5642260D1*
X10227569Y5634640D1*
X10224592Y5627020D1*
X10221390Y5619400D1*
X10218425Y5611780D1*
X10215532Y5604160D1*
X10211865Y5596540D1*
X10207384Y5588920D1*
X10202382Y5581300D1*
X10195926Y5573680D1*
X10186735Y5566060D1*
X10174856Y5558440D1*
X10161282Y5550820D1*
X10147060Y5543200D1*
X10375660Y5832760D2*
X10374482Y5825140D1*
X10372593Y5817520D1*
X10370591Y5809900D1*
X10368988Y5802280D1*
X10367309Y5794660D1*
X10365160Y5787040D1*
X10363073Y5779420D1*
X10361662Y5771800D1*
X10360669Y5764180D1*
X10359368Y5756560D1*
X10357407Y5748940D1*
X10355401Y5741320D1*
X10354024Y5733700D1*
X10353043Y5726080D1*
X10351746Y5718460D1*
X10349787Y5710840D1*
X10347781Y5703220D1*
X10346404Y5695600D1*
X10345423Y5687980D1*
X10344126Y5680360D1*
X10342167Y5672740D1*
X10340161Y5665120D1*
X10338784Y5657500D1*
X10337803Y5649880D1*
X10336506Y5642260D1*
X10334547Y5634640D1*
X10332511Y5627020D1*
X10330896Y5619400D1*
X10329211Y5611780D1*
X10327061Y5604160D1*
X10324973Y5596540D1*
X10323562Y5588920D1*
X10322569Y5581300D1*
X10321263Y5573680D1*
X10319237Y5566060D1*
X10316916Y5558440D1*
X10314700Y5550820D1*
X10421380Y5832760D2*
X10421350Y5825140D1*
X10421082Y5817520D1*
X10420111Y5809900D1*
X10418286Y5802280D1*
X10416333Y5794660D1*
X10414974Y5787040D1*
X10413999Y5779420D1*
X10412705Y5771800D1*
X10410746Y5764180D1*
X10408711Y5756560D1*
X10407096Y5748940D1*
X10405411Y5741320D1*
X10403261Y5733700D1*
X10401173Y5726080D1*
X10399762Y5718460D1*
X10398769Y5710840D1*
X10397468Y5703220D1*
X10395507Y5695600D1*
X10393501Y5687980D1*
X10392124Y5680360D1*
X10391143Y5672740D1*
X10389846Y5665120D1*
X10387887Y5657500D1*
X10385881Y5649880D1*
X10384504Y5642260D1*
X10383523Y5634640D1*
X10382226Y5627020D1*
X10380267Y5619400D1*
X10378261Y5611780D1*
X10376907Y5604160D1*
X10376154Y5596540D1*
X10375660Y5588920D1*
X10665220Y5832760D2*
X10661408Y5825140D1*
X10656983Y5817520D1*
X10652564Y5809900D1*
X10648390Y5802280D1*
X10644391Y5794660D1*
X10640508Y5787040D1*
X10636660Y5779420D1*
X10632815Y5771800D1*
X10628756Y5764180D1*
X10624218Y5756560D1*
X10619309Y5748940D1*
X10614644Y5741320D1*
X10610360Y5733700D1*
X10606317Y5726080D1*
X10602417Y5718460D1*
X10598563Y5710840D1*
X10594745Y5703220D1*
X10590924Y5695600D1*
X10587119Y5687980D1*
X10583302Y5680360D1*
X10579468Y5672740D1*
X10575414Y5665120D1*
X10570877Y5657500D1*
X10565969Y5649880D1*
X10561303Y5642260D1*
X10557020Y5634640D1*
X10552977Y5627020D1*
X10549077Y5619400D1*
X10545223Y5611780D1*
X10541376Y5604160D1*
X10537317Y5596540D1*
X10532778Y5588920D1*
X10527869Y5581300D1*
X10523227Y5573680D1*
X10519140Y5566060D1*
X10515729Y5558440D1*
X10512820Y5550820D1*
X10710940Y5832760D2*
X10712118Y5825140D1*
X10714007Y5817520D1*
X10715980Y5809900D1*
X10717314Y5802280D1*
X10718022Y5794660D1*
X10718346Y5787040D1*
X10718510Y5779420D1*
X10718829Y5771800D1*
X10719819Y5764180D1*
X10721650Y5756560D1*
X10723606Y5748940D1*
X10724936Y5741320D1*
X10725643Y5733700D1*
X10725966Y5726080D1*
X10726130Y5718460D1*
X10726449Y5710840D1*
X10727439Y5703220D1*
X10729270Y5695600D1*
X10731226Y5687980D1*
X10732556Y5680360D1*
X10733263Y5672740D1*
X10733586Y5665120D1*
X10733750Y5657500D1*
X10734069Y5649880D1*
X10735059Y5642260D1*
X10736890Y5634640D1*
X10738846Y5627020D1*
X10740176Y5619400D1*
X10740883Y5611780D1*
X10741236Y5604160D1*
X10741638Y5596540D1*
X10742660Y5588920D1*
X10744504Y5581300D1*
X10746465Y5573680D1*
X10747801Y5566060D1*
X10748549Y5558440D1*
X10749040Y5550820D1*
X11328160Y5832760D2*
X11325265Y5825140D1*
X11321990Y5817520D1*
X11318452Y5809900D1*
X11314750Y5802280D1*
X11310962Y5794660D1*
X11306925Y5787040D1*
X11302394Y5779420D1*
X11297488Y5771800D1*
X11292823Y5764180D1*
X11288540Y5756560D1*
X11284497Y5748940D1*
X11280597Y5741320D1*
X11276743Y5733700D1*
X11272925Y5726080D1*
X11269104Y5718460D1*
X11265299Y5710840D1*
X11261482Y5703220D1*
X11257648Y5695600D1*
X11253594Y5687980D1*
X11249057Y5680360D1*
X11244149Y5672740D1*
X11239483Y5665120D1*
X11235200Y5657500D1*
X11231157Y5649880D1*
X11227257Y5642260D1*
X11223403Y5634640D1*
X11219556Y5627020D1*
X11215497Y5619400D1*
X11210958Y5611780D1*
X11206049Y5604160D1*
X11201384Y5596540D1*
X11197100Y5588920D1*
X11193057Y5581300D1*
X11189133Y5573680D1*
X11185082Y5566060D1*
X11180622Y5558440D1*
X11175760Y5550820D1*
X11381500Y5832760D2*
Y5825140D1*
Y5817520D1*
Y5809900D1*
Y5802280D1*
X11381530Y5794660D1*
X11381798Y5787040D1*
X11382769Y5779420D1*
X11384594Y5771800D1*
X11386547Y5764180D1*
X11387876Y5756560D1*
X11388583Y5748940D1*
X11388936Y5741320D1*
X11389338Y5733700D1*
X11390360Y5726080D1*
X11392204Y5718460D1*
X11394164Y5710840D1*
X11395495Y5703220D1*
X11396203Y5695600D1*
X11396526Y5687980D1*
X11396690Y5680360D1*
X11397009Y5672740D1*
X11397999Y5665120D1*
X11399830Y5657500D1*
X11401786Y5649880D1*
X11403116Y5642260D1*
X11403823Y5634640D1*
X11404176Y5627020D1*
X11404578Y5619400D1*
X11405600Y5611780D1*
X11407444Y5604160D1*
X11409404Y5596540D1*
X11410735Y5588920D1*
X11411443Y5581300D1*
X11411766Y5573680D1*
X11411900Y5566060D1*
X11411953Y5558440D1*
X11411980Y5550820D1*
X11541520Y5832760D2*
X11541490Y5825140D1*
X11541222Y5817520D1*
X11540251Y5809900D1*
X11538426Y5802280D1*
X11536473Y5794660D1*
X11535114Y5787040D1*
X11534139Y5779420D1*
X11532845Y5771800D1*
X11530886Y5764180D1*
X11528851Y5756560D1*
X11527236Y5748940D1*
X11525551Y5741320D1*
X11523401Y5733700D1*
X11521313Y5726080D1*
X11519902Y5718460D1*
X11518909Y5710840D1*
X11517608Y5703220D1*
X11515647Y5695600D1*
X11513612Y5687980D1*
X11511996Y5680360D1*
X11510311Y5672740D1*
X11508161Y5665120D1*
X11506073Y5657500D1*
X11504692Y5649880D1*
X11503937Y5642260D1*
X11503339Y5634640D1*
X11502232Y5627020D1*
X11500355Y5619400D1*
X11498353Y5611780D1*
X11496749Y5604160D1*
X11495069Y5596540D1*
X11492920Y5588920D1*
X11490833Y5581300D1*
X11489452Y5573680D1*
X11488725Y5566060D1*
X11488382Y5558440D1*
X11488180Y5550820D1*
X11693920Y5832760D2*
X11693890Y5825140D1*
X11693622Y5817520D1*
X11692646Y5809900D1*
X11690756Y5802280D1*
X11688488Y5794660D1*
X11686300Y5787040D1*
X9179320Y5794660D2*
X9165578Y5787040D1*
X9153501Y5779420D1*
X9143359Y5771800D1*
X9134769Y5764180D1*
X9127615Y5756560D1*
X9121875Y5748940D1*
X9117129Y5741320D1*
X9112932Y5733700D1*
X9109232Y5726080D1*
X9106325Y5718460D1*
X9104323Y5710840D1*
X9102483Y5703220D1*
X9100273Y5695600D1*
X9098164Y5687980D1*
X9096776Y5680360D1*
X9096048Y5672740D1*
X9095717Y5665120D1*
X9095611Y5657500D1*
X9095827Y5649880D1*
X9096808Y5642260D1*
X9098925Y5634640D1*
X9102145Y5627020D1*
X9106566Y5619400D1*
X9112314Y5611780D1*
X9118968Y5604160D1*
X9125980Y5596540D1*
X9194560Y5794660D2*
X9208012Y5787040D1*
X9219082Y5779420D1*
X9227160Y5771800D1*
X9233063Y5764180D1*
X9237766Y5756560D1*
X9241670Y5748940D1*
X9244624Y5741320D1*
X9246385Y5733700D1*
X9247234Y5726080D1*
X9247354Y5718460D1*
X9246539Y5710840D1*
X9244774Y5703220D1*
X9242812Y5695600D1*
X9241222Y5687980D1*
X9239547Y5680360D1*
X9237370Y5672740D1*
X9235015Y5665120D1*
X9232634Y5657500D1*
X9229786Y5649880D1*
X9226233Y5642260D1*
X9221675Y5634640D1*
X9215839Y5627020D1*
X9208830Y5619400D1*
X9200429Y5611780D1*
X9190369Y5604160D1*
X9179320Y5596540D1*
X9461260Y5794660D2*
X9460082Y5787040D1*
X9458193Y5779420D1*
X9456191Y5771800D1*
X9454588Y5764180D1*
X9452909Y5756560D1*
X9450760Y5748940D1*
X9448673Y5741320D1*
X9447292Y5733700D1*
X9446565Y5726080D1*
X9446222Y5718460D1*
X9446020Y5710840D1*
X9468880Y5794660D2*
X9488715Y5787040D1*
X9504950Y5779420D1*
X9517990Y5771800D1*
X9524573Y5764180D1*
X9526915Y5756560D1*
X9525619Y5748940D1*
X9523084Y5741320D1*
X9519274Y5733700D1*
X9514294Y5726080D1*
X9503870Y5718460D1*
X9491740Y5710840D1*
X11091940Y5794660D2*
X11078488Y5787040D1*
X11067418Y5779420D1*
X11059400Y5771800D1*
X11053210Y5764180D1*
X11050311Y5756560D1*
X11050669Y5748940D1*
X11054622Y5741320D1*
X11060918Y5733700D1*
X11069739Y5726080D1*
X11080510Y5718460D1*
X11092192Y5710840D1*
X11103219Y5703220D1*
X11112677Y5695600D1*
X11120354Y5687980D1*
X11126349Y5680360D1*
X11131203Y5672740D1*
X11135443Y5665120D1*
X11139160Y5657500D1*
X11142043Y5649880D1*
X11143778Y5642260D1*
X11144618Y5634640D1*
X11144735Y5627020D1*
X11143890Y5619400D1*
X11141856Y5611780D1*
X11138923Y5604160D1*
X11135479Y5596540D1*
X11131552Y5588920D1*
X11126777Y5581300D1*
X11120562Y5573680D1*
X11112254Y5566060D1*
X11100775Y5558440D1*
X11085837Y5550820D1*
X11069080Y5543200D1*
X11091940Y5794660D2*
X11113399Y5787040D1*
X11133585Y5779420D1*
X11152900Y5771800D1*
X8905000Y5787040D2*
X8898878Y5779420D1*
X8894421Y5771800D1*
X8891839Y5764180D1*
X8890334Y5756560D1*
X8888828Y5748940D1*
X8886789Y5741320D1*
X8884756Y5733700D1*
X8883398Y5726080D1*
X8882680Y5718460D1*
X8882340Y5710840D1*
X8882140Y5703220D1*
X11579620Y5787040D2*
X11579590Y5779420D1*
X11579322Y5771800D1*
X11578351Y5764180D1*
X11576526Y5756560D1*
X11574573Y5748940D1*
X11573243Y5741320D1*
X11572535Y5733700D1*
X11572199Y5726080D1*
X11572000Y5718460D1*
X10665220Y5748940D2*
X10664042Y5741320D1*
X10662123Y5733700D1*
X10659853Y5726080D1*
X10657279Y5718460D1*
X10653768Y5710840D1*
X10649582Y5703220D1*
X10645731Y5695600D1*
X10642360Y5687980D1*
X10680460Y5748940D2*
Y5741320D1*
Y5733700D1*
Y5726080D1*
Y5718460D1*
Y5710840D1*
Y5703220D1*
Y5695600D1*
Y5687980D1*
X11328160Y5741320D2*
X11326953Y5733700D1*
X11324796Y5726080D1*
X11321822Y5718460D1*
X11318371Y5710840D1*
X11314510Y5703220D1*
X11310124Y5695600D1*
X11305300Y5687980D1*
X11343400Y5741320D2*
Y5733700D1*
X11343430Y5726080D1*
X11343698Y5718460D1*
X11344674Y5710840D1*
X11346564Y5703220D1*
X11348832Y5695600D1*
X11351020Y5687980D1*
X11663440Y5718460D2*
Y5710840D1*
X11663410Y5703220D1*
X11663120Y5695600D1*
X11661942Y5687980D1*
X11659337Y5680360D1*
X11655820Y5672740D1*
X8973580Y5703220D2*
X8973550Y5695600D1*
X8973260Y5687980D1*
X8972082Y5680360D1*
X8969477Y5672740D1*
X8965960Y5665120D1*
X9712720Y5710840D2*
X9712430Y5703220D1*
X9711453Y5695600D1*
X9709627Y5687980D1*
X9707643Y5680360D1*
X9706046Y5672740D1*
X9704368Y5665120D1*
X9702220Y5657500D1*
X9700133Y5649880D1*
X9698722Y5642260D1*
X9697729Y5634640D1*
X9696428Y5627020D1*
X9694467Y5619400D1*
X9692432Y5611780D1*
X9690816Y5604160D1*
X9689131Y5596540D1*
X9686981Y5588920D1*
X9684893Y5581300D1*
X9683512Y5573680D1*
X9682785Y5566060D1*
X9682442Y5558440D1*
X9682240Y5550820D1*
X9727960Y5710840D2*
Y5703220D1*
Y5695600D1*
Y5687980D1*
Y5680360D1*
X9727990Y5672740D1*
X9728258Y5665120D1*
X9729229Y5657500D1*
X9731054Y5649880D1*
X9733007Y5642260D1*
X9734336Y5634640D1*
X9735043Y5627020D1*
X9735366Y5619400D1*
X9735500Y5611780D1*
X9735581Y5604160D1*
X9735868Y5596540D1*
X9736845Y5588920D1*
X9738673Y5581300D1*
X9740627Y5573680D1*
X9741962Y5566060D1*
X9742709Y5558440D1*
X9743200Y5550820D1*
X9865120Y5710840D2*
X9863913Y5703220D1*
X9861756Y5695600D1*
X9858782Y5687980D1*
X9855354Y5680360D1*
X9851692Y5672740D1*
X9847946Y5665120D1*
X9844151Y5657500D1*
X9840325Y5649880D1*
X9836273Y5642260D1*
X9831737Y5634640D1*
X9826829Y5627020D1*
X9822163Y5619400D1*
X9817880Y5611780D1*
X9813837Y5604160D1*
X9809907Y5596540D1*
X9805815Y5588920D1*
X9801265Y5581300D1*
X9796327Y5573680D1*
X9791458Y5566060D1*
X9786502Y5558440D1*
X9781300Y5550820D1*
X9880360Y5710840D2*
X9879182Y5703220D1*
X9877293Y5695600D1*
X9875320Y5687980D1*
X9873956Y5680360D1*
X9872980Y5672740D1*
X9871685Y5665120D1*
X9869726Y5657500D1*
X9867691Y5649880D1*
X9866076Y5642260D1*
X9864391Y5634640D1*
X9862241Y5627020D1*
X9860153Y5619400D1*
X9858742Y5611780D1*
X9857749Y5604160D1*
X9856448Y5596540D1*
X9854487Y5588920D1*
X9852452Y5581300D1*
X9850813Y5573680D1*
X9848921Y5566060D1*
X9845977Y5558440D1*
X9842260Y5550820D1*
X11556760Y5672740D2*
X11556730Y5665120D1*
X11556462Y5657500D1*
X11555491Y5649880D1*
X11553666Y5642260D1*
X11551683Y5634640D1*
X11550086Y5627020D1*
X11548408Y5619400D1*
X11546259Y5611780D1*
X11544152Y5604160D1*
X11542655Y5596540D1*
X11541520Y5588920D1*
X8866900Y5665120D2*
X8866870Y5657500D1*
X8866602Y5649880D1*
X8865631Y5642260D1*
X8863806Y5634640D1*
X8861853Y5627020D1*
X8860494Y5619400D1*
X8859519Y5611780D1*
X8858225Y5604160D1*
X8856266Y5596540D1*
X8854261Y5588920D1*
X8852884Y5581300D1*
X8851880Y5573680D1*
X8850377Y5566060D1*
X8847633Y5558440D1*
X8844040Y5550820D1*
X9430780Y5657500D2*
X9430490Y5649880D1*
X9429513Y5642260D1*
X9427687Y5634640D1*
X9425733Y5627020D1*
X9424374Y5619400D1*
X9423399Y5611780D1*
X9422105Y5604160D1*
X9420146Y5596540D1*
X9418111Y5588920D1*
X9416496Y5581300D1*
X9414806Y5573680D1*
X9412591Y5566060D1*
X9410184Y5558440D1*
X9407920Y5550820D1*
X9468880Y5657500D2*
X9470058Y5649880D1*
X9471977Y5642260D1*
X9474217Y5634640D1*
X9476523Y5627020D1*
X9479086Y5619400D1*
X9481631Y5611780D1*
X9484065Y5604160D1*
X9486678Y5596540D1*
X9489242Y5588920D1*
X9491682Y5581300D1*
X9494269Y5573680D1*
X9496585Y5566060D1*
X9498174Y5558440D1*
X9499360Y5550820D1*
X10619500Y5634640D2*
X10613058Y5627020D1*
X10607357Y5619400D1*
X10601977Y5611780D1*
X10596693Y5604160D1*
X10591874Y5596540D1*
X10587532Y5588920D1*
X10583468Y5581300D1*
X10579537Y5573680D1*
X10575483Y5566060D1*
X10571022Y5558440D1*
X10566160Y5550820D1*
X10688080Y5634640D2*
X10689258Y5627020D1*
X10691147Y5619400D1*
X10693120Y5611780D1*
X10694454Y5604160D1*
X10695162Y5596540D1*
X10695486Y5588920D1*
X10695620Y5581300D1*
X10695671Y5573680D1*
X10695690Y5566060D1*
X10695697Y5558440D1*
X10695700Y5550820D1*
X11282440Y5634640D2*
X11276027Y5627020D1*
X11270564Y5619400D1*
X11265918Y5611780D1*
X11261726Y5604160D1*
X11257768Y5596540D1*
X11253894Y5588920D1*
X11250069Y5581300D1*
X11246269Y5573680D1*
X11242661Y5566060D1*
X11239486Y5558440D1*
X11236720Y5550820D1*
X11358640Y5634640D2*
Y5627020D1*
Y5619400D1*
Y5611780D1*
Y5604160D1*
X11358670Y5596540D1*
X11358938Y5588920D1*
X11359909Y5581300D1*
X11361735Y5573680D1*
X11363708Y5566060D1*
X11365153Y5558440D1*
X11366260Y5550820D1*
X10962400Y5604160D2*
Y5596540D1*
Y5588920D1*
X10962430Y5581300D1*
X10962787Y5573680D1*
X10963680Y5566060D1*
X10968390Y5558440D1*
X10979723Y5550820D1*
X10992880Y5543200D1*
X10977640Y5604160D2*
X11000500Y5596540D1*
X10474720Y5588920D2*
X10474430Y5581300D1*
X10473448Y5573680D1*
X10471557Y5566060D1*
X10469289Y5558440D1*
X10467100Y5550820D1*
X11648200Y5588920D2*
X11645595Y5581300D1*
X11643327Y5573680D1*
X11641877Y5566060D1*
X11641090Y5558440D1*
X11640580Y5550820D1*
M02*
