%TF.GenerationSoftware,Novarm,DipTrace,3.3.1.1*%
%TF.CreationDate,2019-12-29T15:56:02+07:00*%
%FSLAX35Y35*%
%MOMM*%
%TF.FileFunction,Legend,Bot*%
%TF.Part,Single*%
%ADD164C,0.27451*%
G75*
G01*
%LPD*%
X20846739Y12731647D2*
D164*
X20829640Y12740295D1*
X20804090Y12765648D1*
Y12587191D1*
X20740540Y12723196D2*
Y12731647D1*
X20732089Y12748746D1*
X20723638Y12757197D1*
X20706539Y12765648D1*
X20672538D1*
X20655635Y12757197D1*
X20647184Y12748746D1*
X20638537Y12731647D1*
Y12714745D1*
X20647184Y12697646D1*
X20664087Y12672293D1*
X20749188Y12587191D1*
X20630085D1*
X20575183Y12765845D2*
X20507181Y12587191D1*
X20439179Y12765845D1*
X14705595Y12615904D2*
X14688496Y12624552D1*
X14662946Y12649905D1*
Y12471448D1*
X14599397Y12607453D2*
Y12615904D1*
X14590946Y12633003D1*
X14582494Y12641454D1*
X14565396Y12649905D1*
X14531394D1*
X14514492Y12641454D1*
X14506041Y12633003D1*
X14497393Y12615904D1*
Y12599002D1*
X14506041Y12581903D1*
X14522943Y12556549D1*
X14608044Y12471448D1*
X14488942D1*
X14434040Y12650102D2*
X14366038Y12471448D1*
X14298035Y12650102D1*
X17743795Y12686374D2*
X17726696Y12695022D1*
X17701146Y12720375D1*
Y12541918D1*
X17637597Y12677923D2*
Y12686374D1*
X17629146Y12703473D1*
X17620694Y12711924D1*
X17603596Y12720375D1*
X17569594D1*
X17552692Y12711924D1*
X17544241Y12703473D1*
X17535593Y12686374D1*
Y12669472D1*
X17544241Y12652373D1*
X17561143Y12627019D1*
X17646244Y12541918D1*
X17527142D1*
X17472240Y12720572D2*
X17404238Y12541918D1*
X17336235Y12720572D1*
X23862815Y12699421D2*
X23845716Y12708068D1*
X23820166Y12733422D1*
Y12554965D1*
X23756617Y12690969D2*
Y12699421D1*
X23748166Y12716519D1*
X23739714Y12724971D1*
X23722616Y12733422D1*
X23688614D1*
X23671712Y12724971D1*
X23663261Y12716519D1*
X23654613Y12699421D1*
Y12682518D1*
X23663261Y12665419D1*
X23680163Y12640066D1*
X23765264Y12554965D1*
X23646162D1*
X23591260Y12733618D2*
X23523258Y12554965D1*
X23455255Y12733618D1*
X12092335Y8963984D2*
X12075236Y8972632D1*
X12049686Y8997985D1*
Y8819528D1*
X11986137Y8955533D2*
Y8963984D1*
X11977686Y8981083D1*
X11969234Y8989534D1*
X11952136Y8997985D1*
X11918134D1*
X11901232Y8989534D1*
X11892781Y8981083D1*
X11884133Y8963984D1*
Y8947082D1*
X11892781Y8929983D1*
X11909683Y8904629D1*
X11994784Y8819528D1*
X11875682D1*
X11820780Y8998182D2*
X11752778Y8819528D1*
X11684775Y8998182D1*
X12412372Y4431691D2*
X12395273Y4440338D1*
X12369723Y4465692D1*
Y4287235D1*
X12306173Y4423239D2*
Y4431691D1*
X12297722Y4448789D1*
X12289271Y4457241D1*
X12272172Y4465692D1*
X12238171D1*
X12221269Y4457241D1*
X12212818Y4448789D1*
X12204170Y4431691D1*
Y4414788D1*
X12212818Y4397689D1*
X12229720Y4372336D1*
X12314821Y4287235D1*
X12195719D1*
X12140817Y4465888D2*
X12072814Y4287235D1*
X12004812Y4465888D1*
X926869Y6461821D2*
X909770Y6470468D1*
X884220Y6495822D1*
Y6317365D1*
X820670Y6453369D2*
Y6461821D1*
X812219Y6478919D1*
X803768Y6487371D1*
X786669Y6495822D1*
X752668D1*
X735765Y6487371D1*
X727314Y6478919D1*
X718667Y6461821D1*
Y6444918D1*
X727314Y6427819D1*
X744217Y6402466D1*
X829318Y6317365D1*
X710215D1*
X655313Y6496018D2*
X587311Y6317365D1*
X519309Y6496018D1*
X24041282Y6722417D2*
X24024183Y6731065D1*
X23998633Y6756418D1*
Y6577961D1*
X23935084Y6713966D2*
Y6722417D1*
X23926633Y6739516D1*
X23918181Y6747967D1*
X23901083Y6756418D1*
X23867081D1*
X23850179Y6747967D1*
X23841728Y6739516D1*
X23833080Y6722417D1*
Y6705515D1*
X23841728Y6688416D1*
X23858630Y6663063D1*
X23943731Y6577961D1*
X23824629D1*
X23769727Y6756615D2*
X23701725Y6577961D1*
X23633723Y6756615D1*
X23405996D2*
X23363347Y6577961D1*
X23320894Y6756615D1*
X23278442Y6577961D1*
X23235793Y6756615D1*
X23180891D2*
X23172440Y6748164D1*
X23163792Y6756615D1*
X23172440Y6765263D1*
X23180891Y6756615D1*
X23172440Y6697064D2*
Y6577961D1*
X23108890Y6697064D2*
Y6577961D1*
Y6645964D2*
X23100243Y6671514D1*
X23083340Y6688613D1*
X23066242Y6697064D1*
X23040692D1*
X22985790Y6645964D2*
X22883786D1*
Y6663063D1*
X22892237Y6680161D1*
X22900689Y6688613D1*
X22917787Y6697064D1*
X22943337D1*
X22960240Y6688613D1*
X22977339Y6671514D1*
X22985790Y6645964D1*
Y6629061D1*
X22977339Y6603511D1*
X22960240Y6586609D1*
X22943337Y6577961D1*
X22917787D1*
X22900689Y6586609D1*
X22883786Y6603511D1*
X22656059Y6756615D2*
Y6577961D1*
X22536957Y6756615D2*
Y6577961D1*
X22656059Y6671514D2*
X22536957D1*
X22439603Y6697064D2*
X22456505Y6688613D1*
X22473604Y6671514D1*
X22482055Y6645964D1*
Y6629061D1*
X22473604Y6603511D1*
X22456505Y6586609D1*
X22439603Y6577961D1*
X22414053D1*
X22396954Y6586609D1*
X22380052Y6603511D1*
X22371404Y6629061D1*
Y6645964D1*
X22380052Y6671514D1*
X22396954Y6688613D1*
X22414053Y6697064D1*
X22439603D1*
X22316502Y6756615D2*
Y6577961D1*
X22261600Y6645964D2*
X22159596D1*
Y6663063D1*
X22168048Y6680161D1*
X22176499Y6688613D1*
X22193598Y6697064D1*
X22219148D1*
X22236050Y6688613D1*
X22253149Y6671514D1*
X22261600Y6645964D1*
Y6629061D1*
X22253149Y6603511D1*
X22236050Y6586609D1*
X22219148Y6577961D1*
X22193598D1*
X22176499Y6586609D1*
X22159596Y6603511D1*
X22011142Y6671514D2*
X22019593Y6688613D1*
X22045143Y6697064D1*
X22070693D1*
X22096243Y6688613D1*
X22104694Y6671514D1*
X22096243Y6654611D1*
X22079144Y6645964D1*
X22036692Y6637513D1*
X22019593Y6629061D1*
X22011142Y6611963D1*
Y6603511D1*
X22019593Y6586609D1*
X22045143Y6577961D1*
X22070693D1*
X22096243Y6586609D1*
X22104694Y6603511D1*
X13371853Y5932822D2*
X13482504D1*
Y5754168D1*
Y5847720D2*
X13414502D1*
X13316951Y5839269D2*
X13240301D1*
X13214948Y5847720D1*
X13206300Y5856368D1*
X13197849Y5873270D1*
Y5898820D1*
X13206300Y5915723D1*
X13214948Y5924370D1*
X13240301Y5932822D1*
X13316951D1*
Y5754168D1*
X16093811Y6003082D2*
Y5824428D1*
X15911355Y5960629D2*
X15919807Y5977532D1*
X15936905Y5994630D1*
X15953808Y6003082D1*
X15987809D1*
X16004908Y5994630D1*
X16021810Y5977532D1*
X16030458Y5960629D1*
X16038909Y5935079D1*
Y5892430D1*
X16030458Y5867077D1*
X16021810Y5849978D1*
X16004908Y5833076D1*
X15987809Y5824428D1*
X15953808D1*
X15936905Y5833076D1*
X15919807Y5849978D1*
X15911355Y5867077D1*
X21639785Y10841658D2*
X21707984Y11020312D1*
X21775986Y10841658D1*
X21750436Y10901209D2*
X21665335D1*
X21584883Y11020312D2*
Y10892758D1*
X21576432Y10867208D1*
X21559333Y10850306D1*
X21533783Y10841658D1*
X21516881D1*
X21491331Y10850306D1*
X21474232Y10867208D1*
X21465781Y10892758D1*
Y11020312D1*
X21410879D2*
X21291776Y10841658D1*
Y11020312D2*
X21410879Y10841658D1*
X21228227Y10977663D2*
Y10986114D1*
X21219776Y11003213D1*
X21211324Y11011664D1*
X21194226Y11020115D1*
X21160224D1*
X21143322Y11011664D1*
X21134871Y11003213D1*
X21126223Y10986114D1*
Y10969212D1*
X21134871Y10952113D1*
X21151773Y10926759D1*
X21236874Y10841658D1*
X21117772D1*
X15550776Y10964588D2*
X15661427D1*
Y10785935D1*
Y10879487D2*
X15593425D1*
X15359673Y10785935D2*
X15427872Y10964588D1*
X15495874Y10785935D1*
X15470324Y10845486D2*
X15385223D1*
X15185669Y10964588D2*
Y10785935D1*
X15304771Y10964588D1*
Y10785935D1*
X18948674Y11008465D2*
Y10829811D1*
X18846670D1*
X18689765Y10948914D2*
Y10829811D1*
Y10923364D2*
X18706667Y10940463D1*
X18723766Y10948914D1*
X18749119D1*
X18766218Y10940463D1*
X18783121Y10923364D1*
X18791768Y10897814D1*
Y10880911D1*
X18783121Y10855361D1*
X18766218Y10838459D1*
X18749119Y10829811D1*
X18723766D1*
X18706667Y10838459D1*
X18689765Y10855361D1*
X18634863Y10948914D2*
Y10829811D1*
Y10914913D2*
X18609313Y10940463D1*
X18592214Y10948914D1*
X18566861D1*
X18549762Y10940463D1*
X18541311Y10914913D1*
Y10829811D1*
Y10914913D2*
X18515761Y10940463D1*
X18498662Y10948914D1*
X18473308D1*
X18456209Y10940463D1*
X18447562Y10914913D1*
Y10829811D1*
X18392660Y11008465D2*
Y10829811D1*
Y10923364D2*
X18375561Y10940463D1*
X18358659Y10948914D1*
X18333109D1*
X18316206Y10940463D1*
X18299107Y10923364D1*
X18290656Y10897814D1*
Y10880911D1*
X18299107Y10855361D1*
X18316206Y10838459D1*
X18333109Y10829811D1*
X18358659D1*
X18375561Y10838459D1*
X18392660Y10855361D1*
X18133751Y11008465D2*
Y10829811D1*
Y10923364D2*
X18150653Y10940463D1*
X18167752Y10948914D1*
X18193302D1*
X18210204Y10940463D1*
X18227303Y10923364D1*
X18235754Y10897814D1*
Y10880911D1*
X18227303Y10855361D1*
X18210204Y10838459D1*
X18193302Y10829811D1*
X18167752D1*
X18150653Y10838459D1*
X18133751Y10855361D1*
X17976845Y10948914D2*
Y10829811D1*
Y10923364D2*
X17993748Y10940463D1*
X18010847Y10948914D1*
X18036200D1*
X18053299Y10940463D1*
X18070201Y10923364D1*
X18078849Y10897814D1*
Y10880911D1*
X18070201Y10855361D1*
X18053299Y10838459D1*
X18036200Y10829811D1*
X18010847D1*
X17993748Y10838459D1*
X17976845Y10855361D1*
X24818642Y10814848D2*
X24886840Y10993502D1*
X24954843Y10814848D1*
X24929293Y10874399D2*
X24844192D1*
X24763740Y10993502D2*
Y10865948D1*
X24755288Y10840398D1*
X24738190Y10823496D1*
X24712640Y10814848D1*
X24695737D1*
X24670187Y10823496D1*
X24653088Y10840398D1*
X24644637Y10865948D1*
Y10993502D1*
X24589735D2*
X24470633Y10814848D1*
Y10993502D2*
X24589735Y10814848D1*
X24415731Y10959304D2*
X24398632Y10967952D1*
X24373082Y10993305D1*
Y10814848D1*
X14973304Y3630668D2*
Y3452015D1*
X14790849Y3588216D2*
X14799300Y3605118D1*
X14816399Y3622217D1*
X14833301Y3630668D1*
X14867302D1*
X14884401Y3622217D1*
X14901303Y3605118D1*
X14909951Y3588216D1*
X14918402Y3562666D1*
Y3520017D1*
X14909951Y3494664D1*
X14901303Y3477565D1*
X14884401Y3460662D1*
X14867302Y3452015D1*
X14833301D1*
X14816399Y3460662D1*
X14799300Y3477565D1*
X14790849Y3494664D1*
X15489920Y3606002D2*
X15600571D1*
Y3427348D1*
Y3520900D2*
X15532569D1*
X15435018Y3512449D2*
X15358368D1*
X15333014Y3520900D1*
X15324367Y3529548D1*
X15315915Y3546450D1*
Y3572000D1*
X15324367Y3588903D1*
X15333014Y3597550D1*
X15358368Y3606002D1*
X15435018D1*
Y3427348D1*
X13737338Y3432391D2*
X13805537Y3611045D1*
X13873539Y3432391D1*
X13847989Y3491943D2*
X13762888D1*
X13682436Y3611045D2*
Y3483491D1*
X13673985Y3457941D1*
X13656886Y3441039D1*
X13631336Y3432391D1*
X13614434D1*
X13588884Y3441039D1*
X13571785Y3457941D1*
X13563334Y3483491D1*
Y3611045D1*
X13508432D2*
X13389330Y3432391D1*
Y3611045D2*
X13508432Y3432391D1*
X13325780Y3568396D2*
Y3576847D1*
X13317329Y3593946D1*
X13308878Y3602397D1*
X13291779Y3610848D1*
X13257778D1*
X13240875Y3602397D1*
X13232424Y3593946D1*
X13223777Y3576847D1*
Y3559945D1*
X13232424Y3542846D1*
X13249327Y3517493D1*
X13334428Y3432391D1*
X13215325D1*
X14402850Y3603992D2*
X14513501D1*
Y3425338D1*
Y3518890D2*
X14445498D1*
X14211746Y3425338D2*
X14279945Y3603992D1*
X14347948Y3425338D1*
X14322398Y3484889D2*
X14237296D1*
X14037742Y3603992D2*
Y3425338D1*
X14156844Y3603992D1*
Y3425338D1*
X17408517Y2751338D2*
Y2572685D1*
X17306514D1*
X17149608Y2691787D2*
Y2572685D1*
Y2666237D2*
X17166511Y2683336D1*
X17183609Y2691787D1*
X17208963D1*
X17226062Y2683336D1*
X17242964Y2666237D1*
X17251612Y2640687D1*
Y2623785D1*
X17242964Y2598235D1*
X17226062Y2581332D1*
X17208963Y2572685D1*
X17183609D1*
X17166511Y2581332D1*
X17149608Y2598235D1*
X17094706Y2691787D2*
Y2572685D1*
Y2657786D2*
X17069156Y2683336D1*
X17052057Y2691787D1*
X17026704D1*
X17009605Y2683336D1*
X17001154Y2657786D1*
Y2572685D1*
Y2657786D2*
X16975604Y2683336D1*
X16958505Y2691787D1*
X16933152D1*
X16916053Y2683336D1*
X16907405Y2657786D1*
Y2572685D1*
X16852503Y2751338D2*
Y2572685D1*
Y2666237D2*
X16835404Y2683336D1*
X16818502Y2691787D1*
X16792952D1*
X16776050Y2683336D1*
X16758951Y2666237D1*
X16750500Y2640687D1*
Y2623785D1*
X16758951Y2598235D1*
X16776050Y2581332D1*
X16792952Y2572685D1*
X16818502D1*
X16835404Y2581332D1*
X16852503Y2598235D1*
X16593594Y2751338D2*
Y2572685D1*
Y2666237D2*
X16610497Y2683336D1*
X16627595Y2691787D1*
X16653145D1*
X16670048Y2683336D1*
X16687147Y2666237D1*
X16695598Y2640687D1*
Y2623785D1*
X16687147Y2598235D1*
X16670048Y2581332D1*
X16653145Y2572685D1*
X16627595D1*
X16610497Y2581332D1*
X16593594Y2598235D1*
X16436689Y2691787D2*
Y2572685D1*
Y2666237D2*
X16453591Y2683336D1*
X16470690Y2691787D1*
X16496043D1*
X16513142Y2683336D1*
X16530045Y2666237D1*
X16538692Y2640687D1*
Y2623785D1*
X16530045Y2598235D1*
X16513142Y2581332D1*
X16496043Y2572685D1*
X16470690D1*
X16453591Y2581332D1*
X16436689Y2598235D1*
X13415122Y2377588D2*
X13483320Y2556242D1*
X13551323Y2377588D1*
X13525773Y2437139D2*
X13440672D1*
X13360220Y2556242D2*
Y2428688D1*
X13351768Y2403138D1*
X13334670Y2386236D1*
X13309120Y2377588D1*
X13292217D1*
X13266667Y2386236D1*
X13249568Y2403138D1*
X13241117Y2428688D1*
Y2556242D1*
X13186215D2*
X13067113Y2377588D1*
Y2556242D2*
X13186215Y2377588D1*
X13012211Y2522044D2*
X12995112Y2530692D1*
X12969562Y2556045D1*
Y2377588D1*
M02*
