%TF.GenerationSoftware,Novarm,DipTrace,3.3.1.1*%
%TF.CreationDate,2019-12-29T15:56:07+07:00*%
%FSLAX35Y35*%
%MOMM*%
%TF.FileFunction,Plated,1,2,PTH,Drill*%
%TF.Part,Single*%
%TA.AperFunction,ComponentDrill*%
%ADD16C,0.5*%
%ADD22C,2.0*%
%ADD23C,3.0*%
%ADD27C,0.8*%
%ADD52C,1.5*%
%TA.AperFunction,ViaDrill*%
%ADD73C,0.48567*%
%TA.AperFunction,ComponentDrill*%
%ADD80C,4.5*%
%ADD81C,0.965*%
%ADD82C,1.65*%
%ADD84C,2.18*%
%ADD85C,1.05*%
%ADD86C,2.24*%
%ADD87C,1.2*%
%ADD88C,0.9*%
G75*
G01*
D52*
X4825017Y2499237D3*
X5125017D3*
X5425017D3*
X5725017D3*
X6025017D3*
X6325017D3*
X6625017D3*
X6925017D3*
X7225017D3*
X4975017Y2249237D3*
X5275017D3*
X5575017D3*
X5875017D3*
X6175017D3*
X6475017D3*
X6775017D3*
X7075017D3*
X4975017Y1949237D3*
X5275017D3*
X5575017D3*
X5875017D3*
X6175017D3*
X6475017D3*
X6775017D3*
X7075017D3*
X4825017Y1699237D3*
X5125017D3*
X5425017D3*
X5725017D3*
X6025017D3*
X6325017D3*
X6625017D3*
X6925017D3*
X7225017D3*
X8675017Y2499237D3*
X8975017D3*
X9275017D3*
X9575017D3*
X9875017D3*
X10175017D3*
X10475017D3*
X8825017Y2249237D3*
X9125017D3*
X9425017D3*
X9725017D3*
X10025017D3*
X10325017D3*
X8825017Y1949237D3*
X9125017D3*
X9425017D3*
X9725017D3*
X10025017D3*
X10325017D3*
X8675017Y1699237D3*
X8975017D3*
X9275017D3*
X9575017D3*
X9875017D3*
X10175017D3*
X10475017D3*
X13821270Y2513323D3*
X14121270D3*
X14421270D3*
X14721270D3*
X15021270D3*
X15321270D3*
X15621270D3*
X15921270D3*
X16221270D3*
X13971270Y2263323D3*
X14271270D3*
X14571270D3*
X14871270D3*
X15171270D3*
X15471270D3*
X15771270D3*
X16071270D3*
X13971270Y1963323D3*
X14271270D3*
X14571270D3*
X14871270D3*
X15171270D3*
X15471270D3*
X15771270D3*
X16071270D3*
X13821270Y1713323D3*
X14121270D3*
X14421270D3*
X14721270D3*
X15021270D3*
X15321270D3*
X15621270D3*
X15921270D3*
X16221270D3*
D80*
X25279037Y3339914D3*
Y5117911D3*
Y6895914D3*
Y8673914D3*
D23*
X13286900Y6286720D3*
X15994603Y6313273D3*
X15363127Y11251073D3*
X18416423Y11263513D3*
X24578780Y11242373D3*
X21439870Y11320277D3*
X743837Y6002403D3*
X12208810Y3989607D3*
X22091970Y5849220D3*
X20145400Y12547670D3*
X13998227Y12498893D3*
X17108213Y12530597D3*
X23176507Y12558677D3*
X11883523Y8554863D3*
X22098750Y6332267D3*
X22579810Y6333260D3*
X22586590Y5852200D3*
X23078407Y5850213D3*
X23085187Y6333260D3*
X23566247Y6334253D3*
X23573027Y5853193D3*
X23578077Y5341237D3*
X14883503Y3178827D3*
X15499047Y3160237D3*
X14290463Y3175483D3*
X16942120Y2310210D3*
X13250523Y2146567D3*
X13575057Y3186607D3*
D73*
X24153703Y8879893D3*
X24157403Y9013430D3*
Y9138030D3*
X11397770Y7455843D3*
X10861013Y7340753D3*
X13384637Y7831907D3*
X13254657Y7538090D3*
X14350770Y7353350D3*
X14453697Y7767477D3*
X22255483Y12265937D3*
X22166450Y11797273D3*
X16328210Y11527537D3*
X16365077Y12145380D3*
X19441507Y12063637D3*
X19064473Y11728437D3*
X14741723Y7134233D3*
X15395203Y6852457D3*
X16252770Y7318577D3*
X16596690Y6708997D3*
X20932500Y11977917D3*
X22358563Y11326293D3*
X14706117Y11808020D3*
X16397803Y11365150D3*
X17754100Y11816880D3*
X19338103Y11221033D3*
X23913537Y11846623D3*
X25574217Y10968323D3*
X25667143Y11558853D3*
X25622180Y12149383D3*
X21875970Y5490407D3*
X22004050Y5487680D3*
X22132130D3*
X22255633Y5489533D3*
X22383713Y5486810D3*
X22511793D3*
X22640743Y5485940D3*
X22768823Y5483217D3*
X22896903D3*
X21931347Y5372353D3*
X22059427Y5369630D3*
X22187507D3*
X22311007Y5371483D3*
X22439087Y5368760D3*
X22567167D3*
X22696117Y5367887D3*
X22824197Y5365163D3*
X22952277D3*
X23032177Y5484197D3*
X23082100Y5363420D3*
X23159273Y5474280D3*
X25790237Y2260463D3*
X22117523Y5254307D3*
X22245603D3*
X22369103Y5256160D3*
X22497183Y5253437D3*
X22625263D3*
X25637537Y2264453D3*
X25481933Y2264093D3*
X22663110Y1927073D3*
X22793687D3*
X22931517Y1923447D3*
X23062093D3*
X23192670Y1919820D3*
X23334127D3*
X23475583Y1916193D3*
X23605800Y1920180D3*
X23736377Y1916553D3*
X23877833D3*
X25321977Y2264453D3*
X25169277Y2268443D3*
X25013673Y2268083D3*
X22731663Y2054383D3*
X22862240D3*
X23000070Y2050757D3*
X23130647D3*
X23261223Y2047130D3*
X23402680D3*
X23544137Y2043503D3*
X23674353Y2047490D3*
X23804930Y2043863D3*
X23946387D3*
X24853357Y2265180D3*
X24697753Y2264820D3*
X25873300Y2362387D3*
X22647877Y2185320D3*
X22778453D3*
X22916283Y2181693D3*
X23046860D3*
X23177437Y2178067D3*
X23318893D3*
X23460350Y2174440D3*
X23590567Y2178427D3*
X23721143Y2174800D3*
X23862600D3*
X25720600Y2366377D3*
X25564997Y2366017D3*
X25405040Y2366377D3*
X22701923Y2298123D3*
X22832500D3*
X22970330Y2294497D3*
X23100907D3*
X23231483Y2290870D3*
X23372940D3*
X23514397Y2287243D3*
X23644613Y2291230D3*
X23775190Y2287603D3*
X23916647D3*
X25252340Y2370367D3*
X25096737Y2370007D3*
X24936420Y2367100D3*
X24780817Y2366740D3*
X25793143Y2464307D3*
X25640443Y2468297D3*
X25484840Y2467937D3*
X25324883Y2468297D3*
X25172183Y2472287D3*
X25016580Y2471927D3*
X24856263Y2469020D3*
X24700660Y2468660D3*
X24773923Y2156003D3*
X24853360Y2033043D3*
X24602727Y2377980D3*
X24629560Y2148027D3*
Y2010197D3*
X24629200Y1874467D3*
X24850093Y1898480D3*
X24856207Y1732773D3*
X24719753Y1752230D3*
X24763650Y1644223D3*
X24619763Y1611250D3*
X24592787Y1740147D3*
X24158940Y9266953D3*
X20927287Y8257230D3*
X24274647Y9010163D3*
X24276810Y9136923D3*
X24278350Y9263060D3*
X24606987Y9379417D3*
X24401120Y9146780D3*
X24410350Y9267677D3*
X24471333Y9379417D3*
X24535863Y9267963D3*
X24347650Y9379417D3*
X24219973Y9383407D3*
X24096290D3*
X23964627D3*
X21091433Y8123430D3*
X21050170Y8380117D3*
X25890013Y9593690D3*
X25758350Y9597680D3*
X23823557Y9378670D3*
X23699873D3*
X23576187D3*
X23452503D3*
X23324827Y9382660D3*
X23201143D3*
X23077460D3*
X22957763Y9378670D3*
X22830090D3*
X22710393D3*
X22578730Y9382660D3*
X22451057D3*
X22319390Y9386650D3*
X22187727D3*
X22060053Y9390640D3*
X21936367D3*
X21804703D3*
X21677030D3*
X21549353D3*
X21413700D3*
X21290017D3*
X21162340Y9394630D3*
X21038657D3*
X20906993D3*
X20775327Y9398620D3*
X23757907Y9496187D3*
X23634223D3*
X23510537D3*
X23386853D3*
X23259177Y9500177D3*
X23135493D3*
X23011810D3*
X22892113Y9496187D3*
X22764440D3*
X22644743D3*
X22513080Y9500177D3*
X22385407D3*
X22253740Y9504167D3*
X22122077D3*
X21994403Y9508157D3*
X21870717D3*
X21739053D3*
X21611380D3*
X21483703D3*
X21348050D3*
X21224367D3*
X21096690Y9512147D3*
X20973007D3*
X20841343D3*
X20709677Y9516137D3*
X23815943Y9617693D3*
X23692260D3*
X23568573D3*
X23444890D3*
X23317213Y9621683D3*
X23193530D3*
X23069847D3*
X22950150Y9617693D3*
X22822477D3*
X22702780D3*
X22571117Y9621683D3*
X22443443D3*
X22311777Y9625673D3*
X22180113D3*
X22052440Y9629663D3*
X21928753D3*
X21797090D3*
X21669417D3*
X21541740D3*
X21406087D3*
X21282403D3*
X21154727Y9633653D3*
X21031043D3*
X20899380D3*
X20767713Y9637643D3*
X21229603Y7834090D3*
X20721103Y6376040D3*
X11033290Y2418677D3*
X11203473Y2388177D3*
X7778683Y1699210D3*
X7358773Y1109703D3*
X9595603Y3010503D3*
X4502947Y2264100D3*
X7410183Y1294110D3*
X25834640Y9474657D3*
X25702977Y9478647D3*
X25575303D3*
X25443637Y9482637D3*
X25311973D3*
X25184300Y9486627D3*
X25060613D3*
X24928950D3*
X24801277D3*
X24673600D3*
X24537947D3*
X24414263D3*
X24286587Y9490617D3*
X24162903D3*
X24031240D3*
X23899573Y9494607D3*
X25630677Y9597680D3*
X25499010Y9601670D3*
X25367347D3*
X25239673Y9605660D3*
X25115987D3*
X24984323D3*
X24856650D3*
X24728973D3*
X24593320D3*
X24469637D3*
X24341960Y9609650D3*
X24218277D3*
X24086613D3*
X23954947Y9613640D3*
X7509997Y1838603D3*
X10606347Y9081770D3*
X7266237Y12788060D3*
Y12594610D3*
X5500270Y12477847D3*
X5695980Y12289567D3*
X1680247Y12568853D3*
X1854277Y12574997D3*
X3614457Y2291997D3*
X3611490Y1965897D3*
X8832910Y1347157D3*
X8833797Y1038990D3*
X1876217Y9237453D3*
X1897783Y9044950D3*
X3949497Y5444617D3*
X13739920Y11484847D3*
X13876173D3*
X14006363Y11488437D3*
X14142617D3*
X13813130Y11372000D3*
X13949383D3*
X14079573Y11375590D3*
X14215827D3*
X13757517Y11251720D3*
X13893770D3*
X14023960Y11255310D3*
X14160213D3*
X13823293Y11138873D3*
X13959547D3*
X14089737Y11142463D3*
X14225990D3*
X13745383Y11026027D3*
X13881637D3*
X14011827Y11029617D3*
X14148080D3*
X16864050Y11489607D3*
X17000303D3*
X17130493Y11493197D3*
X17266747D3*
X16937260Y11376760D3*
X17073513D3*
X17203703Y11380350D3*
X17339957D3*
X16881647Y11256480D3*
X17017900D3*
X17148090Y11260070D3*
X17284343D3*
X16947423Y11143633D3*
X17083677D3*
X17213867Y11147223D3*
X17350120D3*
X16869513Y11030787D3*
X17005767D3*
X17135957Y11034377D3*
X17272210D3*
X19910357Y11560897D3*
X20046610D3*
X20176800Y11564487D3*
X20313053D3*
X19983567Y11448050D3*
X20119820D3*
X20250010Y11451640D3*
X20386263D3*
X19927953Y11327770D3*
X20064207D3*
X20194397Y11331360D3*
X20330650D3*
X19993730Y11214923D3*
X20129983D3*
X20260173Y11218513D3*
X20396427D3*
X19915820Y11102077D3*
X20052073D3*
X20182263Y11105667D3*
X20318517D3*
X22958170Y11535147D3*
X23094423D3*
X23224613Y11538737D3*
X23360867D3*
X23031380Y11422300D3*
X23167633D3*
X23297823Y11425890D3*
X23434077D3*
X22975767Y11302020D3*
X23112020D3*
X23242210Y11305610D3*
X23378463D3*
X23041543Y11189173D3*
X23177797D3*
X23307987Y11192763D3*
X23444240D3*
X22963633Y11076327D3*
X23099887D3*
X23230077Y11079917D3*
X23366330D3*
X11649277Y6583160D3*
X11785530D3*
X11915720Y6586750D3*
X12051973D3*
X11722487Y6470313D3*
X11858740D3*
X11988930Y6473903D3*
X12125183D3*
X11666873Y6350033D3*
X11803127D3*
X11933317Y6353623D3*
X12069570D3*
X11732650Y6237187D3*
X11868903D3*
X11999093Y6240777D3*
X12135347D3*
X11654740Y6124340D3*
X11790993D3*
X11921183Y6127930D3*
X12057437D3*
X14453470Y6530997D3*
X14589723D3*
X14719913Y6534587D3*
X14856167D3*
X14526680Y6418150D3*
X14662933D3*
X14793123Y6421740D3*
X14929377D3*
X14471067Y6297870D3*
X14607320D3*
X14737510Y6301460D3*
X14873763D3*
X14536843Y6185023D3*
X14673097D3*
X14803287Y6188613D3*
X14939540D3*
X14458933Y6072177D3*
X14595187D3*
X14725377Y6075767D3*
X14861630D3*
X6283850Y3011097D3*
X6810727Y3374307D3*
X450617Y9928957D3*
X396690Y10520340D3*
X6369197Y3778753D3*
X5584010Y2848143D3*
X5851070Y2780013D3*
X2231067Y2933283D3*
X1665607Y2849750D3*
X5121747Y2330853D3*
X5268613Y2622750D3*
X2004130Y5603017D3*
X1982530Y6080063D3*
X3977103Y2360767D3*
X3970033Y3053453D3*
X2809960Y5103930D3*
X8285750Y1058367D3*
X8409070D3*
X8536020D3*
X8659343D3*
X8210680Y1325410D3*
X8334000D3*
X8460950D3*
X8584273D3*
X7112760Y8662220D3*
X7240897Y8661117D3*
X7363800Y8657393D3*
X7486993Y8658907D3*
X1067327Y6695830D3*
X2056540Y7357760D3*
X7610073Y3316677D3*
X8768440Y8638557D3*
X7081540Y2852520D3*
X3667903Y6060693D3*
X3455370Y7184990D3*
X8504363Y3694933D3*
X8392690Y3778867D3*
X3848420Y11329880D3*
X6939917Y3022920D3*
X6937163Y3157073D3*
X3007207Y5629093D3*
X2476627Y5622200D3*
X9098577Y3480143D3*
X9097337Y3771277D3*
X7741013Y4365220D3*
Y4495567D3*
Y4622650D3*
Y4749523D3*
X11194467Y4119917D3*
X11706920Y4167580D3*
X2060607Y6336243D3*
Y6207350D3*
X3941947Y10586193D3*
Y10463307D3*
Y10331643D3*
Y10199980D3*
X2438167Y6322483D3*
Y6196587D3*
X7007517Y4859670D3*
X7010900Y4982567D3*
X7745673Y4878497D3*
X7879810Y4878133D3*
X11192793Y4251453D3*
X11396590Y4251340D3*
X3895940Y11621837D3*
X8940393Y4519297D3*
X11092027Y4340143D3*
X11566840Y3063523D3*
X4566927Y9736687D3*
Y9611280D3*
Y9492580D3*
X4566563Y9368563D3*
Y9247020D3*
X1988883Y9684463D3*
Y9512907D3*
X3584757Y9923843D3*
Y9792187D3*
X1986440Y8736090D3*
X2182057Y8867500D3*
X3348087Y8768583D3*
X3530937Y8765583D3*
X4294930Y7853943D3*
X3643717Y7381343D3*
X4158833Y11791343D3*
X8454167Y12491027D3*
X8984610Y8523233D3*
X9221683Y8520507D3*
X10200843Y10365157D3*
X11688597Y10382713D3*
X21214447Y7399907D3*
X20643373Y7384227D3*
X20625147Y6992943D3*
X10487407Y1254863D3*
X12272653Y4600077D3*
X12364977Y4692400D3*
X12460597Y4781427D3*
X12549623Y4870453D3*
X18678910Y7426290D3*
X18685740Y7923430D3*
X20409997Y1310363D3*
X19527847Y1312407D3*
X7885343Y8591553D3*
X8030170Y8586723D3*
X8179823D3*
X8324647D3*
X7730577Y9065850D3*
X7737930Y9239350D3*
X7687680Y9351720D3*
X7822350Y9149770D3*
X6571247Y9438640D3*
X6716073Y9433810D3*
X6865727D3*
X7010550D3*
X9827307Y4581420D3*
X9832137Y4726247D3*
Y4875900D3*
Y5020723D3*
X11389197Y5447553D3*
X11212070Y5448003D3*
X6689240Y8746523D3*
X9512757Y5291627D3*
X9717847Y5294717D3*
X15441733Y3803597D3*
X19536317Y903440D3*
X21121023Y725493D3*
X21718997Y1837973D3*
X21922037Y1836280D3*
X21922957Y2587527D3*
X21729180Y2589790D3*
X9000520Y4786233D3*
X11197947Y4432347D3*
X15534603Y3903603D3*
X20408097Y2625563D3*
X17424463Y2875083D3*
X20399560Y3013090D3*
X20408097Y2854817D3*
X5516443Y10008573D3*
X5467037Y8002780D3*
X7000280Y5315607D3*
X7724600Y5303923D3*
X11092320Y4525253D3*
X16122720Y4491620D3*
X19481203Y2975717D3*
X8903043Y5791597D3*
X11188507Y5113463D3*
X16209747Y4607420D3*
X19230743Y3116147D3*
X11922483Y9102307D3*
X8459257Y6854883D3*
X10650950Y7245910D3*
X11066113Y7294187D3*
X11297837Y7332807D3*
X13477430Y10847357D3*
X14115730Y8198477D3*
X11394390Y5694053D3*
X11023903Y5699023D3*
X8458323Y6295930D3*
X14927557Y5815227D3*
X9910880Y5819370D3*
X8433377Y6459663D3*
X14343953Y7112373D3*
X9748600Y5428727D3*
X9234013Y5596417D3*
X9021703Y5757763D3*
X4751413Y8251480D3*
X4681647Y7922517D3*
X14697147Y8927367D3*
X9880753Y7367410D3*
X8422843Y7285343D3*
X7814577Y7908093D3*
X7713200Y7530467D3*
X7705040Y7692240D3*
X7707763Y7978367D3*
X9018280Y7466000D3*
X9223943Y7467800D3*
X11079010Y7569387D3*
X11395360Y7585330D3*
X23478560Y10807577D3*
X5414937Y10091007D3*
X5283537Y8284023D3*
X5353820Y5931330D3*
X8807300Y6216590D3*
X11188790Y5260013D3*
X17068690Y7134720D3*
X16814430Y8963730D3*
X11281603Y9477550D3*
X7312190Y9444547D3*
X7234457Y11783450D3*
X12600863Y12076840D3*
X12764370Y12194987D3*
X13488693Y11722013D3*
X16121540Y12245843D3*
X12132643Y12293117D3*
X12282320Y12294340D3*
X12425950D3*
X12375093Y11152513D3*
X12152380Y11266533D3*
X12393043Y11323483D3*
X19956240Y450000D3*
X20087197D3*
X20215770D3*
X19825283D3*
X20015753Y571443D3*
X20146710D3*
X20275283D3*
X19884797D3*
X20020503Y328590D3*
X20151460D3*
X20280033D3*
X19889547D3*
X19955030Y689333D3*
X20085987D3*
X20214560D3*
X19824073D3*
X21391150Y2107170D3*
X21522107D3*
X21650680D3*
X21260193D3*
X21450663Y2228613D3*
X21581620D3*
X21710193D3*
X21319707D3*
X21389940Y2346503D3*
X21520897D3*
X21649470D3*
X21258983D3*
X21452927Y1992263D3*
X21583883D3*
X21712457D3*
X21321970D3*
X21528830Y7818947D3*
X21220250Y7702333D3*
X21627263Y7655283D3*
X16437587Y7300233D3*
X16673743Y7273463D3*
X16802110Y7295810D3*
X16517477Y7056573D3*
X13765363Y6740357D3*
X13751793Y6994330D3*
X12817890Y7231807D3*
X14011390Y6466410D3*
X14511273Y8022383D3*
X15874517Y12130170D3*
X16143547Y12095023D3*
X16464673Y11818973D3*
X16591360Y11543077D3*
X19525710Y11875483D3*
X19713230Y11761063D3*
X19018517Y12039917D3*
X19237393Y12154737D3*
X22526813Y11929617D3*
X22666413Y11739253D3*
X21971790Y12171347D3*
X22130520Y12059737D3*
X25202283Y10903203D3*
X25341930Y10618920D3*
X25713830Y11974197D3*
X25848963Y11774310D3*
X25177480Y12112807D3*
X25453177Y12143197D3*
D81*
X1008737Y12189420D3*
Y11935420D3*
Y11681420D3*
Y11427420D3*
Y11173420D3*
Y10919420D3*
Y10665420D3*
Y10411420D3*
Y10157420D3*
Y9903420D3*
Y9649420D3*
Y9395420D3*
X2532737D3*
Y9649420D3*
Y9903420D3*
Y10157420D3*
Y10411420D3*
Y10665420D3*
Y10919420D3*
Y11173420D3*
Y11427420D3*
Y11681420D3*
Y11935420D3*
X1008737Y12443420D3*
X2532737Y12189420D3*
Y12443420D3*
X1008737Y12697420D3*
X2532737D3*
X1008737Y9141420D3*
X2532737D3*
X1008737Y8887420D3*
Y8633420D3*
Y8379420D3*
Y8125420D3*
Y7871420D3*
Y7617420D3*
Y7363420D3*
Y7109420D3*
Y6855420D3*
X2532737D3*
Y7109420D3*
Y7363420D3*
Y7617420D3*
Y7871420D3*
Y8125420D3*
Y8379420D3*
Y8633420D3*
Y8887420D3*
X1262737Y8125420D3*
X1770737D3*
X2024737D3*
X1516737D3*
X2278737D3*
Y12443420D3*
Y11935420D3*
Y11681420D3*
Y11427420D3*
X1326237Y12062420D3*
Y11808420D3*
Y11554420D3*
Y11300420D3*
Y11046420D3*
D82*
X923770Y5391250D3*
X583770D3*
X923770Y4044250D3*
X583770D3*
X12032760Y1898270D3*
X12372760D3*
X12032760Y3245270D3*
X12372760D3*
X23868347Y573053D3*
Y913053D3*
X22521347Y573053D3*
Y913053D3*
X23615007Y4133410D2*
D22*
Y4533410D1*
Y3133410D2*
Y3533410D1*
D16*
X23742850Y4016893D3*
X23488850D3*
X23740697Y3017450D3*
X23488850Y4651893D3*
X23742850D3*
X23486697Y3017450D3*
X23806350Y4143893D3*
Y4270893D3*
Y4397893D3*
Y4524893D3*
X23425350Y4143893D3*
Y4270893D3*
Y4397893D3*
Y4524893D3*
X23486697Y3652450D3*
X23740697D3*
X23804197Y3144450D3*
Y3271450D3*
Y3398450D3*
Y3525450D3*
X23423197Y3144450D3*
Y3271450D3*
Y3398450D3*
Y3525450D3*
D27*
X21475007Y4024410D3*
Y3833410D3*
Y3642410D3*
D84*
X20883603Y1068167D3*
Y1568167D3*
Y3362167D3*
Y3862167D3*
D85*
X20629603Y941167D3*
Y1195167D3*
Y1449167D3*
Y1703167D3*
X20883603Y1957167D3*
Y2211167D3*
Y2465167D3*
Y2719167D3*
Y2973167D3*
X20629603Y3227167D3*
Y3481167D3*
Y3735167D3*
Y3989167D3*
D86*
X21378570Y5540260D3*
Y6040260D3*
D87*
X21124570Y5413260D3*
Y5667260D3*
Y5921260D3*
Y6175260D3*
D86*
X17822570Y5540260D3*
Y6040260D3*
D87*
X18076570Y5413260D3*
Y5667260D3*
Y5921260D3*
Y6175260D3*
X20362570Y4905260D3*
X20108570D3*
X19854570D3*
X19600570D3*
D85*
X3168133Y3332133D3*
X2914133D3*
X2660133D3*
X2406133D3*
X2152133D3*
X1898133D3*
X1644133D3*
X1390133D3*
X1136133D3*
X1651470Y5329507D3*
Y5075507D3*
Y4821507D3*
Y4567507D3*
X2159470D3*
X2413470D3*
X2667470D3*
X3175470D3*
Y4821507D3*
Y5075507D3*
Y5329507D3*
X10670260Y9805740D3*
X10924260D3*
X11178260D3*
X11432260D3*
X11686260D3*
X11940260D3*
X12194260D3*
X12448260D3*
D88*
X9410417Y12702253D3*
Y12448253D3*
Y12194253D3*
Y11940253D3*
Y11686253D3*
Y11432253D3*
Y11178253D3*
Y10924253D3*
Y10670253D3*
Y10416253D3*
Y10162253D3*
Y9908253D3*
Y9654253D3*
X8140417Y9400253D3*
X9410417D3*
X9156417D3*
X8902417D3*
X8648417D3*
X8394417D3*
X7886417D3*
Y9654253D3*
Y9908253D3*
Y10162253D3*
Y10416253D3*
Y10670253D3*
Y10924253D3*
Y11178253D3*
Y11432253D3*
Y11686253D3*
Y11940253D3*
Y12194253D3*
Y12448253D3*
X9156417D3*
Y11940253D3*
Y11686253D3*
Y11432253D3*
X7886417Y12702253D3*
D82*
X11689560Y5500047D3*
X12029560D3*
X11689560Y6847047D3*
X12029560D3*
X14535340Y5496367D3*
X14875340D3*
X14535340Y6843367D3*
X14875340D3*
X13809810Y10469587D3*
X14149810D3*
X13809810Y11816587D3*
X14149810D3*
D81*
X4839567Y12190070D3*
Y11936070D3*
Y11682070D3*
Y11428070D3*
Y11174070D3*
Y10920070D3*
Y10666070D3*
Y10412070D3*
Y10158070D3*
Y9904070D3*
Y9650070D3*
Y9396070D3*
X6363567D3*
Y9650070D3*
Y9904070D3*
Y10158070D3*
Y10412070D3*
Y10666070D3*
Y10920070D3*
Y11174070D3*
Y11428070D3*
Y11682070D3*
Y11936070D3*
X4839567Y12444070D3*
X6363567Y12190070D3*
Y12444070D3*
X4839567Y12698070D3*
X6363567D3*
X4839567Y9142070D3*
X6363567D3*
X4839567Y8888070D3*
Y8634070D3*
Y8380070D3*
Y8126070D3*
Y7872070D3*
Y7618070D3*
Y7364070D3*
Y7110070D3*
Y6856070D3*
X6363567D3*
Y7110070D3*
Y7364070D3*
Y7618070D3*
Y7872070D3*
Y8126070D3*
Y8380070D3*
Y8634070D3*
Y8888070D3*
X5093567Y8126070D3*
X5601567D3*
X5855567D3*
X5347567D3*
X6109567D3*
Y12444070D3*
Y11936070D3*
Y11682070D3*
Y11428070D3*
X5157067Y12063070D3*
Y11809070D3*
Y11555070D3*
Y11301070D3*
Y11047070D3*
D82*
X16920627Y10468057D3*
X17260627D3*
X16920627Y11815057D3*
X17260627D3*
X23020837Y10515913D3*
X23360837D3*
X23020837Y11862913D3*
X23360837D3*
X19970133Y10519493D3*
X20310133D3*
X19970133Y11866493D3*
X20310133D3*
M02*
