%TF.GenerationSoftware,Novarm,DipTrace,3.3.1.1*%
%TF.CreationDate,2019-12-29T15:55:59+07:00*%
%FSLAX35Y35*%
%MOMM*%
%TF.FileFunction,Paste,Top*%
%TF.Part,Single*%
%ADD92R,2.8X1.4*%
%ADD94R,0.95X0.6*%
%ADD96R,1.48X1.68*%
%ADD98R,0.105X0.689*%
%ADD100R,1.6X1.5*%
%ADD102R,0.7X0.4*%
%ADD104R,0.3X1.4*%
%ADD106R,5.8X5.8*%
%ADD108R,1.4X2.8*%
%ADD110R,-0.02X-0.075*%
%ADD112R,5.3X6.8*%
%ADD114R,0.95X1.05*%
%ADD116R,1.08X1.05*%
%ADD118R,-0.075X-0.02*%
%ADD120R,6.8X5.3*%
%ADD122R,1.05X0.95*%
%ADD124R,1.05X1.08*%
%ADD128R,0.35X1.3*%
%ADD139R,0.6X1.1*%
%ADD146R,1.5X1.6*%
%ADD148R,0.4X0.7*%
%ADD150R,1.4X0.3*%
%ADD152R,1.1X0.6*%
%ADD159R,9.8X4.8*%
G75*
G01*
%LPD*%
D159*
X25421037Y1927914D3*
Y1292911D3*
D152*
X3426710Y10242337D3*
Y10452337D3*
X3428143Y9873003D3*
Y10083003D3*
X3436963Y9505237D3*
Y9715237D3*
X3191900Y10403437D3*
Y10613437D3*
X3191127Y10039670D3*
Y10249670D3*
X3195693Y9667827D3*
Y9877827D3*
D150*
X22299657Y1633180D3*
Y1473180D3*
Y1313180D3*
D148*
X22549657Y1753180D3*
Y1193180D3*
D146*
X22784657Y1623180D3*
Y1323180D3*
D152*
X22003667Y1289300D3*
Y1499300D3*
D139*
X23043610Y1205233D3*
X23253610D3*
X23424237Y1208027D3*
X23634237D3*
D152*
X23879897Y1510433D3*
Y1720433D3*
D139*
X23439757Y1663550D3*
X23649757D3*
X23289663Y1663003D3*
X23079663D3*
X21835493Y4471813D3*
X22045493D3*
X22606903Y2462980D3*
X22816903D3*
X23022287Y2457423D3*
X23232287D3*
X23445860Y2453920D3*
X23655860D3*
X22816523Y2942247D3*
X23026523D3*
X22409823Y2942620D3*
X22619823D3*
D152*
X12956077Y10420267D3*
Y10210267D3*
D128*
X11395483Y3633917D3*
X11268483D3*
X11141483D3*
X11014483D3*
Y3093917D3*
X11141483D3*
X11268483D3*
X11395483D3*
D139*
X11087087Y3879743D3*
X11297087D3*
X11293903Y2852820D3*
X11083903D3*
X3630173Y5310417D3*
X3840173D3*
X4046567Y5303997D3*
X4256567D3*
X3624457Y5088193D3*
X3834457D3*
X4043313Y5087237D3*
X4253313D3*
X3633633Y4871363D3*
X3843633D3*
X4027577Y4875253D3*
X4237577D3*
X4408733Y4874773D3*
X4618733D3*
X3627217Y4636133D3*
X3837217D3*
X4025170Y4636187D3*
X4235170D3*
X4430123Y4633203D3*
X4640123D3*
X4826760Y4641583D3*
X5036760D3*
X3629930Y4381533D3*
X3839930D3*
X4032213Y4381297D3*
X4242213D3*
X4423327Y4385867D3*
X4633327D3*
X4817883Y4383610D3*
X5027883D3*
X5194317Y4388090D3*
X5404317D3*
X3630683Y4151263D3*
X3840683D3*
X4020547Y4154617D3*
X4230547D3*
X4409477Y4155250D3*
X4619477D3*
X4799070Y4154563D3*
X5009070D3*
X5175800Y4158747D3*
X5385800D3*
X5575777Y4158710D3*
X5785777D3*
X7394913Y11703070D3*
X7604913D3*
X7399680Y11432233D3*
X7609680D3*
X7399133Y11161400D3*
X7609133D3*
X3017213Y10658293D3*
X2807213D3*
X3020450Y10916873D3*
X2810450D3*
X3001263Y7352093D3*
X2791263D3*
X3015807Y7609770D3*
X2805807D3*
X7397803Y11944970D3*
X7607803D3*
D150*
X22584443Y5121697D3*
Y4961697D3*
Y4801697D3*
D148*
X22834443Y5241697D3*
Y4681697D3*
D146*
X23069443Y5111697D3*
Y4811697D3*
D152*
X22214210Y4917707D3*
Y5127707D3*
D124*
X21291023Y8364150D3*
X21491023D3*
X21691023D3*
X21891023D3*
D122*
Y9185650D3*
X21691023D3*
X21491023D3*
X21291023D3*
D120*
X21591023Y8853160D3*
D118*
X21234723Y9119150D3*
X21947323D3*
D116*
X12220457Y8224073D3*
Y8024073D3*
Y7824073D3*
Y7624073D3*
D114*
X13041957D3*
Y7824073D3*
Y8024073D3*
Y8224073D3*
D112*
X12709467Y7924073D3*
D110*
X12975457Y8280373D3*
Y7567773D3*
D124*
X13709177Y5920643D3*
X13509177D3*
X13309177D3*
X13109177D3*
D122*
Y5099143D3*
X13309177D3*
X13509177D3*
X13709177D3*
D120*
X13409177Y5431633D3*
D118*
X13765477Y5165643D3*
X13052877D3*
D124*
X16552450Y5954193D3*
X16352450D3*
X16152450D3*
X15952450D3*
D122*
Y5132693D3*
X16152450D3*
X16352450D3*
X16552450D3*
D120*
X16252450Y5465183D3*
D118*
X16608750Y5199193D3*
X15896150D3*
D124*
X22263893Y8372677D3*
X22463893D3*
X22663893D3*
X22863893D3*
D122*
Y9194177D3*
X22663893D3*
X22463893D3*
X22263893D3*
D120*
X22563893Y8861687D3*
D118*
X22207593Y9127677D3*
X22920193D3*
D124*
X23246900Y8372647D3*
X23446900D3*
X23646900D3*
X23846900D3*
D122*
Y9194147D3*
X23646900D3*
X23446900D3*
X23246900D3*
D120*
X23546900Y8861657D3*
D118*
X23190600Y9127647D3*
X23903200D3*
D139*
X2806653Y8116070D3*
X3016653D3*
X2800263Y7877413D3*
X3010263D3*
D108*
X21926880Y7171643D3*
X22386880D3*
D106*
X22156880Y7821643D3*
D152*
X12391557Y6153760D3*
Y6363817D3*
D139*
X12864607Y6333587D3*
X12654607D3*
D152*
X15221810Y6137803D3*
Y6347860D3*
D139*
X15652170Y6387367D3*
X15442170D3*
D152*
X20936413Y9182797D3*
Y8972740D3*
X20939083Y8531220D3*
Y8741220D3*
D104*
X12765900Y5745997D3*
X12605900D3*
X12445900D3*
D102*
X12885900Y5495997D3*
X12325900D3*
D100*
X12755900Y5260997D3*
X12455900D3*
D98*
X13998753Y8032160D3*
X14048753D3*
X13948753D3*
X13898753D3*
X13998753Y7611060D3*
X13948753D3*
X13898753D3*
X14048753D3*
X14098753D3*
Y8032160D3*
D96*
X13998753Y7821610D3*
D104*
X14869793Y10713323D3*
X14709793D3*
X14549793D3*
D102*
X14989793Y10463323D3*
X14429793D3*
D100*
X14859793Y10228323D3*
X14559793D3*
D152*
X13567013Y7970207D3*
Y8180207D3*
D94*
X13787947Y8357543D3*
X14137947D3*
D152*
X13582530Y7542953D3*
Y7752953D3*
D139*
X13904520Y7426953D3*
X14114520D3*
X14237933Y7477014D3*
X14447933D3*
X15148543Y7663457D3*
X14938543D3*
X15404763Y7644493D3*
X15614763D3*
X16039450Y7641207D3*
X15829450D3*
X16274567Y7627960D3*
X16484567D3*
D98*
X13994177Y7171953D3*
X14044177D3*
X13944177D3*
X13894177D3*
X13994177Y6750853D3*
X13944177D3*
X13894177D3*
X14044177D3*
X14094177D3*
Y7171953D3*
D96*
X13994177Y6961403D3*
D139*
X12562660Y5977600D3*
X12772660D3*
D152*
X14504467Y10975780D3*
Y11185837D3*
X13544003Y7088670D3*
Y6878670D3*
D94*
X12964167Y7306657D3*
X13314167D3*
D152*
X13670203Y6590343D3*
Y6380343D3*
D139*
X13881737Y6302910D3*
X14091737D3*
X13905940Y6559304D3*
X14115940D3*
D92*
X12454800Y7059080D3*
Y6599080D3*
D106*
X13104800Y6829080D3*
D98*
X16132233Y11965060D3*
X16182233D3*
X16082233D3*
X16032233D3*
X16132233Y11543960D3*
X16082233D3*
X16032233D3*
X16182233D3*
X16232233D3*
Y11965060D3*
D96*
X16132233Y11754510D3*
D139*
X14742720Y10942883D3*
X14952720D3*
D104*
X15588773Y5749103D3*
X15428773D3*
X15268773D3*
D102*
X15708773Y5499103D3*
X15148773D3*
D100*
X15578773Y5264103D3*
X15278773D3*
D152*
X15684587Y12161867D3*
Y11951867D3*
D98*
X16800690Y7159217D3*
X16850690D3*
X16750690D3*
X16700690D3*
X16800690Y6738117D3*
X16750690D3*
X16700690D3*
X16850690D3*
X16900690D3*
Y7159217D3*
D96*
X16800690Y6948667D3*
D139*
X15431883Y6005507D3*
X15641883D3*
D152*
X16395403Y6958090D3*
Y7168090D3*
D94*
X15768410Y7285857D3*
X16118410D3*
D152*
X16394407Y6526147D3*
Y6736147D3*
D139*
X16668193Y6331837D3*
X16878193D3*
X16666313Y6559794D3*
X16876313D3*
D92*
X15272283Y7081440D3*
Y6621440D3*
D106*
X15922283Y6851440D3*
D94*
X15940973Y12256523D3*
X16290973D3*
D152*
X15738117Y11586280D3*
Y11796280D3*
D139*
X16194403Y11135103D3*
X15984403D3*
X15990280Y11347521D3*
X16200280D3*
D92*
X14585187Y12060787D3*
Y11600787D3*
D106*
X15235187Y11830787D3*
D124*
X15846350Y10865713D3*
X15646350D3*
X15446350D3*
X15246350D3*
D122*
Y10044213D3*
X15446350D3*
X15646350D3*
X15846350D3*
D120*
X15546350Y10376703D3*
D118*
X15902650Y10110713D3*
X15190050D3*
D139*
X14930100Y11339557D3*
X14720100D3*
D104*
X18013923Y10701913D3*
X17853923D3*
X17693923D3*
D102*
X18133923Y10451913D3*
X17573923D3*
D100*
X18003923Y10216913D3*
X17703923D3*
D152*
X17616590Y11017563D3*
Y11227620D3*
D98*
X19222243Y11986973D3*
X19272243D3*
X19172243D3*
X19122243D3*
X19222243Y11565873D3*
X19172243D3*
X19122243D3*
X19272243D3*
X19322243D3*
Y11986973D3*
D96*
X19222243Y11776423D3*
D139*
X17848657Y10957193D3*
X18058657D3*
D152*
X18796573Y11888827D3*
Y12098827D3*
D94*
X19035273Y12177960D3*
X19385273D3*
D152*
X18796407Y11508667D3*
Y11718667D3*
D108*
X23354500Y7186173D3*
X23814500D3*
D106*
X23584500Y7836173D3*
D139*
X19443350Y11115547D3*
X19233350D3*
D98*
X21425197Y7692870D3*
X21475197D3*
X21375197D3*
X21325197D3*
X21425197Y7271770D3*
X21375197D3*
X21325197D3*
X21475197D3*
X21525197D3*
Y7692870D3*
D96*
X21425197Y7482320D3*
D139*
X19217987Y11334131D3*
X19427987D3*
D152*
X21018317Y7731790D3*
Y7941790D3*
D94*
X21637570Y7941070D3*
X21287570D3*
D152*
X20995490Y7334813D3*
Y7544813D3*
D139*
X21065973Y7119190D3*
X21275973D3*
X21446100Y7091261D3*
X21656100D3*
D108*
X22633787Y7189573D3*
X23093787D3*
D106*
X22863787Y7839573D3*
D92*
X17645890Y12063763D3*
Y11603763D3*
D106*
X18295890Y11833763D3*
D124*
X18971750Y10855117D3*
X18771750D3*
X18571750D3*
X18371750D3*
D122*
Y10033617D3*
X18571750D3*
X18771750D3*
X18971750D3*
D120*
X18671750Y10366107D3*
D118*
X19028050Y10100117D3*
X18315450D3*
D139*
X18042327Y11299553D3*
X17832327D3*
D104*
X24120270Y10745953D3*
X23960270D3*
X23800270D3*
D102*
X24240270Y10495953D3*
X23680270D3*
D100*
X24110270Y10260953D3*
X23810270D3*
D152*
X23718613Y11108700D3*
Y11318757D3*
D98*
X25410017Y12025810D3*
X25460017D3*
X25360017D3*
X25310017D3*
X25410017Y11604710D3*
X25360017D3*
X25310017D3*
X25460017D3*
X25510017D3*
Y12025810D3*
D96*
X25410017Y11815260D3*
D139*
X23995463Y11001350D3*
X24205463D3*
D152*
X24944230Y11928633D3*
Y12138633D3*
D94*
X25184863Y12262480D3*
X25534863D3*
D152*
X24945160Y11574310D3*
Y11784310D3*
D139*
X25581167Y11186847D3*
X25371167D3*
X25363570Y11393654D3*
X25573570D3*
D92*
X23793660Y12075677D3*
Y11615677D3*
D106*
X24443660Y11845677D3*
D124*
X25071830Y10861717D3*
X24871830D3*
X24671830D3*
X24471830D3*
D122*
Y10040217D3*
X24671830D3*
X24871830D3*
X25071830D3*
D120*
X24771830Y10372707D3*
D118*
X25128130Y10106717D3*
X24415530D3*
D139*
X24152610Y11356370D3*
X23942610D3*
D104*
X21037460Y10797253D3*
X20877460D3*
X20717460D3*
D102*
X21157460Y10547253D3*
X20597460D3*
D100*
X21027460Y10312253D3*
X20727460D3*
D152*
X20654003Y11064807D3*
Y11274863D3*
D98*
X22325177Y12059370D3*
X22375177D3*
X22275177D3*
X22225177D3*
X22325177Y11638270D3*
X22275177D3*
X22225177D3*
X22375177D3*
X22425177D3*
Y12059370D3*
D96*
X22325177Y11848820D3*
D139*
X20880570Y11029893D3*
X21090570D3*
D152*
X21841657Y12079513D3*
Y12289513D3*
D94*
X22068823Y12272210D3*
X22418823D3*
D152*
X21837970Y11696370D3*
Y11906370D3*
D139*
X22471670Y11148703D3*
X22261670D3*
X22241570Y11429284D3*
X22451570D3*
D92*
X20730690Y12123020D3*
Y11663020D3*
D106*
X21380690Y11893020D3*
D124*
X22028233Y10912300D3*
X21828233D3*
X21628233D3*
X21428233D3*
D122*
Y10090800D3*
X21628233D3*
X21828233D3*
X22028233D3*
D120*
X21728233Y10423290D3*
D118*
X22084533Y10157300D3*
X21371933D3*
D139*
X21081180Y11406143D3*
X20871180D3*
D152*
X11904113Y8181593D3*
Y7971537D3*
X11909663Y7510590D3*
Y7720590D3*
M02*
